<svg xmlns="http://www.w3.org/2000/svg" xmlns:xlink="http://www.w3.org/1999/xlink" width="322" height="239" fill="none" xmlns:v="https://vecta.io/nano"><style><![CDATA[.B{fill-rule:evenodd}.C{fill:#fff6f8}.D{fill:#e6c82e}.E{fill:#d4942a}.F{fill:#ede92f}.G{fill:#fff}.H{fill:#ff4a32}.I{fill:#85321a}.J{fill:#ffdccb}.K{fill:#e0412c}.L{fill:#bf3930}]]></style><mask id="A" mask-type="alpha" maskUnits="userSpaceOnUse" x="0" y="0" width="322" height="238"><path d="M0 .37h321.517V237.2H0V.37z" class="B G"/></mask><g mask="url(#A)" class="B"><path d="M166.73 234.61c75.135-9.23 153.83-39.985 154.78-123.224S240.018-15.605 175.24 5.737s-68.02 72.375-87.8 75.14-97.723 8.688-86.315 71.356S67.087 246.85 166.73 234.61z" fill="#fef6f4"/></g><g class="B"><path d="M225.477 56.06l-.182.864-.617 2.948-2.714-.547-2.25-.466-3.275-.66-5.465-1.105-2.146-.442-3.285-.662-2.113-.434-1.426-.283-.833-.17-.286 1.388-1.938 9.23-.4 1.935-.765 3.656-.4 1.933-.764 3.644-.412 1.933-.763 3.654-.4 1.923-.765 3.665-.412 1.937-.753 3.642-.4 1.935-1.164 5.578-.764 3.665-.41 1.937-1.393 6.67-3.856-.786 12.186-58.325-.058-.023.742-3.585.046-.218 2.112.432 1.38.275 1.94.398 8.592 1.742 1.998.398 5.35 1.092 3.285.662 2.066.42.72.15z" class="C"/><path d="M202.005 55.273l-.834-.17-.283 1.388-1.6-1.64-1.735-2 .445-2.15 1.736 2.138 2.28 2.426zm3.538.727l-2.112-.434a37.78 37.78 0 0 1-1.906-4.357l1.942.398a36.5 36.5 0 0 0 2.076 4.394zm5.432 1.094l-2.147-.442a39.27 39.27 0 0 1-2.053-4.384l1.963.4a39.04 39.04 0 0 0 2.237 4.426zm5.465 1.106l-2.2-.444a36.99 36.99 0 0 1-2.19-4.417l1.997.398a38.26 38.26 0 0 0 2.384 4.463zm5.523 1.125l-2.25-.467a38.72 38.72 0 0 1-2.361-4.449l2.055.42a39.09 39.09 0 0 0 2.555 4.497zm3.33-2.4l-.502 2.4c-.82-1.32-1.518-2.596-2.1-3.835l2.065.42.536 1.013zm-25.172 3.2l-.4 1.948-1.665-1.72-1.622-1.857.445-2.128 1.62 1.992 1.63 1.765zm-1.174 5.588l-.4 1.937-1.735-1.765-1.552-1.8.445-2.128 1.552 1.912 1.7 1.843zm-1.164 5.59l-.4 1.935-1.804-1.845-1.483-1.72.444-2.14 1.484 1.857 1.758 1.912zM196.62 76.9l-.4 1.935-1.86-1.9-1.426-1.652.458-2.14 1.426 1.776 1.813 1.98zm-1.176 5.578l-.4 1.923-1.917-1.967-1.37-1.585.447-2.128 1.368 1.698 1.87 2.06zm-1.164 5.59l-.4 1.937-1.974-2.052-1.3-1.512.445-2.14 1.3 1.627 1.94 2.14zm-1.164 5.58l-.4 1.935-2.043-2.107-1.244-1.445.456-2.14 1.244 1.55 1.997 2.208zm-1.176 5.588l-.4 1.924-2.112-2.174-1.175-1.367.447-2.14 1.186 1.482 2.053 2.275zm-1.162 5.59l-.4 1.937-2.17-2.255-1.106-1.3.444-2.14 1.12 1.423 2.122 2.346z" class="H"/><path d="M200.146 50.925l-.422 1.924-1.232 5.522-.447 1.992-.786 3.516-.445 2.015-.787 3.507-.445 2.002-.776 3.507-.456 2.015-.777 3.495-.446 2.013-.786 3.495-.445 2.025-2.008 9.005-.457 2.027-.776 3.493-.456 2.027-.753 3.39-1.28-.284 3.253-15.583.456-2.14 1.164-5.59.718-3.45 1.164-5.577.458-2.14v-.01l3.925-18.804-.057-.02.785-3.803 2.113.432z" fill="#9fbfd4"/><path d="M217.177 203.606H170.35l-9.624-102.04H226.8l-9.623 102.04z" class="G"/><path d="M222.75 144.517c-2.218-1.395-4.616-2.332-7.176-2.587-8.907-.883-12.123 7.226-19.886 5.492-10.325-2.308-9.098-17.65-22.13-30.032-3.56-3.382-7.794-6.166-12.118-8.27l4.41 46.75c7.615 5.768 18.082 11.378 28.556 8.986 11.188-2.552 13.1-12.1 22.452-11.946 1.76.03 3.43.402 5.006 1.017l.888-9.41z" class="H"/><path d="M161.07 105.226h65.383l.345-3.66h-66.073l.345 3.66z" fill="#dedede"/></g><mask id="B" mask-type="alpha" maskUnits="userSpaceOnUse" x="0" y="0" width="322" height="239"><path d="M0 239h321.517V.37H0V239z" class="B G"/></mask><g mask="url(#B)" class="B"><g class="G"><path d="M158.16 103.18h70.242V95.54H158.16v7.642z"/><path d="M174.997 96.883h36.567v-5.65h-36.567v5.65z"/></g><path d="M193.443 196.987c-16.487-18.915-15.215-41.95-12.947-82.988.262-4.782.96-10.556 5.098-13.805 3.105-2.438 7.58-3.005 7.444-4.116-.115-.962-3.46-.48-5.313-2.53-.586-.644-.923-1.442-1.096-2.314H175v4.306h-16.84v7.642h2.72l9.47 100.426h29.917a56.93 56.93 0 0 1-6.823-6.62z" fill="#9fbfd4"/><path d="M126.36 156.303l13.634-52.322 6.378 1.654 2.335 1.306-13.633 52.32-6.38-1.652-2.335-1.306z" class="D"/><path d="M126.36 156.303l6.38 1.652 13.633-52.32-6.378-1.654-13.634 52.322z" class="E"/><g class="F"><path d="M146.887 112.618c-.838 4.727-2.66 9.394-3.084 9.27-.052-.016-.138-.12-.065-1.17.353-5.143 3.005-11.684 3.496-11.468.232.104-.054 1.72-.347 3.367zm-3.547 11.552c.17 1.157-.696 3.457-1.163 3.944-.058.06-.17.153-.326.03-.767-.6.548-3.946 1.106-4.507.264-.267.324.13.383.534z"/></g><path d="M132.285 144.66l-6.265-53.696 6.547-.76 2.65.375 6.264 53.697-6.546.76-2.65-.373z" class="D"/><path d="M132.285 144.66l6.548-.76-6.266-53.698-6.547.76 6.265 53.696z" class="E"/><g class="F"><path d="M135.58 96.53c.93 4.7.926 9.717.485 9.755-.054.004-.17-.063-.483-1.065-1.537-4.922-1.438-11.98-.9-11.954.255.013.575 1.623.9 3.264zm.882 12.046c.578 1.017.603 3.472.345 4.097-.033.077-.102.203-.294.144-.935-.293-.918-3.878-.602-4.6.152-.346.35.002.55.358z"/></g><path d="M101.03 140.748l-8.98-53.313-6.5 1.1-2.442 1.096 8.98 53.312 6.5-1.1 2.44-1.095z" class="E"/><path d="M101.03 140.748l-6.5 1.1-8.98-53.313 6.5-1.1 8.98 53.313z" class="D"/><g class="F"><path d="M88.5 92.752c.042 4.84 2.133 9.54 3.05 9.375.1-.02.324-.134.55-1.218 1.1-5.315-2.024-11.892-3.113-11.627-.517.126-.502 1.782-.5 3.47zm3.188 11.708c-.763 1.218.2 3.535.993 4.002.096.057.3.145.657.003 1.8-.697.278-4.053-.67-4.592-.452-.253-.713.162-.98.587z"/></g><path d="M103.216 130.037l-3.057-53.973 6.58-.37 2.624.53 3.057 53.974-6.58.37-2.624-.53z" class="D"/><path d="M103.216 130.037l6.58-.37-3.057-53.973-6.58.37 3.057 53.973z" class="E"/><g class="F"><path d="M109.37 82.185c.65 4.755.345 9.755-.098 9.765-.054.002-.165-.07-.418-1.1-1.242-5.006-.72-12.044-.188-11.984.255.025.478 1.654.704 3.3zm.163 12.08c.517 1.052.396 3.503.1 4.1-.034.075-.1.2-.3.128-.918-.348-.686-3.925-.328-4.63.17-.335.347.027.528.392z"/></g><path d="M125.56 134.106l-9.615-53.2 6.486-1.166 2.67.208 9.614 53.2-6.486 1.166-2.668-.208z" class="D"/><path d="M125.56 134.106l6.486-1.164-9.615-53.204-6.486 1.166 9.615 53.2z" class="E"/><g class="F"><path d="M125.833 85.864c1.224 4.642 1.53 9.64 1.094 9.703-.054.008-.172-.048-.548-1.032-1.842-4.814-2.183-11.864-1.646-11.874.254-.004.672 1.585 1.1 3.203zm1.635 11.968c.64.98.82 3.43.6 4.067-.027.078-.087.2-.28.162-.955-.233-1.162-3.8-.9-4.554.128-.352.347-.017.57.325z"/></g><path d="M86.128 161.938l-3.057-53.973 6.58-.37 2.624.53 3.057 53.974-6.58.37-2.624-.53z" class="D"/><path d="M86.128 161.938l6.58-.37-3.057-53.973-6.58.37 3.057 53.973z" class="E"/><g class="F"><path d="M92.282 114.086c.65 4.753.345 9.755-.096 9.765-.054 0-.167-.07-.42-1.092-1.242-5.004-.72-12.042-.186-11.985.253.027.475 1.654.7 3.312zm.164 12.077c.517 1.052.397 3.505.1 4.1-.036.072-.1.197-.3.126-.918-.346-.688-3.923-.328-4.627.17-.335.347.025.527.4z"/></g><path d="M133.323 164.405l-3.576-53.94-6.576.434-2.54.845 3.577 53.943 6.576-.436 2.54-.845z" class="E"/><path d="M133.323 164.405l-6.576.436-3.576-53.943 6.576-.434 3.576 53.94z" class="D"/><g class="F"><path d="M125.68 115.397c-.444 4.82 1.164 9.705 2.095 9.633.113-.01.336-.102.667-1.155 1.64-5.178-.818-12.036-1.926-11.88-.527.074-.68 1.722-.836 3.403zm1.995 11.968c-.88 1.134-.155 3.538.585 4.08.092.067.276.174.654.068 1.86-.514.684-4.007-.205-4.634-.424-.298-.725.1-1.034.485z"/></g><path d="M117.984 133.858l.512-54.056-6.59-.063-2.595.652-.512 54.058 6.59.063 2.595-.653z" class="E"/><path d="M117.984 133.858l-6.59-.062.5-54.058 6.59.063-.512 54.057z" class="D"/><g class="F"><path d="M114.067 84.415c-.807 4.772.427 9.765 1.36 9.76.115 0 .343-.074.755-1.1 2.024-5.038.094-12.063-1.025-11.992-.53.034-.807 1.67-1.1 3.333zm1.086 12.082c-.965 1.067-.422 3.516.276 4.113.084.072.26.195.645.12 1.894-.373.986-3.944.144-4.638-.398-.33-.728.034-1.065.405z"/></g><path d="M120.263 145.343l8.392-53.408-6.51-1.017-2.665.27-8.39 53.406 6.51 1.02 2.664-.27z" class="E"/><path d="M120.263 145.343l-6.51-1.017 8.392-53.408 6.51 1.017-8.392 53.408z" class="D"/><g class="F"><path d="M123.6 95.857c-1.495 4.606-1 9.724-.08 9.856.113.017.35-.023.9-.98 2.737-4.692 1.85-11.92.734-12.013-.53-.042-1.043 1.533-1.564 3.138zm-.688 12.113c-1.112.916-.93 3.417-.328 4.1.073.086.228.233.623.212 1.928-.093 1.55-3.76.818-4.568-.346-.384-.726-.07-1.113.247z"/></g><path d="M104.51 138.684l-12.37-52.63 6.417-1.5 2.675.07 12.37 52.63-6.417 1.5-2.675-.07z" class="D"/><path d="M104.51 138.684l6.417-1.5-12.37-52.633-6.417 1.5 12.37 52.63z" class="E"/><g class="F"><path d="M102.274 90.492c1.464 4.572 2.032 9.55 1.596 9.635-.05.01-.174-.04-.6-1.002-2.092-4.715-2.8-11.736-2.264-11.772.255-.017.755 1.547 1.267 3.14zm2.256 11.868c.7.947.998 3.384.812 4.03-.023.078-.076.214-.274.176-.964-.184-1.357-3.746-1.125-4.5.1-.362.347-.037.587.292z"/></g><path d="M100.7 151.577l8.39-53.408-6.513-1.02-2.662.27-8.39 53.408 6.51 1.02 2.664-.27z" class="E"/><path d="M100.7 151.577l-6.51-1.017 8.39-53.4 6.513 1.02-8.39 53.408z" class="D"/><g class="F"><path d="M104.037 102.1c-1.495 4.604-1.002 9.723-.078 9.857.113.015.348-.025.906-.98 2.74-4.692 1.852-11.924.736-12.015-.53-.042-1.042 1.533-1.564 3.14zm-.69 12.114c-1.1.913-.93 3.416-.327 4.108.073.085.23.232.623.213 1.928-.094 1.548-3.76.82-4.568-.35-.384-.728-.073-1.116.247z"/></g><path d="M137.486 210.885H88.092l-7.983-78.352h65.36l-7.983 78.352z" class="H"/><path d="M137.525 210.498c-14.762-8.447-31.073-20.915-37.643-41.253-4.403-13.625-3.115-26.7-2.486-36.71H80.108l7.983 78.35h49.394l.04-.386z" fill="#e8312e"/><path d="M126.245 174.176c0 11.296-6.066 20.454-13.548 20.454s-13.547-9.158-13.547-20.454 6.066-20.455 13.548-20.455 13.548 9.157 13.548 20.455z" class="C"/><path d="M112.698 194.63c.958 0 1.893-.153 2.796-.44-6.683-6.7-12.35-14.846-15.613-24.946l-.21-.682c-.337 1.784-.52 3.665-.52 5.613 0 11.296 6.066 20.455 13.55 20.455z" class="J"/><path d="M195.795 239H110.8c-7.824 0-14.166-6.33-14.166-14.134H209.96c0 7.805-6.342 14.134-14.166 14.134z" fill="#ffad4b"/><g fill="#de7441"><path d="M209.96 224.868H96.635v5.838c1.34.315 3.502-1.6 7.082-1.893 6.536-.52 8.422 5.187 14.826 4.93 4.866-.197 4.803-3.537 9.552-3.616 6.214-.1 8.093 5.587 13.837 4.93 3.916-.445 3.72-3.17 7.576-3.613 6.262-.72 9.176 6.185 14.496 4.93 3.266-.77 2.89-3.545 6.26-4.274 5.09-1.1 7.975 4.796 12.518 3.616 3.6-.93 3.11-4.96 6.587-5.916 5.288-1.45 10.782 6.654 13.51 4.93 1.742-1.1.14-4.812 2.306-6.242 1.414-.935 3.32-.157 4.776.176v-3.792z"/><path d="M96.635 225.806v6.665A6.54 6.54 0 0 0 103.18 239h38.36c-1.863-.66-3.34-1.615-3.726-3.12-.745-2.89 3.262-4.837 2.8-6.904-.448-2.004-4.943-3.373-11.262-4.107h-25.494c-2.508.242-4.943.554-7.224.937z"/></g><path d="M97.13 220.925c-.278.6-2.637 5.8-.99 7.23 1.282 1.113 3.523-1.32 7.578-1.642 6.534-.52 8.422 5.19 14.824 4.93 4.866-.197 4.803-3.537 9.554-3.616 6.214-.1 8.092 5.587 13.835 4.93 3.917-.445 3.722-3.17 7.578-3.613 6.262-.72 9.175 6.185 14.496 4.93 3.266-.77 2.9-3.545 6.258-4.272 5.09-1.1 7.977 4.794 12.518 3.614 3.59-.93 3.112-4.958 6.59-5.914 5.288-1.45 10.78 6.652 13.507 4.93 1.744-1.1.142-4.814 2.306-6.244 2.175-1.434 5.5 1.174 6.59 0 1.146-1.247-1.518-5.388-1.646-5.587-8.508-13.025-104.74-17.828-112.997.33z" fill="#7fcf33"/><path d="M97.13 220.925c-.16.352-1.004 2.214-1.384 4.01.092.232.216.436.395.59 1.282 1.11 3.523-1.32 7.578-1.642 6.534-.52 8.422 5.19 14.824 4.93 4.868-.197 4.803-3.537 9.554-3.616 6.214-.1 8.092 5.587 13.835 4.93 3.917-.445 3.722-3.17 7.578-3.613 6.262-.72 9.175 6.183 14.496 4.93 3.266-.77 2.9-3.545 6.258-4.272 5.09-1.1 7.977 4.794 12.518 3.614 3.59-.93 3.112-4.958 6.59-5.914 5.288-1.45 10.78 6.652 13.507 4.93 1.744-1.1.142-4.814 2.306-6.244 2.12-1.398 5.34 1.038 6.5.07-.54-1.447-1.482-2.912-1.556-3.028-8.508-13.025-104.738-17.828-112.997.33z" fill="#76bf2f"/><path d="M209.964 220.385c-2.48-3.392-10.92-6.214-22.168-8.2-24.927-1.14-62.418.128-83.138 2.696-3.78 1.635-6.434 3.635-7.53 6.042-.092.205-.414.922-.744 1.832.617.185 1.207.348 1.733.468 4.414 1.035 6.666.098 13.67.494 3.728.212 4.528.558 8.4.986 7.638.847 10.668.182 19.272.165 8.524-.016 7.14.634 21.413 1.15 7.412.27 11.926.422 18.283.164 5.43-.218 7.316-.537 9.166-.87.306-.18.648-.334 1.046-.443.786-.216 1.576-.218 2.36-.075 1.318-.15 3.04-.294 5.548-.42 3.35-.166 6.682-.23 10.212-2.3.675-.394 1.593-1.002 2.475-1.7z" fill="#549e27"/><g fill="#a6f03a"><path d="M139.655 232.038c1.382.658 2.762.1 3.256-.1 1.533-.62 2.517-1.906 2.405-2.048-.093-.12-.837.68-2.154 1.05-2.524.707-4.717-.85-4.96-.4-.154.28.613 1.098 1.453 1.5zm21.3 1.05c1.382.658 2.762.1 3.256-.1 1.534-.62 2.517-1.906 2.406-2.048-.094-.12-.84.68-2.155 1.05-2.524.708-4.717-.85-4.96-.4-.153.282.6 1.098 1.453 1.5zm18.635-.7c1.382.66 2.762.1 3.256-.1 1.533-.62 2.517-1.904 2.406-2.048-.094-.118-.84.68-2.155 1.05-2.524.707-4.717-.85-4.96-.4-.153.28.6 1.098 1.453 1.5zm21.713-.967c-1.508.12-2.635-.832-3.038-1.17-1.253-1.055-1.78-2.514-1.63-2.602.124-.073.58.877 1.704 1.64 2.158 1.46 4.7.822 4.8 1.297.058.3-.918.762-1.836.835zm9.247-5.934c-1.004.304-1.9-.174-2.235-.346-1.004-.53-1.58-1.44-1.5-1.522.073-.067.52.5 1.397.86 1.68.67 3.318-.138 3.448.172.083.193-.5.65-1.12.835z"/></g><path d="M164.426 214.804c0-2.185-14.095-3.954-31.48-3.954s-31.48 1.77-31.48 3.954v3.53c0 2.182 14.093 3.954 31.48 3.954s31.48-1.772 31.48-3.954v-3.53z" class="H"/><path d="M159.085 219.386c-2.23.99-5.568.41-5.727-.044-.247-.703 6.63-2.14 7.337-1.466.336.32-.722 1.116-1.6 1.5z" class="C"/><path d="M164.426 214.804c0 2.183-14.095 3.954-31.48 3.954s-31.48-1.77-31.48-3.954 14.093-3.954 31.48-3.954 31.48 1.77 31.48 3.954z" class="K"/><path d="M150.266 220.538c.224.438.967.57 1.454.195.31-.237.614-.753.458-1.273-.145-.478-.607-.72-.97-.687-.704.07-1.23 1.203-.94 1.765z" class="C"/><g class="L"><path d="M164.156 214.292a.64.64 0 0 1 .082.083c-.023-.03-.053-.056-.082-.083zm-.618-.42l.157.084-.157-.084zm.352.208l.12.084c-.037-.03-.08-.056-.12-.084zm-.783-.4l.184.08-.184-.08zm-.512-.197l.205.076-.205-.076zm-1.24-.376l.115.035-.115-.035zm.65.183l.207.067-.207-.067z"/></g><path d="M141.026 218.626l.425 3.51c13.254-.46 22.975-1.987 22.975-3.8v-3.53c0 1.832-9.93 3.375-23.4 3.822z" fill="#db372b"/><path d="M164.335 214.516c.014.025.033.046.043.07-.01-.025-.03-.046-.043-.07z" class="L"/><g class="K"><path d="M164 214.164c.055.042.1.086.145.128l-.145-.128zm-1.2-.614l.306.12-.306-.12zm-1.33-.42l.535.15-.535-.15zm.743.218l.38.124-.38-.124zm2.025 1.027a.92.92 0 0 1 .098.141.92.92 0 0 0-.098-.141zm.14.212a.54.54 0 0 1 .048.216.54.54 0 0 0-.048-.216zm-.683-.63l.196.123-.196-.123zm-.404-.206l.247.12-.247-.12z"/></g><path d="M164.378 214.587c-.01-.025-.03-.046-.043-.07a.69.69 0 0 0-.097-.142c-.023-.03-.054-.057-.083-.082a1.72 1.72 0 0 0-.145-.13l-.12-.084-.194-.123-.157-.084-.247-.12-.184-.08-.307-.123-.205-.076-.6-.193-.535-.15-.115-.032c-12.044 1.604-20.537 3.816-20.33 5.524v.003c13.472-.447 23.4-2 23.4-3.822a.56.56 0 0 0-.048-.216z" class="L"/><path d="M206 213.138c-.262-2.173-14.495-2.705-31.79-1.19s-31.102 4.5-30.84 6.675l.425 3.512c.265 2.172 14.498 2.706 31.792 1.192s31.102-4.503 30.84-6.675l-.426-3.513z" class="H"/><path d="M201.24 218.16c-2.1 1.18-5.5.895-5.704.453-.328-.675 6.338-2.705 7.122-2.095.374.288-.583 1.174-1.418 1.642z" class="C"/><path d="M206 213.138c.263 2.172-13.543 5.16-30.84 6.675s-31.527.98-31.79-1.19 13.545-5.16 30.84-6.675 31.53-.982 31.79 1.19z" class="K"/><path d="M192.605 220.075c.278.42 1.033.484 1.472.07.278-.264.52-.803.3-1.306-.2-.465-.692-.665-1.048-.6-.692.13-1.08 1.303-.725 1.836z" class="C"/><path d="M169.797 213.316s-20.123 1.784-21.357 3.83 12.592 2.153 20.245 1.89 3.21-1.365 1.05-2.624 5.802-3.62.06-3.095z" fill="#db372b"/><path d="M174.2 211.947c-4.303.375-8.39.843-12.098 1.37-4.68-1.447-15.972-2.466-29.166-2.466-17.386 0-31.48 1.77-31.48 3.954 0 1.223 4.423 2.315 11.367 3.042H191.2c9.035-1.486 14.984-3.276 14.812-4.708-.263-2.174-14.498-2.705-31.792-1.19z" class="I"/><path d="M199.583 215.23H107.67c-6.003 0-10.87-4.855-10.87-10.845s4.866-10.845 10.87-10.845h91.914c6.003 0 10.872 4.854 10.872 10.845s-4.87 10.845-10.872 10.845z" fill="#d64f2a"/><path d="M200.9 193.54h-96.34c-4.286 0-7.76 3.464-7.76 7.743v6.203c0 4.277 3.475 7.743 7.76 7.743h7.822c-.234-.935-.267-1.872.073-2.808 2.794-7.756 26.952-5.016 44.744-4.706 12.95.226 31.002-.684 53.176-5.822-.583-4.707-4.598-8.353-9.474-8.353z" fill="#a33c20"/></g><mask id="C" mask-type="alpha" maskUnits="userSpaceOnUse" x="96" y="194" width="114" height="22"><use xlink:href="#I" class="B G"/></mask><g mask="url(#C)" class="B I"><path d="M122.97 220.896l-6.674 4.05-21.026-31.735 6.672-4.05 21.028 31.733z"/></g><mask id="D" mask-type="alpha" maskUnits="userSpaceOnUse" x="96" y="194" width="114" height="22"><use xlink:href="#I" class="B G"/></mask><g mask="url(#D)" class="B I"><path d="M143.71 220.896l-6.672 4.05-21.028-31.735 6.672-4.05 21.028 31.733z"/></g><mask id="E" mask-type="alpha" maskUnits="userSpaceOnUse" x="96" y="194" width="114" height="22"><use xlink:href="#I" class="B G"/></mask><g mask="url(#E)" class="B I"><path d="M164.454 220.896l-6.674 4.05-21.026-31.735 6.672-4.05 21.028 31.733z"/></g><mask id="F" mask-type="alpha" maskUnits="userSpaceOnUse" x="96" y="194" width="114" height="22"><use xlink:href="#I" class="B G"/></mask><g mask="url(#F)" class="B I"><path d="M185.197 220.896l-6.674 4.05-21.028-31.735 6.674-4.05 21.028 31.733z"/></g><mask id="G" mask-type="alpha" maskUnits="userSpaceOnUse" x="96" y="194" width="114" height="22"><use xlink:href="#I" class="B G"/></mask><g mask="url(#G)" class="B I"><path d="M205.94 220.896l-6.672 4.05-21.027-31.735 6.672-4.05 21.027 31.733z"/></g><g class="B"><path d="M214.682 199.11c-1.36-30.802-28.01-55.375-60.694-55.375S94.654 168.31 93.294 199.11h121.388z" fill="#ffad4b"/><path d="M197.255 164.417c7.483 8.46 10.08 18.392 5.803 22.182s-13.815.007-21.296-8.45-10.083-18.393-5.803-22.184 13.813-.008 21.296 8.453z" fill="#ffc94b"/><path d="M168.64 190.212c-4.01-1.24-27.85-8.597-33.258-26.7-1.822-6.098-1.107-11.947.542-17.167-23.94 7.092-41.532 27.895-42.632 52.767H214.68a55.12 55.12 0 0 0-1.224-9.324c-12.125 3.402-27.95 5.63-44.816.424z" fill="#f07d46"/><path d="M153.52 169.458c1.444-.163 2.667.144 2.728.685s-1.06 1.116-2.506 1.28-2.667-.144-2.73-.687 1.06-1.114 2.508-1.28zm24.85-14.463c1.174.86 1.866 1.914 1.544 2.355s-1.536.1-2.7-.76-1.866-1.912-1.544-2.355 1.537-.1 2.7.76zm.84 29.01c.828 1.2 1.134 2.422.686 2.733s-1.483-.4-2.3-1.607-1.136-2.42-.687-2.73 1.484.408 2.312 1.605zm27.188 1.004c.828 1.198 1.137 2.422.686 2.732s-1.483-.408-2.3-1.607-1.134-2.42-.688-2.73 1.485.408 2.312 1.605z" class="C"/><path d="M122.192 179.76c-1.11.94-2.297 1.366-2.65.948s.263-1.517 1.372-2.457 2.297-1.367 2.65-.95-.26 1.517-1.37 2.458z" class="J"/><path d="M191.32 172.934c-1.1.94-2.297 1.366-2.65.947s.263-1.516 1.372-2.456 2.297-1.367 2.65-.95-.26 1.517-1.372 2.458zm4.282 15.492c-1.1.94-2.297 1.365-2.648.95s.26-1.52 1.372-2.458 2.295-1.368 2.647-.95-.26 1.517-1.37 2.46z" class="C"/><path d="M126.276 163.074c.828 1.2 1.136 2.42.686 2.73s-1.483-.4-2.3-1.605-1.134-2.422-.687-2.73 1.484.4 2.312 1.605zm12.512 10.63c.828 1.198 1.136 2.422.686 2.73s-1.483-.407-2.3-1.605-1.134-2.42-.686-2.73 1.483.408 2.3 1.605z" class="J"/><path d="M155.895 154.748c1.174.86 1.866 1.914 1.544 2.355s-1.536.1-2.7-.76-1.868-1.912-1.546-2.355 1.536-.1 2.7.76zm-16.787-2.736c1.175.86 1.866 1.914 1.544 2.355s-1.536.102-2.7-.758-1.866-1.913-1.545-2.356 1.537-.1 2.7.76zm34.937 18.894c-1.42.32-2.667.15-2.787-.384s.933-1.225 2.35-1.545 2.67-.152 2.8.38-.933 1.226-2.353 1.548z" class="C"/><path d="M138.483 192.495c-1.42.322-2.667.15-2.788-.382s.933-1.225 2.35-1.547 2.668-.15 2.8.38-.933 1.226-2.352 1.548zM107.86 176.92c-1.42.32-2.667.15-2.788-.383s.933-1.226 2.35-1.546 2.67-.15 2.8.382-.932 1.225-2.352 1.547z" class="J"/><path d="M162.274 181.948c-1.42.32-2.667.15-2.788-.382s.933-1.227 2.35-1.547 2.67-.152 2.787.38-.93 1.226-2.35 1.548z" class="C"/><path d="M155.906 194.12c-1.42.322-2.667.15-2.787-.382s.933-1.225 2.35-1.548 2.667-.15 2.788.382-.93 1.226-2.35 1.548zm-43.85-1.46c-1.42.322-2.667.15-2.787-.382s.933-1.225 2.35-1.547 2.67-.15 2.8.38-.933 1.226-2.353 1.548z" class="J"/><path d="M107.58 214.936h38.856l-20.416 10.548-18.44-10.548zm58.52 0h38.856l-20.417 10.548-18.44-10.548z" class="D"/><path d="M146.435 214.936H107.58l4.755 2.72h28.838l5.263-2.72zm24.43 2.72h28.838l5.263-2.72H166.1l4.753 2.72z" class="E"/><path d="M127.254 220.2c2.318-2.07 5.962-1.674 6.175-.926.324 1.143-6.962 4.8-7.78 3.768-.4-.485.682-2.017 1.605-2.842zm58.654.37c2.318-2.07 5.963-1.674 6.174-.926.324 1.143-6.96 4.788-7.78 3.768-.4-.485.684-2.017 1.606-2.842zm-4.198.865c.244.416 1.048.54 1.575.186.333-.226.663-.713.494-1.206-.155-.454-.657-.683-1.05-.648-.763.065-1.332 1.137-1.02 1.668z" class="C"/><path d="M183.63 118.196l-4.834 15.456 19.722-2.692-14.888-12.764z" class="H"/><path d="M171.782 155.523l-.52-.17 12.348-37.823.52.17-12.348 37.824z" class="C"/><path d="M114.418 10.337c12.677 13.72-13.97 46.324-23.612 50.992S45.52 83.113 34.827 75.266s65.087-80.628 79.59-64.93z" fill="#fef6f4"/></g><defs ><path id="I" d="M106.896 194.41c-6 0-10.867 4.656-10.867 10.398s4.866 10.397 10.867 10.397h91.86c6 0 10.865-4.653 10.865-10.397s-4.864-10.398-10.865-10.398h-91.86z"/></defs></svg>