<svg xmlns="http://www.w3.org/2000/svg" xmlns:xlink="http://www.w3.org/1999/xlink" width="314" height="246" fill="none" xmlns:v="https://vecta.io/nano"><style><![CDATA[.B{fill-rule:evenodd}.C{fill:#fff}.D{fill:#d83b29}.E{fill:#85321a}.F{fill:#ffbc82}.G{fill:#222b45}.H{fill:#ff4a32}.I{fill:#fff6f8}.J{fill:#29201d}.K{fill:#76bf2f}.L{fill:#ffad4b}]]></style><path d="M101.237 68.486c25.832-10.2 57.998.718 57.36-34.08s-91.396-54.85-98.204 0S79.5 77.06 101.237 68.486z" fill="#fef6f4" class="B"/><mask id="A" mask-type="alpha" maskUnits="userSpaceOnUse" x="23" y="21" width="290" height="220"><path d="M23.156 21H312.41v219.91H23.156V21z" class="B C"/></mask><g mask="url(#A)" class="B"><path d="M293.197 176.84c-31.51 46.87-128.46 80.4-208.927 55.776S13.127 135.714 53.19 99.364s90.198-23.017 98.8-35.246 37.8-61.967 94.724-35.418 88.263 85.985 46.474 148.14z" fill="#fef6f4"/></g><path d="M214.632 41.24l23.482-.653s-4.474-6.67.273-10.696c3.524-2.995 5.96-2.586 7.606-.87-.177-2.9.652-5.84 3.754-7.825 3.157-2.015 6.26-.4 8.897 2.37-1.128-4-.733-8.153 3.552-11.1C273.272 4.868 284.238 36.1 284.238 36.1l17.293 4.6-86.9.545zM28.318 48.852l14.138-.392s-2.695-4.015.163-6.44c2.122-1.803 3.588-1.557 4.58-.524-.108-1.746.392-3.515 2.258-4.7 1.9-1.214 3.77-.246 5.358 1.425-.68-2.4-.443-4.906 2.136-6.677 6.667-4.58 13.27 14.22 13.27 14.22l10.4 2.77-52.312.327zm80.63 196l-29.44-.82s5.612-8.36-.34-13.4c-4.417-3.753-7.47-3.24-9.535-1.092.224-3.633-.82-7.32-4.708-9.8-3.956-2.525-7.846-.5-11.156 2.97 1.417-5 .92-10.223-4.452-13.907C35.43 199.256 21.68 238.41 21.68 238.41L0 244.16l108.947.683z" fill="#f4d4ce" class="B"/><mask id="B" mask-type="alpha" maskUnits="userSpaceOnUse" x="86" y="192" width="54" height="54"><path d="M86.27 192.446h53.71v52.724H86.27v-52.724z" class="B C"/></mask><g mask="url(#B)" class="B G"><path d="M139.48 218.81c-2.83 14.56-16.923 26.36-31.48 26.36s-24.063-11.802-21.233-26.36 16.924-26.363 31.48-26.363 24.06 11.804 21.232 26.363z"/></g><g class="B"><path d="M130.213 218.81c-1.836 9.44-10.973 17.1-20.41 17.1s-15.6-7.65-13.765-17.1 10.97-17.092 20.4-17.092 15.6 7.653 13.766 17.092z" fill="#435070"/><path d="M121.523 218.81c-.9 4.64-5.393 8.4-10.03 8.4s-7.67-3.76-6.767-8.4 5.392-8.4 10.03-8.4 7.67 3.762 6.767 8.4z" class="C"/><path d="M244.538 195.633s-.758-37.994-11.755-45.69c-5.043-3.53-8.65-10.192-11.076-16.375l-8.665-24.826h-7.692l7.724 49.622c.888 4.41.242 9-1.83 12.983l-14.845 28.6c-2.078 4.003.774 6.278-3.694 5.674-10.37-1.4-21.144-4.095-31.596-8.74V168.7c0-9.03 7.32-16.352 16.35-16.352v-14.91h-42.557c-35.188 0-63.713 28.53-63.713 63.725v16.594h158.683l14.666-22.124z" fill="#ff7166"/><path d="M166.947 210.61l-18.52-13.286c-1.045-.75-1.315-2.165-.604-3.157s2.137-1.2 3.18-.44l18.522 13.286c1.045.752 1.316 2.165.602 3.157s-2.134 1.2-3.18.44z" class="G"/><path d="M110.755 160.366c.2-8.74 4.234-15.576 8.312-20.943-27.527 7.043-47.877 32.013-47.877 61.74v16.596h94.52c-20.98-14.988-55.56-31.14-54.954-57.392z" class="D"/><path d="M229.873 217.757l14.666-22.124s-.76-37.995-11.756-45.7c-5.043-3.53-8.65-10.194-11.076-16.376l-8.665-24.826h-4.925c.374 11.442 2.756 23.474 7.303 30.616 2.008 3.157 5.568 8.25 8.34 16.287.395 1.147 3.53 10.466 3.574 21.85.06 14.772-5.1 28.434-9.678 40.263h12.217z" class="H"/></g><mask id="C" mask-type="alpha" maskUnits="userSpaceOnUse" x="195" y="192" width="54" height="54"><path d="M195.29 192.446H249v52.724h-53.7v-52.724z" class="B C"/></mask><g mask="url(#C)" class="B G"><path d="M248.5 218.81c-2.83 14.56-16.924 26.36-31.48 26.36s-24.06-11.802-21.234-26.36 16.925-26.363 31.48-26.363S251.33 204.25 248.5 218.81z"/></g><g class="B"><path d="M239.232 218.81c-1.833 9.44-10.972 17.1-20.4 17.1s-15.6-7.65-13.766-17.1 10.97-17.092 20.41-17.092 15.6 7.653 13.765 17.092z" fill="#435070"/><path d="M230.544 218.81c-.903 4.64-5.393 8.4-10.034 8.4s-7.667-3.76-6.765-8.4 5.393-8.4 10.032-8.4 7.667 3.762 6.767 8.4z" class="C"/><path d="M254.415 201.856c-7.858-16.902-28.427-24.487-46.7-16.946s-27.527 27.422-21.2 44.95l67.9-28.005zm-103.45 15.9h-64.26c-1.575 0-2.852-1.28-2.852-2.853 0-16.354 13.253-29.613 29.605-29.613h10.755c16.35 0 29.604 13.26 29.604 29.613 0 1.574-1.276 2.853-2.852 2.853z" class="H"/><path d="M132.98 150.068h44.443v-10.1H132.98v10.1zm80.516-37.73h-11.12c-.628 0-1.136-.82-1.136-1.83s.508-1.832 1.136-1.832h11.12c.628 0 1.136.822 1.136 1.832s-.508 1.83-1.136 1.83z" class="G"/><path d="M240.852 121.467c0 7.44-2.97 13.47-6.633 13.47s-21.103-6.03-21.103-13.47 17.44-13.47 21.103-13.47 6.633 6.032 6.633 13.47z" class="H"/><path d="M240.6 125.152c-2.04.943-4.848 2.358-8.763 2.354-5.47-.008-9.617-2.783-12.58-4.767-2.03-1.358-3.732-2.855-5.163-4.347-.616.986-.98 2.017-.98 3.076 0 7.44 17.442 13.467 21.105 13.467 3.033 0 5.588-4.137 6.38-9.783z" class="D"/><path d="M240.852 121.467c0 7.44-2.116 13.47-4.724 13.47s-4.726-6.03-4.726-13.47 2.116-13.47 4.726-13.47 4.724 6.032 4.724 13.47z" class="I"/><path d="M228.47 115.955c0 1.17-2.063 2.12-4.608 2.12s-4.608-.95-4.608-2.12 2.063-2.12 4.608-2.12 4.608.95 4.608 2.12zm-5.65 3.928c0 .67-1.185 1.218-2.645 1.218s-2.644-.547-2.644-1.218 1.183-1.218 2.644-1.218 2.645.547 2.645 1.218z" fill="#ff6c32"/><path d="M225.887 112.128l-3.5-16.094.145-.03 3.498 16.092-.144.033z" class="J"/><path d="M223.48 96.34c0 4.058-1.285 7.346-2.873 7.346s-2.87-3.288-2.87-7.346 1.287-7.346 2.87-7.346 2.873 3.3 2.873 7.346z" class="I"/><path d="M233 188.176c1.145 3.35-3.833 8.088-11.12 10.578s-14.123 1.795-15.27-1.557 3.833-8.086 11.12-10.578 14.125-1.794 15.27 1.557zm-89.265 7.028c1.3 3.3-3.425 8.27-10.58 11.12s-14.016 2.497-15.327-.793 3.425-8.268 10.58-11.12 14.016-2.496 15.327.793zm69.378 8.998c.423 1.23-1.4 2.975-4.1 3.9s-5.196.66-5.616-.572 1.408-2.974 4.1-3.9 5.196-.66 5.617.573z" fill="#ff6c32"/></g><mask id="D" mask-type="alpha" maskUnits="userSpaceOnUse" x="0" y="0" width="313" height="246"><path d="M0 245.17h312.41V.378H0V245.17z" class="B C"/></mask><g mask="url(#D)" class="B"><path d="M132.98 146.095h46.882v-10.1H132.98v10.1z" class="H"/><path d="M235.877 123.08c-2.394-3.15-2.406-7.038-1.992-10.198-.967 1.964-1.6 5.187-1.6 8.83 0 5.983 1.7 10.83 3.8 10.83 1.537 0 2.86-2.602 3.457-6.347-1.116-.712-2.475-1.547-3.667-3.115z" fill="#dfecf5"/><path d="M160.876 143.146l8.32 2.948h10.667v-10.1H143.76c3.086 2.073 9.007 4.218 17.116 7.152z" class="D"/><g class="K"><path d="M149.373 100.503s28.79 20.37 44.132 32.428c13.813 10.856-5.44 8.8-44.536 2.612-7.775-1.23-8.87-18.55-5.01-25.414l5.415-9.626z"/><path d="M185.033 138.137s-9.27 1.403-13.824 15.78-12.294 32.737-12.294 32.737l4.787 3.448s18.44-23.125 25.795-35.5c0 0 5.933-3.426 8.01-10.692 1.874-6.553-.744-8.283-5.757-11.835l-6.718 6.05z"/></g><path d="M156.863 189.48l2.868-4.73 5.27 3.68-2.008 2.753-2.89 3.454-3.24-5.156z" class="F"/><path d="M157.31 188.853s-4.342 2.79-5.42 5.64c0 0 6.798 5.196 11.642 9.75s9.84 3.59 7.106-.303-7.645-12.757-7.645-12.757-2.964 3.328-5.683-2.33z" class="K"/><g class="J"><path d="M163.048 195.08l-.1-.1c1.258-1.138 2.366-.498 2.376-.5l-.075.127c-.043-.025-1.027-.6-2.202.473zm1.3 1.7l-.1-.1c1.258-1.137 2.364-.498 2.376-.492l-.075.128c-.043-.024-1.028-.588-2.2.474zm-2.412-3.33l-.1-.1c1.258-1.138 2.366-.498 2.376-.492l-.075.128c-.042-.026-1.026-.6-2.2.474z"/></g><path d="M148.173 104.903c-1.315 1.653 2.407 8.994 9.156 10.964 4.175 1.218 9.663.43 10.06-1.42.08-.37-.057-.803-.346-1.27l-7.85-5.664c-4.726-2.364-9.936-3.97-11.02-2.608z" fill="#9fbfd4"/><path d="M170.26 203.388c-1.33.362-2.537 1.574-3.388 2.056-1.55.868-10.833-9.77-10.833-9.77-.26-1.875-.967-3.493-1.567-4.59-1.06.984-2.12 2.192-2.58 3.41 0 0 6.797 5.197 11.64 9.75s9.842 3.59 7.108-.305l-.378-.55z" class="I"/><path d="M181.818 78.685s2.64-3.27 1.19-4.985c-.85-1.006-1.197-2.67-.717-3.89 1.177-2.995 2.522-6 4.586-7.655l1.583-11.39s-6.67 5.642-12.723 12.56c-1.916 2.188-4.44 1.624-5.585 1.6-2.476-.055-4.568 14.278 7.93 14.313.053.002.106.002.16-.002 2.52-.02.4 1.136 3.577-.55z" class="F"/><path d="M182.058 70.835l.043-.18c.03-.295.087-.584.19-.848l1.44-3.338-2.236-5.406s-2.68 6.207.56 9.77z" fill="#de9066"/><g class="D"><path d="M181.748 82.755s-.63 8.5-6.037 17.24c-2.684 4.35-4.188 6.892-6.75 14.09 0 0-1.342 1.687-4.248 1.77-5.834.144-11.993-4.23-16.18-8.07-.772-.734-1.463-1.425-2.093-2.076-.793-.83-1.444-1.563-1.952-2.173-.325-.407-.59-.752-.772-.998-.244-.325-.346-.508-.305-.55 4.797-4.005 7.602-15.533 7.602-15.533 2.582-6.9 2.46-10.712 11.71-18.662a5.91 5.91 0 0 1 .833-.59c.305-.185.67-.41 1.077-.612.305-.183.67-.364 1.037-.527.346-.165.712-.327 1.098-.468.975-.386 2.032-.693 3.028-.775.183-.02.346-.04.51-.04h.1c.55 0 1.078.06 1.565.2 0 0 3.842 3.133 9.188 6.22 1.77 1.525 1.91 2.584 1.91 2.584 2.073 2.824-1.32 8.964-1.32 8.964z"/><path d="M143.716 102.538l.772.996-.772-.996z"/></g><path d="M174.22 102.45l-.9-4.125c-2.53-9.714-8.476-18.63-10.316-17.93-1.628.624.08 8.75.902 11.997 1.655 6.52 4.7 12.885 7.14 16.297a50.76 50.76 0 0 1 3.175-6.24z" fill="#b5261c"/><path d="M149.543 109.13c-4.035 0-7.706-1.395-10.332-4.032l.416-.417c3.525 3.544 9.034 4.74 14.73 3.206 7.17-1.933 16.106-8.864 19.69-22.518 1.858-7.075 1.33-12.82-1.57-17.068-4.06-5.947-11.48-6.872-11.552-6.882l.067-.584c.075.008 7.75.96 11.967 7.13 3.004 4.396 3.56 10.302 1.656 17.554-3.648 13.896-12.78 20.957-20.107 22.934-1.685.455-3.356.677-4.968.677z" fill="#ede92f"/><path d="M195.094 55.446s-.032 15.045-6.68 14.03c-8.222-1.254-10.302-13.244-10.22-19.774.043-3.115 2.99-3.956 6.017-4.692 4.708-1.145 11.018 1.88 10.88 10.436z" class="F"/><path d="M193.945 47.143c-1.68-3.074-6.208-5.213-11.01-4.835s-7.89 3.8-8.285 8.26c-.643 7.264 5.016 8.665 5.016 8.665s5.188.573 8.12-8.317c6.877 1.972 7.836-.7 6.157-3.773z" class="E"/><g class="F"><path d="M194.824 56.043s.537 3.407 1.03 4.646c.494 1.23.014 2.15-2.208 2.047m-15.814-2.1c.915 1.4 2.523 1.968 3.594 1.27s1.195-2.4.28-3.802-2.522-1.966-3.6-1.267-1.198 2.4-.283 3.8zm-14.147 9.017c-1.55.92-1.73 5.225-.805 7.154 2.524 5.268 6.984 27.593 10.352 30.215 3.824 2.98 17.17 2.458 23.608 2.448l1.48-3.724s-16.08-4.6-19.977-4.22c0 0-5.387-37.376-14.658-31.875z"/></g><g class="D"><path d="M172.36 73.598c2.16 6.225 5.9 19 5.9 19s-6.974 2.73-11.324 1.187l-6.98-17.42c-1.275-3.184-.214-6.827 2.573-8.828 3.415-2.452 8.454 2.096 9.832 6.07zm4.3-11.596l4.96 9.314-4.326 3.245-5.753-9.675 5.12-2.883z"/><path d="M182.828 70.27l-1.372 1.027.324 3.983 1.697-.823-.65-4.186z"/></g><g class="J"><path d="M182.293 69.808l.536.46-.774.577s-.067-.16.238-1.04zm-.76 5.907l-.33-3.792-3.876 2.842-.043-.067-5.942-9.67.126-.077 5.9 9.604 3.96-2.903.333 3.824 1.765-.996.07.126-1.962 1.1z"/></g><path d="M202.888 105.34s8.063 1.434 8.128 2.13.224 7.366.224 7.366-1.964.3-3.567-5.528c0 0-7.643 2.244-12.764.146l2.26-3.885 5.718-.23z" class="F"/><path d="M196.274 46.81c.375-4.324-8.746-7.44-14.102-6.92s-8.85 4.603-9.357 9.9c-.825 8.6 5.462 10.184 5.462 10.184s2.502-.693 5.903-11.26c7.633 2.232 11.745 2.127 12.094-1.907z" class="K"/><path d="M177.898 44.767c.172-2.12 1.78-3.643 3.187-4.713-4.738.933-7.798 4.806-8.27 9.736-.825 8.6 5.46 10.184 5.46 10.184s1.83-.5 4.484-7.256c-1.443-2.686-5.143-4.532-4.862-7.95z" fill="#578723"/><g fill="#f7ebd5"><path d="M180.828 53.488a.58.58 0 0 1-.742.337l-4.326-1.633c-.297-.112-.447-.443-.335-.742s.445-.45.744-.336l4.323 1.63a.58.58 0 0 1 .336.742zm.697-1.85c-.1.3-.445.45-.744.337l-4.323-1.63a.58.58 0 0 1-.336-.744.58.58 0 0 1 .742-.335l4.324 1.63c.3.112.45.445.337.742zm.697-1.85a.58.58 0 0 1-.742.338l-4.325-1.633c-.297-.112-.448-.443-.336-.742s.445-.45.744-.335l4.324 1.63a.58.58 0 0 1 .335.742z"/></g><path d="M176.564 149.523c-3.232 6.14-2.968 8.436-4.98 12.603-1.627 3.375-3.883 6.18-6.28 8.478 2.032-5.324 4.187-11.283 5.915-16.69 2.52-7.97 6.484-11.932 9.513-13.907-8.1-.833-18.843-2.417-31.77-4.472-7.765-1.218-8.863-18.54-5-25.414l2.48-4.412c.63.653 1.32 1.342 2.094 2.076-2.155 7.278-2.54 13.784.508 18.013 1.3 1.828 3.313 2.784 7.318 4.697 14.37 6.85 26.222 2.094 27.827 6.138.935 2.38-3.008 4.17-7.622 12.89z" fill="#578723"/><path d="M150.892 113.065l-42.58-12.75 15.485-51.738 42.58 12.75-15.485 51.738z" class="L"/><path d="M151.96 86.404a14.86 14.86 0 0 1-18.705 9.568 14.86 14.86 0 0 1-9.566-18.708c2.523-7.81 10.897-12.09 18.705-9.568a14.86 14.86 0 0 1 9.566 18.709z" class="I"/><path d="M142.134 88.805l-12.942-4.186c-1.192-.384-1.846-1.66-1.46-2.855l17.256 5.58c-.384 1.19-1.663 1.844-2.854 1.46z" class="L"/><path d="M143.4 86.86l-13.997-4.526a1.74 1.74 0 0 1-1.12-2.192c.295-.915 1.276-1.415 2.19-1.118l13.995 4.524a1.74 1.74 0 1 1-1.069 3.312z" class="D"/></g><mask id="E" mask-type="alpha" maskUnits="userSpaceOnUse" x="129" y="78" width="18" height="10"><use xlink:href="#K" class="B C"/></mask><g mask="url(#E)" class="B E"><path d="M132.443 83.985l-1.206.338-1.544-6.535 1.206-.338 1.544 6.535z"/></g><mask id="F" mask-type="alpha" maskUnits="userSpaceOnUse" x="129" y="78" width="18" height="10"><use xlink:href="#K" class="B C"/></mask><g mask="url(#F)" class="B E"><path d="M135.553 85.08l-1.206.338-1.544-6.532 1.204-.34 1.546 6.535z"/></g><mask id="G" mask-type="alpha" maskUnits="userSpaceOnUse" x="129" y="78" width="18" height="10"><use xlink:href="#K" class="B C"/></mask><g mask="url(#G)" class="B E"><path d="M138.662 86.178l-1.206.338-1.544-6.535 1.204-.338 1.546 6.535z"/></g><mask id="H" mask-type="alpha" maskUnits="userSpaceOnUse" x="129" y="78" width="18" height="10"><use xlink:href="#K" class="B C"/></mask><g mask="url(#H)" class="B E"><path d="M141.772 87.275l-1.206.338-1.544-6.535 1.206-.338 1.544 6.535z"/></g><mask id="I" mask-type="alpha" maskUnits="userSpaceOnUse" x="129" y="78" width="18" height="10"><use xlink:href="#K" class="B C"/></mask><g mask="url(#I)" class="B E"><path d="M144.88 88.37l-1.206.338-1.544-6.532 1.206-.34 1.544 6.535z"/></g><g class="B"><path d="M146.742 84.918c1.3-4.728-1.544-9.753-6.526-11.353s-10.257.815-11.982 5.41l18.508 5.945z" class="L"/><path d="M144.87 81.205c-.626.562-2.014.046-3.102-1.148s-1.46-2.622-.834-3.184 2.014-.046 3.102 1.15 1.46 2.622.834 3.18z" fill="#ffc94b"/><path d="M207.093 214.266c-7.634-5.335-9.494-14.824-10.293-23.098-10.495 9.53-14.796 24.244-9.938 37.592l27.665-11.337c-2.586-.544-5.102-1.528-7.434-3.157z" class="D"/></g><defs ><path id="K" d="M129.22 79.81c-.292.982.202 2.033 1.102 2.352l13.772 4.857c.9.32 1.864-.223 2.154-1.204s-.204-2.03-1.102-2.35l-13.772-4.857a1.59 1.59 0 0 0-.526-.089c-.724 0-1.394.5-1.628 1.292z"/></defs></svg>