<svg width="9" height="10" viewBox="0 0 9 10" fill="none" xmlns="http://www.w3.org/2000/svg">
<path d="M2.1875 2.1875C2.1875 0.979297 3.16602 0 4.375 0C5.58398 0 6.5625 0.979297 6.5625 2.1875V3.125H7.41C7.92758 3.125 8.35 3.54492 8.35 4.0625L8.75 8.125C8.75 9.16016 7.91016 10 6.875 10H1.875C0.839453 10 0 9.16016 0 8.125L0.4 4.0625C0.4 3.54492 0.822227 3.125 1.34 3.125H2.1875V2.1875ZM3.125 3.125H5.625V2.1875C5.625 1.49707 5.06445 0.9375 4.375 0.9375C3.68555 0.9375 3.125 1.49707 3.125 2.1875V3.125ZM2.65625 5C2.91602 5 3.125 4.79102 3.125 4.53125C3.125 4.27148 2.91602 4.0625 2.65625 4.0625C2.39648 4.0625 2.1875 4.27148 2.1875 4.53125C2.1875 4.79102 2.39648 5 2.65625 5ZM6.09375 4.0625C5.83398 4.0625 5.625 4.27148 5.625 4.53125C5.625 4.79102 5.83398 5 6.09375 5C6.35352 5 6.5625 4.79102 6.5625 4.53125C6.5625 4.27148 6.35352 4.0625 6.09375 4.0625Z" fill="white"/>
</svg>
