<svg width="23" height="23" viewBox="0 0 23 23" fill="none" xmlns="http://www.w3.org/2000/svg">
<path fill-rule="evenodd" clip-rule="evenodd" d="M13.4644 13.1349C13.4371 13.2079 13.394 13.2765 13.3352 13.3352C13.2765 13.394 13.2079 13.4371 13.1349 13.4644L7.5214 15.7098C7.06222 15.8934 6.60655 15.4378 6.79023 14.9786L9.03561 9.36513C9.06293 9.29205 9.10598 9.22352 9.16475 9.16475C9.22352 9.10598 9.29205 9.06293 9.36513 9.03561L14.9786 6.79023C15.4378 6.60655 15.8934 7.06222 15.7098 7.5214L13.4644 13.1349ZM10.5634 9.76794L12.732 11.9365L14.1778 8.3222L10.5634 9.76794ZM11.9366 12.7321L9.76795 10.5635L8.32222 14.1778L11.9366 12.7321ZM11.25 22.5C5.0368 22.5 0 17.4632 0 11.25C0 5.0368 5.0368 0 11.25 0C17.4632 0 22.5 5.0368 22.5 11.25C22.5 17.4632 17.4632 22.5 11.25 22.5ZM11.25 21.375C16.8419 21.375 21.375 16.8419 21.375 11.25C21.375 5.65812 16.8419 1.12501 11.25 1.12501C5.65812 1.12501 1.12501 5.65812 1.12501 11.25C1.12501 16.8419 5.65812 21.375 11.25 21.375Z" fill="#C5CEE0"/>
</svg>
