<svg width="19" height="24" viewBox="0 0 19 24" fill="none" xmlns="http://www.w3.org/2000/svg">
<path d="M4.9375 8.9375C4.66136 8.9375 4.4375 9.16136 4.4375 9.4375C4.4375 9.71364 4.66136 9.9375 4.9375 9.9375H13.9375C14.2136 9.9375 14.4375 9.71364 14.4375 9.4375C14.4375 9.16136 14.2136 8.9375 13.9375 8.9375H4.9375Z" fill="#C5CEE0"/>
<path d="M4.9375 13.4375C4.66136 13.4375 4.4375 13.6614 4.4375 13.9375C4.4375 14.2136 4.66136 14.4375 4.9375 14.4375H11.6875C11.9636 14.4375 12.1875 14.2136 12.1875 13.9375C12.1875 13.6614 11.9636 13.4375 11.6875 13.4375H4.9375Z" fill="#C5CEE0"/>
<path d="M4.9375 17.9375C4.66136 17.9375 4.4375 18.1614 4.4375 18.4375C4.4375 18.7136 4.66136 18.9375 4.9375 18.9375H9.4375C9.71364 18.9375 9.9375 18.7136 9.9375 18.4375C9.9375 18.1614 9.71364 17.9375 9.4375 17.9375H4.9375Z" fill="#C5CEE0"/>
<path fill-rule="evenodd" clip-rule="evenodd" d="M6.5625 1C6.5625 0.723858 6.33864 0.5 6.0625 0.5C5.78636 0.5 5.5625 0.723858 5.5625 1V2.75H2.125C1.22754 2.75 0.5 3.47754 0.5 4.375V22.375C0.5 23.2725 1.22754 24 2.125 24H16.75C17.6475 24 18.375 23.2725 18.375 22.375V4.375C18.375 3.47754 17.6475 2.75 16.75 2.75H13.3125V1C13.3125 0.723858 13.0886 0.5 12.8125 0.5C12.5364 0.5 12.3125 0.723858 12.3125 1V2.75H6.5625V1ZM1.5 4.375C1.5 4.02982 1.77982 3.75 2.125 3.75H5.5625V4.375C5.5625 4.65114 5.78636 4.875 6.0625 4.875C6.33864 4.875 6.5625 4.65114 6.5625 4.375V3.75H12.3125V4.375C12.3125 4.65114 12.5364 4.875 12.8125 4.875C13.0886 4.875 13.3125 4.65114 13.3125 4.375V3.75H16.75C17.0952 3.75 17.375 4.02982 17.375 4.375V22.375C17.375 22.7202 17.0952 23 16.75 23H2.125C1.77982 23 1.5 22.7202 1.5 22.375V4.375Z" fill="#C5CEE0"/>
</svg>
