<svg width="21" height="21" viewBox="0 0 21 21" fill="none" xmlns="http://www.w3.org/2000/svg">
<path fill-rule="evenodd" clip-rule="evenodd" d="M14.0829 11.4259L18.4037 13.3899C19.5193 13.897 20.2356 15.0093 20.2356 16.2348V17.125C20.2356 18.8509 18.8365 20.25 17.1106 20.25H3.3606C1.63471 20.25 0.235596 18.8509 0.235596 17.125V16.2348C0.235596 15.0093 0.951854 13.897 2.06746 13.3899L6.38829 11.4259C4.92571 10.2819 3.9856 8.50075 3.9856 6.5C3.9856 3.04822 6.78382 0.25 10.2356 0.25C13.6874 0.25 16.4856 3.04822 16.4856 6.5C16.4856 8.50075 15.5455 10.2819 14.0829 11.4259ZM7.68718 12.2086L2.58472 14.5279C1.91535 14.8321 1.4856 15.4995 1.4856 16.2348V17.125C1.4856 18.1605 2.32506 19 3.3606 19H17.1106C18.1461 19 18.9856 18.1605 18.9856 17.125V16.2348C18.9856 15.4995 18.5558 14.8321 17.8865 14.5279L12.784 12.2086C12.0057 12.5565 11.1433 12.75 10.2356 12.75C9.32793 12.75 8.46546 12.5565 7.68718 12.2086ZM10.2356 11.5C12.997 11.5 15.2356 9.26142 15.2356 6.5C15.2356 3.73858 12.997 1.5 10.2356 1.5C7.47417 1.5 5.2356 3.73858 5.2356 6.5C5.2356 9.26142 7.47417 11.5 10.2356 11.5Z" fill="#C5CEE0"/>
</svg>
