<svg width="20" height="20" viewBox="0 0 20 20" fill="none" xmlns="http://www.w3.org/2000/svg">
<path d="M14.7548 0.9375C14.7548 0.68886 14.8536 0.450403 15.0294 0.274587C15.2052 0.0987719 15.4437 0 15.6923 0H18.8173C19.066 0 19.3044 0.0987719 19.4802 0.274587C19.6561 0.450403 19.7548 0.68886 19.7548 0.9375V4.0625C19.7548 4.31114 19.6561 4.5496 19.4802 4.72541C19.3044 4.90123 19.066 5 18.8173 5C18.5687 5 18.3302 4.90123 18.1544 4.72541C17.9786 4.5496 17.8798 4.31114 17.8798 4.0625V3.2L12.2923 8.7875C12.1165 8.96306 11.8783 9.06168 11.6298 9.06168C11.3814 9.06168 11.1431 8.96306 10.9673 8.7875L7.87983 5.7L2.60483 10.975C2.519 11.0671 2.4155 11.141 2.3005 11.1922C2.1855 11.2435 2.06136 11.271 1.93548 11.2732C1.80961 11.2755 1.68457 11.2523 1.56783 11.2052C1.4511 11.158 1.34506 11.0878 1.25603 10.9988C1.16701 10.9098 1.09683 10.8037 1.04968 10.687C1.00253 10.5703 0.97937 10.4452 0.981591 10.3193C0.983812 10.1935 1.01136 10.0693 1.0626 9.95433C1.11384 9.83933 1.18772 9.73583 1.27983 9.65L7.21733 3.7125C7.39311 3.53694 7.63139 3.43832 7.87983 3.43832C8.12827 3.43832 8.36655 3.53694 8.54233 3.7125L11.6298 6.8L16.5548 1.875H15.6923C15.4437 1.875 15.2052 1.77623 15.0294 1.60041C14.8536 1.4246 14.7548 1.18614 14.7548 0.9375ZM1.94233 15C2.19097 15 2.42943 15.0988 2.60524 15.2746C2.78106 15.4504 2.87983 15.6889 2.87983 15.9375V19.0625C2.87983 19.3111 2.78106 19.5496 2.60524 19.7254C2.42943 19.9012 2.19097 20 1.94233 20C1.69369 20 1.45523 19.9012 1.27942 19.7254C1.1036 19.5496 1.00483 19.3111 1.00483 19.0625V15.9375C1.00483 15.6889 1.1036 15.4504 1.27942 15.2746C1.45523 15.0988 1.69369 15 1.94233 15ZM7.87983 12.1875C7.87983 11.9389 7.78106 11.7004 7.60524 11.5246C7.42943 11.3488 7.19097 11.25 6.94233 11.25C6.69369 11.25 6.45523 11.3488 6.27942 11.5246C6.1036 11.7004 6.00483 11.9389 6.00483 12.1875V19.0625C6.00483 19.3111 6.1036 19.5496 6.27942 19.7254C6.45523 19.9012 6.69369 20 6.94233 20C7.19097 20 7.42943 19.9012 7.60524 19.7254C7.78106 19.5496 7.87983 19.3111 7.87983 19.0625V12.1875ZM11.9423 13.75C12.191 13.75 12.4294 13.8488 12.6052 14.0246C12.7811 14.2004 12.8798 14.4389 12.8798 14.6875V19.0625C12.8798 19.3111 12.7811 19.5496 12.6052 19.7254C12.4294 19.9012 12.191 20 11.9423 20C11.6937 20 11.4552 19.9012 11.2794 19.7254C11.1036 19.5496 11.0048 19.3111 11.0048 19.0625V14.6875C11.0048 14.4389 11.1036 14.2004 11.2794 14.0246C11.4552 13.8488 11.6937 13.75 11.9423 13.75ZM17.8798 9.6875C17.8798 9.43886 17.7811 9.2004 17.6052 9.02459C17.4294 8.84877 17.191 8.75 16.9423 8.75C16.6937 8.75 16.4552 8.84877 16.2794 9.02459C16.1036 9.2004 16.0048 9.43886 16.0048 9.6875V19.0625C16.0048 19.3111 16.1036 19.5496 16.2794 19.7254C16.4552 19.9012 16.6937 20 16.9423 20C17.191 20 17.4294 19.9012 17.6052 19.7254C17.7811 19.5496 17.8798 19.3111 17.8798 19.0625V9.6875Z" fill="#D8D8D8"/>
</svg>
