<svg xmlns="http://www.w3.org/2000/svg" xmlns:xlink="http://www.w3.org/1999/xlink" width="356" height="301" fill="none" xmlns:v="https://vecta.io/nano"><style><![CDATA[.B{fill-rule:evenodd}.C{fill:#fff}.D{fill:#cbcbcd}.E{fill:#d83b29}.F{fill:#c5d657}.G{fill:#85321a}.H{fill:#e6e6e8}.I{fill:#ffbc82}.J{fill:#222b45}.K{fill:#ff4a32}.L{fill:#fff6f8}.M{fill:#29201d}.N{fill:#76bf2f}.O{fill:#ffad4b}]]></style><path d="M136.635 68.952c55.61 12.614 50.522 5.68 58.276.33s34.976-13.435 32.89-28.27-146.776 15.326-91.167 27.94z" fill="#fef6f4" class="B"/><mask id="A" mask-type="alpha" maskUnits="userSpaceOnUse" x="13" y="1" width="344" height="299"><path d="M81.815 1.338L356.91 90.722 288.954 299.87 13.86 210.486 81.815 1.338z" class="B C"/></mask><g mask="url(#A)" class="B"><path d="M290.485 233c-44.45 34.84-147.014 36.76-215.938-11.517S36.83 107.33 86.166 85.138s92.895 5.982 104.865-2.987 55.09-47.256 101.033-4.414 57.37 109.05-1.58 155.252z" fill="#fef6f4"/></g><g class="B"><path d="M10.337 263.393a9.22 9.22 0 0 1-8.625-6.188c-1.3-3.697-.208-7.71 2.808-10.224l48.365-40.317a9.33 9.33 0 0 1 5.978-2.158l268.842 4.203c3.583.055 6.755 2.102 8.277 5.34s1.07 6.983-1.178 9.768l-32.733 40.56c-1.778 2.204-4.423 3.465-7.258 3.46l-284.476-4.447z" fill="#262b59"/><path d="M9.372 257.905a9.22 9.22 0 0 1-8.625-6.188c-1.31-3.697-.21-7.7 2.807-10.224l48.366-40.316a9.33 9.33 0 0 1 5.978-2.159l268.842 4.203a9.24 9.24 0 0 1 8.277 5.342c1.523 3.238 1.07 6.982-1.177 9.768l-32.733 40.56a9.26 9.26 0 0 1-7.258 3.46L9.372 257.905z" fill="#393d7b"/></g><mask id="B" mask-type="alpha" maskUnits="userSpaceOnUse" x="4" y="204" width="325" height="52"><use xlink:href="#BJ" class="B C"/></mask><g mask="url(#B)" class="B H"><path d="M350.61 280.158l-368.756-.536.16-107.82 368.756.536-.16 107.82z"/></g><mask id="C" mask-type="alpha" maskUnits="userSpaceOnUse" x="4" y="204" width="325" height="52"><use xlink:href="#BJ" class="B C"/></mask><g mask="url(#C)" class="B H"><path d="M173.988 223.115l28.556-16.135 48.036 3.11 17.223 18.038-28.472 17.4-46.264-2.164-19.08-20.248z"/></g><mask id="D" mask-type="alpha" maskUnits="userSpaceOnUse" x="4" y="204" width="325" height="52"><use xlink:href="#BJ" class="B C"/></mask><g mask="url(#D)" class="B F"><path d="M267.8 229.7l16.64 5.108-11.47 5.143-12.972-5.14 7.804-5.11z"/></g><mask id="E" mask-type="alpha" maskUnits="userSpaceOnUse" x="4" y="204" width="325" height="52"><use xlink:href="#BJ" class="B C"/></mask><g mask="url(#E)" class="B F"><path d="M82.452 216.328l19.745.135 7.996 7.648 9.347 2.954 5.723 4.3-2.475 3.85-3.266 4.093-11.076 1.7-11.088-.016-11.34-3.192-13.555-6.14 11.49-5.574-1.503-9.748z"/></g><mask id="F" mask-type="alpha" maskUnits="userSpaceOnUse" x="4" y="204" width="325" height="52"><use xlink:href="#BJ" class="B C"/></mask><g mask="url(#F)" class="B F"><path d="M209.69 197.087l14.545 1.518-3.392 8.47-13.11-.1 1.958-9.878z"/></g><mask id="G" mask-type="alpha" maskUnits="userSpaceOnUse" x="4" y="204" width="325" height="52"><use xlink:href="#BJ" class="B C"/></mask><g mask="url(#G)" class="B F"><path d="M234.358 198.62l16.237 1.724 28.216-6.048-6.952-1.24 4.016-9.003s17.08-.3 29.074 7.162 24.332 22.678 24.332 22.678l-63.133 11.322-17.585-15.53-16.342-1.545 2.137-9.52z"/></g><mask id="H" mask-type="alpha" maskUnits="userSpaceOnUse" x="4" y="204" width="325" height="52"><use xlink:href="#BJ" class="B C"/></mask><g mask="url(#H)" class="B F"><path d="M101.728 248.22l53.854-10.33 12.833 14.155-49.3.82-9.903-.384-4.306-.792-2.433-1.62-.735-1.85z"/></g><mask id="I" mask-type="alpha" maskUnits="userSpaceOnUse" x="4" y="204" width="325" height="52"><use xlink:href="#BJ" class="B C"/></mask><g mask="url(#I)" class="B F"><path d="M175.938 223.098l26.606-16.118 48.036 3.11 17.227 18.825-29.555 16.906-45.185-2.458s-15.242-13.792-17.13-20.264z"/></g><mask id="J" mask-type="alpha" maskUnits="userSpaceOnUse" x="4" y="204" width="325" height="52"><use xlink:href="#BJ" class="B C"/></mask><g mask="url(#J)" class="B D"><path d="M314.612 248.238l-26.24-8.178 4.343-2.685 26.238 8.178-4.342 2.685z"/></g><mask id="K" mask-type="alpha" maskUnits="userSpaceOnUse" x="4" y="204" width="325" height="52"><use xlink:href="#BJ" class="B C"/></mask><g mask="url(#K)" class="B"><path d="M155.424 169.957c-.192.528-.637.998-1.18 1.412s-1.167.796-1.83 1.15c-1.332.7-2.81 1.336-4.33 1.93l-4.692 1.686-2.385.797-2.35.8-5.01 1.555a39.72 39.72 0 0 1-5.841 1.053l-6.098.402-5.826.312.968-.415c.001-.003-.006.01-.004.06s.01.137-.017.244v.001l-.06.264-.614.158-5.236 1.52-4.984 1.72-4.995 1.8-5.676 1.7a33.62 33.62 0 0 1-3.472.606l-3.386.307-2.697.293-1.012.2c-.262.066-.556.167-.89.29l-2.1.89-1.154.515-.864.417c-.216.122-.298.202-.305.226s-.026.074-.018.24c.01.157.05.38.096.614l.126.732a3.26 3.26 0 0 1 .028.859c-.04.323-.15.72-.56 1.15-.4.43-1.145.834-1.88 1.09a14.49 14.49 0 0 1-2.108.561l-.248.05-.216.04-.43.077-.85.14-.716.115-.197.035v.001l.048-.01c.036-.007.05-.015.097-.027a1.1 1.1 0 0 0 .13-.046l.11-.047c.017-.008.032-.017.046-.026l.027-.01c.017-.01.03-.018.04-.028a.3.3 0 0 1-.044.058c-.095.112-.232.307-.36.516-1.142 1.83-2.498 3.777-4.77 5.597a21.69 21.69 0 0 1-1.851 1.335c-.668.435-1.372.842-2.258 1.282-1.727.852-3.9 1.554-6.214 2.036-2.323.488-4.768.78-7.17.94l-7.104.14-1.73-.045-.858-.032-.214-.007-.107-.004-.602-.038-.315-.03-1.868-.23-1.593-.23-6.008-.876-5.713-.595-2.244-.038-.18.01a.82.82 0 0 1-.103.013l-.052.003c.07-.017.31-.116.35-.203.05-.017.02-.066.035-.04.003-.001-.014.017-.016 0 .014-.036-.015-.08-.026-.11-.078-.13-.098-.076.122.055l.992.61c.412.273.923.668 1.143 1.18.102.253.136.52.067.774-.02.132-.082.246-.147.363s-.128.23-.256.353c-.116.12-.237.243-.38.355l-.485.3c-.17.107-.35.176-.536.263l-.56.22-.566.184-.55.143-.538.122-.528.105-1.962.28-3.467.283-.74.05-.67.055-1.1.12-.188.03c.003-.002.001-.006.03-.015.015-.01.03-.016.04-.023.037-.043-.178.107-.415.32l-.858.696-.56.39a7.69 7.69 0 0 1-.723.397c-.957.46-1.84.763-2.474 1.035a5.24 5.24 0 0 0-.705.34c-.18.11-.353.245-.524.41-.35.332-.662.78-1.2 1.3-.134.132-.288.27-.466.4a4.59 4.59 0 0 1-.601.408l-.662.373-.71.323c-.97.402-1.99.734-3.03 1.004l-3.156.718-6.486.954-3.333.3-3.386.176-6.734.01c-2.25-.08-4.526-.223-6.765-.572-1.112-.177-2.22-.403-3.24-.73-1.022-.318-1.928-.76-2.5-1.28l2.17-.504c.906.624 2.6 1.004 4.5 1.206 1.88.2 3.922.274 5.962.266l6.143-.22 2.987-.25 2.934-.362 5.6-.992 2.484-.645a14.32 14.32 0 0 0 2.013-.743l.387-.195.297-.194c.112-.065.175-.12.25-.19s.148-.143.22-.23c.3-.338.564-.8 1.055-1.337a5.53 5.53 0 0 1 .976-.837c.435-.297.93-.54 1.363-.74l2.116-.948c.25-.136.27-.162.54-.374l.622-.56.183-.172.23-.202.32-.245c.152-.095.267-.18.466-.28.354-.192.834-.374 1.28-.5a12.63 12.63 0 0 1 1.252-.284l1.993-.272.907-.09.848-.072 2.853-.27 1.094-.167.593-.153c.072-.037.034-.018-.044.035-.001.02-.014.016-.017.018-.01.034-.02.065-.005.085.018.046.018.012-.172-.104l-.92-.532c-.21-.127-.444-.277-.68-.473s-.467-.443-.603-.734c-.068-.142-.1-.307-.103-.46.002-.134.032-.233.058-.35.026-.214.208-.482.407-.726.477-.517 1.44-.985 2.448-1.24l.72-.16.365-.07.334-.048.67-.085.613-.05c1.618-.112 2.93-.07 4.184-.01l6.86.662 7.743 1.086 1.238.154.08.008c-.007 0-.027 0-.004.001l.282.01.75.027 1.49.036c3.95.07 7.786-.13 10.908-.775 1.566-.32 2.915-.764 4.064-1.3.546-.263 1.164-.6 1.702-.944s1.063-.698 1.53-1.07a16.32 16.32 0 0 0 1.324-1.145c.416-.392.8-.796 1.158-1.21.727-.83 1.34-1.68 1.953-2.583.17-.244.35-.5.66-.824.087-.086.16-.163.294-.27l.188-.15c.085-.058.175-.117.267-.174l.14-.084.18-.092c.125-.06.246-.12.386-.175s.29-.108.44-.158.286-.084.434-.124l.22-.056.184-.04.364-.073.555-.09.808-.115.666-.1.317-.053.16-.026.12-.022c.345-.057.56-.12.665-.15s.053-.01.074-.012.087-.078.12-.224.045-.338.035-.555l-.046-.68c-.018-.236-.048-.485-.033-.8a1.86 1.86 0 0 1 .102-.53c.067-.198.196-.414.375-.62.376-.418.912-.73 1.38-.97a19.28 19.28 0 0 1 1.362-.603l1.154-.47c.796-.327 1.634-.675 2.652-1.018a17.5 17.5 0 0 1 1.782-.496c.65-.145 1.31-.25 1.955-.337 1.294-.166 2.504-.236 3.602-.295l2.963-.18c.847-.078 1.702-.2 2.566-.37 1.728-.33 3.46-.802 5.195-1.32l5.296-1.602 5.523-1.55c1.9-.486 3.87-.934 5.91-1.31l-.675.422c.004-.012.006-.046.003-.116s0-.176.058-.296l.17-.348.797-.067c4.094-.343 8.13-.294 11.793-.7 1.84-.194 3.552-.512 5.188-.936s3.182-.94 4.746-1.476l2.375-.81 2.373-.794c1.567-.53 3.1-1.07 4.564-1.64s2.857-1.164 4.06-1.805c.6-.32 1.147-.655 1.59-.997.45-.343.762-.7.887-1.037l2.434.155z" fill="#00bcc5"/></g><mask id="L" mask-type="alpha" maskUnits="userSpaceOnUse" x="4" y="204" width="325" height="52"><use xlink:href="#BJ" class="B C"/></mask><g mask="url(#L)" class="B"><path d="M40.158 281.658l3.534-16.184s-46.63-5.035-69.1-12.27l2.13 29.916 63.437-1.462z" fill="#00bcc5"/></g><mask id="M" mask-type="alpha" maskUnits="userSpaceOnUse" x="4" y="204" width="325" height="52"><use xlink:href="#BJ" class="B C"/></mask><g mask="url(#M)" class="B D"><path d="M75.958 219.286l-12.714-.018.01-6.854 12.714.018-.002 1.08-10.255-.015-.007 4.697 10.255.015-.002 1.078z"/></g><mask id="N" mask-type="alpha" maskUnits="userSpaceOnUse" x="4" y="204" width="325" height="52"><use xlink:href="#BJ" class="B C"/></mask><g mask="url(#N)" class="B D"><path d="M75.534 220.857l-7.586-.01.002-1.078 7.586.01-.002 1.08z"/></g><mask id="O" mask-type="alpha" maskUnits="userSpaceOnUse" x="4" y="204" width="325" height="52"><use xlink:href="#BJ" class="B C"/></mask><g mask="url(#O)" class="B D"><path d="M74.94 222.197l-7.73-.012.002-1.078 7.73.01-.002 1.08z"/></g><mask id="P" mask-type="alpha" maskUnits="userSpaceOnUse" x="4" y="204" width="325" height="52"><use xlink:href="#BJ" class="B C"/></mask><g mask="url(#P)" class="B D"><path d="M78.058 223.705l-10.852-.016.002-1.078 10.852.016-.001 1.078z"/></g><mask id="Q" mask-type="alpha" maskUnits="userSpaceOnUse" x="4" y="204" width="325" height="52"><use xlink:href="#BJ" class="B C"/></mask><g mask="url(#Q)" class="B D"><path d="M77.003 225.25l-9.06-.013.002-1.078 9.06.013-.001 1.078z"/></g><mask id="R" mask-type="alpha" maskUnits="userSpaceOnUse" x="4" y="204" width="325" height="52"><use xlink:href="#BJ" class="B C"/></mask><g mask="url(#R)" class="B H"><path d="M89.418 222.06l3.053.746 2.993-.785-.06-1.53-3.053-.746-2.993.785.06 1.53zm3.083 1.493l-4.543-1.1-.1-2.277 4.453-1.17 4.543 1.1.09 2.278-4.453 1.168z"/></g><mask id="S" mask-type="alpha" maskUnits="userSpaceOnUse" x="4" y="204" width="325" height="52"><use xlink:href="#BJ" class="B C"/></mask><g mask="url(#S)" class="B H"><path d="M93.312 224.94l3.053.746 2.993-.785-.06-1.53-3.053-.746-2.993.785.06 1.53zm3.083 1.492l-4.543-1.11-.1-2.278 4.452-1.168 4.543 1.1.1 2.278-4.452 1.167z"/></g><mask id="T" mask-type="alpha" maskUnits="userSpaceOnUse" x="4" y="204" width="325" height="52"><use xlink:href="#BJ" class="B C"/></mask><g mask="url(#T)" class="B H"><path d="M89.264 227.81l3.053.746 2.993-.785-.06-1.53-3.053-.746-2.992.784.06 1.532zm3.083 1.492l-4.543-1.11-.1-2.278 4.453-1.168 4.542 1.1.09 2.277-4.453 1.168z"/></g><mask id="U" mask-type="alpha" maskUnits="userSpaceOnUse" x="4" y="204" width="325" height="52"><use xlink:href="#BJ" class="B C"/></mask><g mask="url(#U)" class="B D"><path d="M31.604 241.154l-.83-.535 4.536-1.35-5.16-2.924 1.165-.395 6.122 3.47-5.834 1.734z"/></g><mask id="V" mask-type="alpha" maskUnits="userSpaceOnUse" x="4" y="204" width="325" height="52"><use xlink:href="#BJ" class="B C"/></mask><g mask="url(#V)" class="B D"><path d="M81.074 208.48l-11.532-3.482 1.4-.887 11.532 3.48-1.4.888z"/></g><mask id="W" mask-type="alpha" maskUnits="userSpaceOnUse" x="4" y="204" width="325" height="52"><use xlink:href="#BJ" class="B C"/></mask><g mask="url(#W)" class="B D"><path d="M97.07 213.62l-11.016-.096.043-1.078 11.017.096-.043 1.078z"/></g><mask id="X" mask-type="alpha" maskUnits="userSpaceOnUse" x="4" y="204" width="325" height="52"><use xlink:href="#BJ" class="B C"/></mask><g mask="url(#X)" class="B D"><path d="M90.813 213.16c-.953-1.284-1.406-3.923 3.704-4.713l.822 1.017c-4.155.643-2.21 3.338-2.19 3.365l-2.337.33z"/></g><mask id="Y" mask-type="alpha" maskUnits="userSpaceOnUse" x="4" y="204" width="325" height="52"><use xlink:href="#BJ" class="B C"/></mask><g mask="url(#Y)" class="B D"><path d="M90.785 211.425l-5.37-1.523 1.33-.904 5.37 1.522-1.33.905z"/></g><mask id="Z" mask-type="alpha" maskUnits="userSpaceOnUse" x="4" y="204" width="325" height="52"><use xlink:href="#BJ" class="B C"/></mask><g mask="url(#Z)" class="B D"><path d="M130.258 206.045l-7.424-2.247 1.33-.846 7.424 2.247-1.33.846z"/></g><mask id="a" mask-type="alpha" maskUnits="userSpaceOnUse" x="4" y="204" width="325" height="52"><use xlink:href="#BJ" class="B C"/></mask><g mask="url(#a)" class="B D"><path d="M127.238 207.875l-7.424-2.247 1.33-.847 7.424 2.247-1.33.847z"/></g><mask id="b" mask-type="alpha" maskUnits="userSpaceOnUse" x="4" y="204" width="325" height="52"><use xlink:href="#BJ" class="B C"/></mask><g mask="url(#b)" class="B D"><path d="M123.967 209.526l-6.467-1.957-1.74 1.088-1.922-.593 3.076-1.92 8.382 2.537-1.328.846z"/></g><mask id="c" mask-type="alpha" maskUnits="userSpaceOnUse" x="4" y="204" width="325" height="52"><use xlink:href="#BJ" class="B C"/></mask><g mask="url(#c)" class="B D"><path d="M114.208 213.15l-1.835-.644 2.01-1.104-5.89-1.91 1.392-.827 7.853 2.546-3.528 1.938z"/></g><mask id="d" mask-type="alpha" maskUnits="userSpaceOnUse" x="4" y="204" width="325" height="52"><use xlink:href="#BJ" class="B C"/></mask><g mask="url(#d)" class="B D"><path d="M115.097 218.23l-1.89-.612 5.06-3.008 1.9.612-5.062 3.008z"/></g><mask id="e" mask-type="alpha" maskUnits="userSpaceOnUse" x="4" y="204" width="325" height="52"><use xlink:href="#BJ" class="B C"/></mask><g mask="url(#e)" class="B D"><path d="M118.986 217.785l-2.947-1 1.433-.813 2.947 1-1.433.813z"/></g><mask id="f" mask-type="alpha" maskUnits="userSpaceOnUse" x="4" y="204" width="325" height="52"><use xlink:href="#BJ" class="B C"/></mask><g mask="url(#f)" class="B D"><path d="M5.993 223.96l-5.48-.008.002-1.03 5.478.008-.001 1.03z"/></g><mask id="g" mask-type="alpha" maskUnits="userSpaceOnUse" x="4" y="204" width="325" height="52"><use xlink:href="#BJ" class="B C"/></mask><g mask="url(#g)" class="B D"><path d="M15.364 227.624l-13.534-.02.001-1.03 13.534.02-.001 1.03z"/></g><mask id="h" mask-type="alpha" maskUnits="userSpaceOnUse" x="4" y="204" width="325" height="52"><use xlink:href="#BJ" class="B C"/></mask><g mask="url(#h)" class="B D"><path d="M14.57 229.517l-17.626-.025.002-1.03 17.626.025-.002 1.03z"/></g><mask id="i" mask-type="alpha" maskUnits="userSpaceOnUse" x="4" y="204" width="325" height="52"><use xlink:href="#BJ" class="B C"/></mask><g mask="url(#i)" class="B D"><path d="M22.614 231.025l-8.813-.013.001-.838 8.813.012-.001.84z"/></g><mask id="j" mask-type="alpha" maskUnits="userSpaceOnUse" x="4" y="204" width="325" height="52"><use xlink:href="#BJ" class="B C"/></mask><g mask="url(#j)" class="B D"><path d="M17.558 240.427l-14.33-.02v-.838l14.33.02-.001.838z"/></g><mask id="k" mask-type="alpha" maskUnits="userSpaceOnUse" x="4" y="204" width="325" height="52"><use xlink:href="#BJ" class="B C"/></mask><g mask="url(#k)" class="B D"><path d="M14.7 242.387l-9.798-.014.002-.838 9.798.014-.001.838z"/></g><mask id="l" mask-type="alpha" maskUnits="userSpaceOnUse" x="4" y="204" width="325" height="52"><use xlink:href="#BJ" class="B C"/></mask><g mask="url(#l)" class="B D"><path d="M14.338 244.43l-7.27-.01.001-.838 7.27.01-.001.838z"/></g><mask id="m" mask-type="alpha" maskUnits="userSpaceOnUse" x="4" y="204" width="325" height="52"><use xlink:href="#BJ" class="B C"/></mask><g mask="url(#m)" class="B D"><path d="M7.068 244.324l.01-6.408 1.91.003-.01 6.408-1.91-.003z"/></g><mask id="n" mask-type="alpha" maskUnits="userSpaceOnUse" x="4" y="204" width="325" height="52"><use xlink:href="#BJ" class="B C"/></mask><g mask="url(#n)" class="B D"><path d="M14.566 232.89l-17.626-.026v-1.03l17.626.025-.001 1.03z"/></g><mask id="o" mask-type="alpha" maskUnits="userSpaceOnUse" x="4" y="204" width="325" height="52"><use xlink:href="#BJ" class="B C"/></mask><g mask="url(#o)" class="B D"><path d="M8.284 231.195l-5.057-.008.002-1.028 5.057.007-.001 1.03z"/></g><mask id="p" mask-type="alpha" maskUnits="userSpaceOnUse" x="4" y="204" width="325" height="52"><use xlink:href="#BJ" class="B C"/></mask><g mask="url(#p)" class="B D"><path d="M6.472 232.365l-1.37-.003.005-3.205 1.37.002-.005 3.206z"/></g><mask id="q" mask-type="alpha" maskUnits="userSpaceOnUse" x="4" y="204" width="325" height="52"><use xlink:href="#BJ" class="B C"/></mask><g mask="url(#q)" class="B D"><path d="M3.232 237.91l4.8.007-.002 1.386-4.8-.007.002-1.386z"/></g><mask id="r" mask-type="alpha" maskUnits="userSpaceOnUse" x="4" y="204" width="325" height="52"><use xlink:href="#BJ" class="B C"/></mask><g mask="url(#r)" class="B D"><path d="M67.937 228.566l-8.73-.013.005-3.188 8.73.013-.005 3.188z"/></g><mask id="s" mask-type="alpha" maskUnits="userSpaceOnUse" x="4" y="204" width="325" height="52"><use xlink:href="#BJ" class="B C"/></mask><g mask="url(#s)" class="B D"><path d="M36.394 225.79l-6.804-.01.002-1.14 6.804.01-.002 1.14z"/></g><mask id="t" mask-type="alpha" maskUnits="userSpaceOnUse" x="4" y="204" width="325" height="52"><use xlink:href="#BJ" class="B C"/></mask><g mask="url(#t)" class="B D"><path d="M64.918 221.458l-6.954-.01.001-.8 6.953.01-.001.8z"/></g><mask id="u" mask-type="alpha" maskUnits="userSpaceOnUse" x="4" y="204" width="325" height="52"><use xlink:href="#BJ" class="B C"/></mask><g mask="url(#u)" class="B D"><path d="M60.102 218.555l.007-4.625 2.256.004-.007 4.624-2.257-.003z"/></g><mask id="v" mask-type="alpha" maskUnits="userSpaceOnUse" x="4" y="204" width="325" height="52"><use xlink:href="#BJ" class="B C"/></mask><g mask="url(#v)" class="B D"><path d="M64.916 222.784l-6.954-.01.001-.8 6.953.01-.001.8z"/></g><mask id="w" mask-type="alpha" maskUnits="userSpaceOnUse" x="4" y="204" width="325" height="52"><use xlink:href="#BJ" class="B C"/></mask><g mask="url(#w)" class="B D"><path d="M64.914 224.11l-6.953-.01.001-.8h6.953l-.001.8z"/></g><mask id="x" mask-type="alpha" maskUnits="userSpaceOnUse" x="4" y="204" width="325" height="52"><use xlink:href="#BJ" class="B C"/></mask><g mask="url(#x)" class="B D"><path d="M90.422 203.198c-2.145 1.625-7.753 1.956-12.526.74s-6.904-3.52-4.76-5.143 7.753-1.956 12.526-.74 6.904 3.52 4.76 5.143z"/></g><mask id="y" mask-type="alpha" maskUnits="userSpaceOnUse" x="4" y="204" width="325" height="52"><use xlink:href="#BJ" class="B C"/></mask><g mask="url(#y)" class="B D"><path d="M126.675 221.005l-3.288-1.12 3.434-1.942 3.288 1.12-3.434 1.94z"/></g><mask id="z" mask-type="alpha" maskUnits="userSpaceOnUse" x="4" y="204" width="325" height="52"><use xlink:href="#BJ" class="B C"/></mask><g mask="url(#z)" class="B D"><path d="M145.328 218.45l-3.288-1.12 4.96-2.805 3.288 1.12-4.96 2.805z"/></g><mask id="AA" mask-type="alpha" maskUnits="userSpaceOnUse" x="4" y="204" width="325" height="52"><use xlink:href="#BJ" class="B C"/></mask><g mask="url(#AA)" class="B D"><path d="M105.95 205.246l-3.577-1.22 3.708-2.097 3.578 1.22-3.71 2.096z"/></g><mask id="AB" mask-type="alpha" maskUnits="userSpaceOnUse" x="4" y="204" width="325" height="52"><use xlink:href="#BJ" class="B C"/></mask><g mask="url(#AB)" class="B D"><path d="M2.64 208.354l-1.872-.638 7.704-4.356 1.872.638-7.704 4.356z"/></g><mask id="AC" mask-type="alpha" maskUnits="userSpaceOnUse" x="4" y="204" width="325" height="52"><use xlink:href="#BJ" class="B C"/></mask><g mask="url(#AC)" class="B D"><path d="M140.653 217.142l-1.644-.56 4.96-2.805 1.644.56-4.96 2.804z"/></g><mask id="AD" mask-type="alpha" maskUnits="userSpaceOnUse" x="4" y="204" width="325" height="52"><use xlink:href="#BJ" class="B C"/></mask><g mask="url(#AD)" class="B D"><path d="M140.6 215.994l-1.644-.56 2.275-1.286 1.643.56-2.274 1.286z"/></g><mask id="AE" mask-type="alpha" maskUnits="userSpaceOnUse" x="4" y="204" width="325" height="52"><use xlink:href="#BJ" class="B C"/></mask><g mask="url(#AE)" class="B D"><path d="M121.303 220.443l-3.288-1.12 2.545-1.44 3.288 1.12-2.545 1.44z"/></g><mask id="AF" mask-type="alpha" maskUnits="userSpaceOnUse" x="4" y="204" width="325" height="52"><use xlink:href="#BJ" class="B C"/></mask><g mask="url(#AF)" class="B D"><path d="M113.92 220.448l-2.443-.832 1.457-.824 2.443.833-1.457.823z"/></g><mask id="AG" mask-type="alpha" maskUnits="userSpaceOnUse" x="4" y="204" width="325" height="52"><use xlink:href="#BJ" class="B C"/></mask><g mask="url(#AG)" class="B D"><path d="M115.096 221.945l-1.882-.64 1.457-.824 1.883.64-1.458.824z"/></g><mask id="AH" mask-type="alpha" maskUnits="userSpaceOnUse" x="4" y="204" width="325" height="52"><use xlink:href="#BJ" class="B C"/></mask><g mask="url(#AH)" class="B D"><path d="M118.39 221.774l-2.237-.762 1.457-.824 2.237.762-1.457.824z"/></g><mask id="AI" mask-type="alpha" maskUnits="userSpaceOnUse" x="4" y="204" width="325" height="52"><use xlink:href="#BJ" class="B C"/></mask><g mask="url(#AI)" class="B C"><path d="M220.825 220.05c-7.823-.01-14.193 2.772-14.198 6.203s6.356 6.232 14.18 6.243 14.192-2.77 14.197-6.202-6.356-6.232-14.18-6.244zm-.022 15.25c-11.348-.017-20.574-4.08-20.567-9.056s9.245-9.014 20.593-8.996 20.574 4.078 20.566 9.055-9.245 9.013-20.592 8.997z"/></g><mask id="AJ" mask-type="alpha" maskUnits="userSpaceOnUse" x="4" y="204" width="325" height="52"><use xlink:href="#BJ" class="B C"/></mask><g mask="url(#AJ)" class="B C"><path d="M199.334 284.51l-6.327-.406 38.778-118.33 6.327.406-38.778 118.33z"/></g><mask id="AK" mask-type="alpha" maskUnits="userSpaceOnUse" x="4" y="204" width="325" height="52"><use xlink:href="#BJ" class="B C"/></mask><g mask="url(#AK)" class="B C"><path d="M209.85 284.526l-6.327-.406L242.3 165.79l6.327.406-38.778 118.33z"/></g><mask id="AL" mask-type="alpha" maskUnits="userSpaceOnUse" x="4" y="204" width="325" height="52"><use xlink:href="#BJ" class="B C"/></mask><g mask="url(#AL)" class="B C"><path d="M205.934 208.103c-2.045-.003-4.004.416-5.246 1.142l-22.734 13.272c-1.398.816-1.697 1.908-.782 2.85l14.893 15.3c.916.942 2.922 1.603 5.236 1.728l37.625 2.03c2.314.124 4.62-.305 6.018-1.12l22.734-13.272c1.398-.817 1.697-1.908.78-2.85l-14.89-15.3c-.916-.94-2.924-1.603-5.237-1.728l-38.397-2.05zm29.757 38.715l-1.412-.04-37.625-2.03c-4.225-.228-7.89-1.438-9.563-3.157l-14.89-15.3c-1.674-1.718-1.127-3.712 1.427-5.203l22.734-13.272c2.553-1.5 6.76-2.275 10.99-2.047l37.625 2.03c4.226.228 7.89 1.438 9.564 3.156l14.89 15.302c1.673 1.718 1.126 3.713-1.427 5.203l-22.734 13.272c-2.268 1.324-5.846 2.09-9.58 2.086z"/></g><mask id="AM" mask-type="alpha" maskUnits="userSpaceOnUse" x="4" y="204" width="325" height="52"><use xlink:href="#BJ" class="B C"/></mask><g mask="url(#AM)" class="B C"><path d="M126.28 227.373c-6.122-.01-11.967-.957-16.71-2.73l-1.14-.427c-4.952-1.854-8.123-4.433-8.928-7.263s.824-5.667 4.59-7.988l13.4-8.264 4.408 1.38-13.41 8.264c-6.206 3.825-4.73 9.014 3.434 12.07l1.14.426c4.338 1.624 9.844 2.373 15.506 2.11s10.677-1.5 14.122-3.485l37.444-21.56 23.407 6.36-2.84 2.015-19.23-5.224-34.474 19.852c-4.354 2.507-10.693 4.07-17.846 4.403-.966.044-1.928.066-2.884.064z"/></g><mask id="AN" mask-type="alpha" maskUnits="userSpaceOnUse" x="4" y="204" width="325" height="52"><use xlink:href="#BJ" class="B C"/></mask><g mask="url(#AN)" class="B C"><path d="M185.008 216.477l-38.193-11.884 3.122-1.933 38.193 11.884-3.122 1.933z"/></g><mask id="AO" mask-type="alpha" maskUnits="userSpaceOnUse" x="4" y="204" width="325" height="52"><use xlink:href="#BJ" class="B C"/></mask><g mask="url(#AO)" class="B C"><path d="M176.126 221.19l-19.553-6.085 3.12-1.933 19.553 6.084-3.12 1.934z"/></g><mask id="AP" mask-type="alpha" maskUnits="userSpaceOnUse" x="4" y="204" width="325" height="52"><use xlink:href="#BJ" class="B C"/></mask><g mask="url(#AP)" class="B C"><path d="M117.317 215.266l.003-2.37c6.674.01 13.048-1.38 17.05-3.717l23.192-13.543 21.696 6.66-3.092 1.943-17.4-5.344-20.058 11.71c-5.02 2.93-13.012 4.673-21.38 4.66z"/></g><mask id="AQ" mask-type="alpha" maskUnits="userSpaceOnUse" x="4" y="204" width="325" height="52"><use xlink:href="#BJ" class="B C"/></mask><g mask="url(#AQ)" class="B C"><path d="M131.303 219.03c-5.705-3.547-1.488-7.473 1.54-9.054l4.15 1.524c-.246.132-5.983 3.24-1.274 6.166l-4.416 1.364z"/></g><mask id="AR" mask-type="alpha" maskUnits="userSpaceOnUse" x="4" y="204" width="325" height="52"><use xlink:href="#BJ" class="B C"/></mask><g mask="url(#AR)" class="B C"><path d="M126.96 217.754c-1.413-.002-2.615-.17-3.597-.505-3.28-1.118-2.366-3.524-2.25-3.794l1.692.14 1.692.138c-.187.454-.4 1.855.98 2.326.995.338 3.058.216 5.81-.343l1.454 1.37c-2.204.448-4.136.67-5.78.67z"/></g><mask id="AS" mask-type="alpha" maskUnits="userSpaceOnUse" x="4" y="204" width="325" height="52"><use xlink:href="#BJ" class="B C"/></mask><g mask="url(#AS)" class="B C"><path d="M41.666 283.415l-5.356-.335 5.104-15.998c1.295-4.057 4.97-7.922 10.625-11.178l57.133-32.883 4.305 1.44-57.133 32.883c-5.096 2.934-8.407 6.417-9.574 10.073l-5.105 15.997z"/></g><mask id="AT" mask-type="alpha" maskUnits="userSpaceOnUse" x="4" y="204" width="325" height="52"><use xlink:href="#BJ" class="B C"/></mask><g mask="url(#AT)" class="B C"><path d="M168.964 253.125l-28.438-29.544 4.982-.918 28.437 29.544-4.98.918z"/></g><mask id="AU" mask-type="alpha" maskUnits="userSpaceOnUse" x="4" y="204" width="325" height="52"><use xlink:href="#BJ" class="B C"/></mask><g mask="url(#AU)" class="B C"><path d="M91.578 250.67l.418-10.97 5.408.046-.278 7.294 82.976-15.635 2.146 2.18-90.67 17.085z"/></g><mask id="AV" mask-type="alpha" maskUnits="userSpaceOnUse" x="4" y="204" width="325" height="52"><use xlink:href="#BJ" class="B C"/></mask><g mask="url(#AV)" class="B C"><path d="M124.97 236.768l-2.2-2.17 50.815-9.855 2.198 2.17-50.814 9.854z"/></g><mask id="AW" mask-type="alpha" maskUnits="userSpaceOnUse" x="4" y="204" width="325" height="52"><use xlink:href="#BJ" class="B C"/></mask><g mask="url(#AW)" class="B C"><path d="M210.22 207.03l-6.382-.166 3.53-27.328 6.382.166-3.53 27.328z"/></g><mask id="AX" mask-type="alpha" maskUnits="userSpaceOnUse" x="4" y="204" width="325" height="52"><use xlink:href="#BJ" class="B C"/></mask><g mask="url(#AX)" class="B C"><path d="M247.812 209.194l-6.317-.436 16.08-45.596 6.316.436-16.08 45.596z"/></g><mask id="AY" mask-type="alpha" maskUnits="userSpaceOnUse" x="4" y="204" width="325" height="52"><use xlink:href="#BJ" class="B C"/></mask><g mask="url(#AY)" class="B C"><path d="M363.38 267.792L235.5 230.05l3.012-1.966 127.88 37.74-3.012 1.966z"/></g><mask id="AZ" mask-type="alpha" maskUnits="userSpaceOnUse" x="4" y="204" width="325" height="52"><use xlink:href="#BJ" class="B C"/></mask><g mask="url(#AZ)" class="B C"><path d="M254.673 253.267l-4.154-1.523 32.02-16.82-16.527-4.825 2.988-1.973 21.556 6.294-35.883 18.847z"/></g><mask id="Aa" mask-type="alpha" maskUnits="userSpaceOnUse" x="4" y="204" width="325" height="52"><use xlink:href="#BJ" class="B C"/></mask><g mask="url(#Aa)" class="B C"><path d="M288.58 235.457l-4.064-1.57 11.494-5.726 14.75-2.607-29.222-28.62c-1.176-1.152-3.564-1.98-6.39-2.22l-25.28-2.132-12.47-3.224-9.638-.437-18.402.433-23.094-1.34.695-2.352 22.596 1.31 18.326-.433 11.235.512 12.682 3.277 24.36 2.055c4.56.385 8.417 1.725 10.316 3.584l31.516 30.866-18.762 3.317-10.648 5.305z"/></g><mask id="Ab" mask-type="alpha" maskUnits="userSpaceOnUse" x="4" y="204" width="325" height="52"><use xlink:href="#BJ" class="B C"/></mask><g mask="url(#Ab)" class="B C"><path d="M259.536 219.002l-2.296-2.15 15.545-3.18 2.298 2.15-15.547 3.18z"/></g><mask id="Ac" mask-type="alpha" maskUnits="userSpaceOnUse" x="4" y="204" width="325" height="52"><use xlink:href="#BJ" class="B C"/></mask><g mask="url(#Ac)" class="B C"><path d="M267.225 226.988l-2.156-2.178 65.314-12.37 2.157 2.178-65.315 12.37z"/></g><mask id="Ad" mask-type="alpha" maskUnits="userSpaceOnUse" x="4" y="204" width="325" height="52"><use xlink:href="#BJ" class="B C"/></mask><g mask="url(#Ad)" class="B C"><path d="M353.66 236.545l-49.787-44.093c-4.262-3.775-12.478-6.384-21.976-6.98l-52.253-3.28-51.395-3.31c-9.443-.61-18.376-2.016-26.55-4.182l-18.116-4.804 2.788-2.03 18.117 4.804c7.553 2.003 15.807 3.303 24.532 3.865l51.386 3.3 52.243 3.28c11.27.707 21.014 3.802 26.07 8.28l49.788 44.093-4.846 1.048z"/></g><mask id="Ae" mask-type="alpha" maskUnits="userSpaceOnUse" x="4" y="204" width="325" height="52"><use xlink:href="#BJ" class="B C"/></mask><g mask="url(#Ae)" class="B C"><path d="M360.806 232.986l-49.788-44.093c-4.26-3.775-12.477-6.384-21.977-6.98l-52.252-3.28-51.395-3.31c-9.443-.61-18.375-2.016-26.55-4.183l-18.116-4.803 2.79-2.03 18.116 4.804c7.553 2.002 15.807 3.303 24.532 3.864l103.63 6.6c11.27.707 21.014 3.802 26.07 8.28l49.788 44.093-4.845 1.048z"/></g><mask id="Af" mask-type="alpha" maskUnits="userSpaceOnUse" x="4" y="204" width="325" height="52"><use xlink:href="#BJ" class="B C"/></mask><g mask="url(#Af)" class="B C"><path d="M310.395 257.753l-4.143-1.53 8.414-4.388 36.026-19.475 4.205 1.497-36.057 19.49-8.445 4.405z"/></g><mask id="Ag" mask-type="alpha" maskUnits="userSpaceOnUse" x="4" y="204" width="325" height="52"><use xlink:href="#BJ" class="B C"/></mask><g mask="url(#Ag)" class="B C"><path d="M52.793 205.925a21.67 21.67 0 0 1-3.219-.24l-5.436-.828c-2.762-.42-5.644-.636-8.566-.64l-11.217-.016c-4.595-.007-8.628-1.3-10.036-3.22l-2.38-3.245c-3.114-4.247-1.237-8.875 5.02-12.38l33.59-18.817 2.712.933-33.59 18.817c-5.554 3.1-7.22 7.22-4.455 10.988l2.38 3.245c.95 1.294 3.666 2.166 6.762 2.17l11.217.016c3.303.004 6.562.248 9.685.724l5.436.827c1.74.265 3.658.193 5.263-.2s2.756-1.07 3.155-1.855l.47-.93c1.492-2.94 4.622-5.71 9.052-8.008l8.045-4.176-.204-.25c-1.194-1.457.316-3.048 3.514-3.7 1.97-.4 4.28-.362 6.178.106l3.214.8-1.678 1.316-3.214-.8c-.936-.23-2.074-.25-3.044-.052-1.575.32-2.32 1.104-1.732 1.822l.876 1.07-9.324 4.84c-4.073 2.114-6.95 4.66-8.323 7.364l-.47.93c-.612 1.206-2.373 2.242-4.834 2.843-1.495.366-3.166.55-4.846.547z"/></g><mask id="Ah" mask-type="alpha" maskUnits="userSpaceOnUse" x="4" y="204" width="325" height="52"><use xlink:href="#BJ" class="B C"/></mask><g mask="url(#Ah)" class="B C"><path d="M104.952 242.2c-4.44-.006-8.913-.588-12.786-1.79l-22.72-7.057 1.252-2.58 9.25-4.783-1.302-14.258-21.898-6.483 3.018-1.965 24.175 7.157 1.496 16.383-9.73 5.032-.227.468 19.807 6.15c7.512 2.333 18.016 1.582 23.414-1.676 5.42-3.27 3.925-7.766-3.4-10.236l-3.375-1.138 3.29-1.88 3.375 1.138c9.67 3.26 11.642 9.196 4.49 13.513-4.343 2.622-11.193 4.014-18.124 4.004z"/></g><mask id="Ai" mask-type="alpha" maskUnits="userSpaceOnUse" x="4" y="204" width="325" height="52"><use xlink:href="#BJ" class="B C"/></mask><g mask="url(#Ai)" class="B C"><path d="M72.46 234.022L51 233.99l-28.214-6.83-10.134-.93.008-5.648c.004-2.1-2.627-4.017-6.864-5l-6.696-1.556 2.522-2.096 6.695 1.556c6.02 1.398 9.755 4.12 9.75 7.105l-.005 3.715 6.615.608 27.71 6.708 20.063.03-.003 2.372z"/></g><mask id="Aj" mask-type="alpha" maskUnits="userSpaceOnUse" x="4" y="204" width="325" height="52"><use xlink:href="#BJ" class="B C"/></mask><g mask="url(#Aj)" class="B C"><path d="M-13.8 220.313c-.516 0-1.025-.012-1.525-.032-5.27-.22-9.207-1.482-10.03-3.217l5.294-.478c.32.67 2.47 1.218 5.233 1.333 3.814.16 8.437-.506 10.164-2.35C-.6 211.235 16.08 202.23 16.8 201.85l4.196 1.502c-.168.09-16.885 9.113-20.646 13.125-2.537 2.706-8.677 3.844-14.14 3.836z"/></g><mask id="Ak" mask-type="alpha" maskUnits="userSpaceOnUse" x="4" y="204" width="325" height="52"><use xlink:href="#BJ" class="B C"/></mask><g mask="url(#Ak)" class="B C"><path d="M23.198 257.136c-6.405-4.15-2.22-7.353 2.207-10.746l.54-.414c3.555-2.734 12.9-2.943 21.935-3.144 4.73-.106 9.618-.215 12.41-.722 9.356-1.702 17.93-.033 18.29.04l-2.217 2.16c-.07-.013-6.86-1.306-13.99-.01-3.652.664-8.777.78-14.203.9-7.233.16-15.43.344-17.524 1.954l-.545.418c-4.685 3.59-6.746 5.44-2.426 8.237l-4.476 1.326z"/></g><mask id="Al" mask-type="alpha" maskUnits="userSpaceOnUse" x="4" y="204" width="325" height="52"><use xlink:href="#BJ" class="B C"/></mask><g mask="url(#Al)" class="B C"><path d="M38.46 255.67l-.77-1.353c-.712-1.253-2.22-2.383-4.365-3.268l-7.542-3.114 3.702-1.725 7.542 3.115c2.904 1.198 4.948 2.728 5.9 4.424l.77 1.354-5.247.567z"/></g><mask id="Am" mask-type="alpha" maskUnits="userSpaceOnUse" x="4" y="204" width="325" height="52"><use xlink:href="#BJ" class="B C"/></mask><g mask="url(#Am)" class="B C"><path d="M26.615 246.565l-8.833-8.63 14.915-4.26 7.882-3.865 4.035 1.584-8.36 4.1-11.646 3.326 6.938 6.78-4.933.966z"/></g><mask id="An" mask-type="alpha" maskUnits="userSpaceOnUse" x="4" y="204" width="325" height="52"><use xlink:href="#BJ" class="B C"/></mask><g mask="url(#An)" class="B C"><path d="M-5.384 243.983l-9.83-.014.004-2.373 7.238.01 10.885-5.922c2.535-1.38 7.05-1.718 10.504-.8l9.188 2.47-2.818 2.022-9.19-2.47c-1.142-.307-2.633-.194-3.472.262l-12.5 6.805z"/></g><mask id="Ao" mask-type="alpha" maskUnits="userSpaceOnUse" x="4" y="204" width="325" height="52"><use xlink:href="#BJ" class="B C"/></mask><g mask="url(#Ao)" class="B C"><path d="M54.514 263.445c-32.865-.048-79.976-13.185-82.043-13.766l2.9-1.996c.512.144 51.488 14.362 82.578 13.338 12.23-.4 19.648-1.997 28.237-3.847 13.663-2.94 29.16-6.272 67.937-5.997 62.53.447 130.812 8.468 131.494 8.548l-1.4 2.3c-.676-.08-68.328-8.025-130.168-8.467-37.496-.27-52.354 2.933-65.47 5.756-8.713 1.876-16.944 3.648-30.212 4.083-1.26.04-2.553.06-3.863.058z"/></g><mask id="Ap" mask-type="alpha" maskUnits="userSpaceOnUse" x="4" y="204" width="325" height="52"><use xlink:href="#BJ" class="B C"/></mask><g mask="url(#Ap)" class="B C"><path d="M358.703 283.675l-35.22-9.57c-8.148-2.214-16.8-4.118-25.717-5.66l-10.412-1.8a116.99 116.99 0 0 0-6.99-.987c-16.144-1.787-72.96-7.648-126.3-8.03-37.495-.268-52.354 2.933-65.47 5.756-8.713 1.876-16.943 3.648-30.212 4.083-1.26.04-2.553.06-3.863.058-32.865-.047-79.977-13.185-82.043-13.766l2.9-1.996c.512.144 51.488 14.362 82.578 13.338 12.23-.4 19.648-1.997 28.237-3.847 13.663-2.94 29.16-6.268 67.937-5.998 53.93.386 111.26 6.298 127.546 8.1 2.588.287 5.162.65 7.652 1.08l10.412 1.8c9.218 1.594 18.162 3.562 26.584 5.85l35.22 9.568-2.84 2.016z"/></g><mask id="Aq" mask-type="alpha" maskUnits="userSpaceOnUse" x="4" y="204" width="325" height="52"><use xlink:href="#BJ" class="B C"/></mask><g mask="url(#Aq)" class="B C"><path d="M297.96 259.628l-1.614-1.084 11.91-3.403 1.615 1.085-11.912 3.402z"/></g><mask id="Ar" mask-type="alpha" maskUnits="userSpaceOnUse" x="4" y="204" width="325" height="52"><use xlink:href="#BJ" class="B C"/></mask><g mask="url(#Ar)" class="B C"><path d="M63.855 262.594l-4.847-1.058c.24-.214 5.992-5.242 14.84-7.37 7.838-1.886 18.577-6.145 18.684-6.188l3.64 1.76c-.46.182-11.323 4.5-19.713 6.51-7.35 1.77-12.552 6.303-12.604 6.35z"/></g><mask id="As" mask-type="alpha" maskUnits="userSpaceOnUse" x="4" y="204" width="325" height="52"><use xlink:href="#BJ" class="B C"/></mask><g mask="url(#As)" class="B C"><path d="M88.06 259.164l-4.793-1.105 12.502-10.474 4.793 1.105-12.503 10.474z"/></g><mask id="At" mask-type="alpha" maskUnits="userSpaceOnUse" x="4" y="204" width="325" height="52"><use xlink:href="#BJ" class="B C"/></mask><g mask="url(#At)" class="B C"><path d="M126.513 253.443l-17.022-.43c-4.817-.122-8.587-1.874-8.584-3.99l.003-1.637 2.458.004-.002 1.636c-.003 1.543 2.747 2.82 6.26 2.91l17.022.43-.134 1.077z"/></g><mask id="Au" mask-type="alpha" maskUnits="userSpaceOnUse" x="4" y="204" width="325" height="52"><use xlink:href="#BJ" class="B C"/></mask><g mask="url(#Au)" class="B C"><path d="M185.534 221.18c-2.4-.004-4.826-.28-7.045-.845l1.23-.93c4.965 1.265 11.188.768 14.8-1.183l1.025-.553c3.627-1.96 3.387-4.83-.558-6.676l-.523-.245 1.792-.736.523.245c4.782 2.24 5.073 5.717.676 8.093l-1.026.554c-2.762 1.492-6.788 2.283-10.895 2.277z"/></g><mask id="Av" mask-type="alpha" maskUnits="userSpaceOnUse" x="4" y="204" width="325" height="52"><use xlink:href="#BJ" class="B C"/></mask><g mask="url(#Av)" class="B C"><path d="M195.594 254.055c-1.88-.684-2.95-1.792-2.855-2.964s1.332-2.242 3.316-2.864c1.745-.545 4.052-.74 6.326-.546l-5.155-4.514c-1.383-1.212-2.658-2.506-1.75-3.847 1.057-1.563 5.082-2.566 8.98-2.238 3.3.28 6.238 1.455 7.486 3 1 1.238 1.008 2.7.02 4.257l-3.314-.412c.555-.868 1.015-2.153.05-3.344-.847-1.047-2.763-1.84-4.883-2.017-2.14-.182-4.488.374-5.04 1.188s.408 1.76 1.528 2.74l7.87 6.892c.242.173.446.354.61.543l-3.147.602-.47-.4c-.613-.408-1.63-.73-2.85-.894-1.545-.207-3.136-.12-4.26.23s-1.825.983-1.88 1.7.545 1.36 1.61 1.747l-2.193 1.16z"/></g><mask id="Aw" mask-type="alpha" maskUnits="userSpaceOnUse" x="4" y="204" width="325" height="52"><use xlink:href="#BJ" class="B C"/></mask><g mask="url(#Aw)" class="B C"><path d="M214.3 256.708l3.902-5.835c.38-.568 1.146-1.072 2.148-1.466 4.206-2.44 10.24-4.244 16.997-5.044l.906 1.457c-4.26.504-8.195 1.457-11.462 2.74 3.134.242 5.81 1.362 6.49 2.758.7 1.432-.772 3.016-3.58 3.854-2.695.802-6.48.877-9.417.184l1.623-1.33c1.838.433 4.2.39 5.853-.105 1.656-.494 2.563-1.457 2.156-2.29-.412-.842-2.155-1.53-4.054-1.603-1.052-.04-2.124.12-2.957.404a17.98 17.98 0 0 0-1.571 1.041l-7.036 5.236z"/></g><mask id="Ax" mask-type="alpha" maskUnits="userSpaceOnUse" x="4" y="204" width="325" height="52"><use xlink:href="#BJ" class="B C"/></mask><g mask="url(#Ax)" class="B C"><path d="M78.403 250.438l-1.894-.7 3.832-2.026-5.885-1.84 1.423-.878 8.044 2.514-5.52 2.92z"/></g><mask id="Ay" mask-type="alpha" maskUnits="userSpaceOnUse" x="4" y="204" width="325" height="52"><use xlink:href="#BJ" class="B C"/></mask><g mask="url(#Ay)" class="B C"><path d="M102.195 217.353l-20.44-.03.003-1.78 20.44.03-.002 1.78z"/></g><path d="M122.5 232.986l27.788-2.3 6.948 7.23 23.698-5.556 12.073 9.84 45.245 2.247L270.39 228l-4.228-2.843 18.072-2" stroke="#fa6400" stroke-width="3" stroke-linecap="round" stroke-linejoin="round"/><path d="M281 226h6l-3.998-5-2.002 5z" fill="#ad4d5f" class="B"/><mask id="Az" mask-type="alpha" maskUnits="userSpaceOnUse" x="256" y="157" width="51" height="69"><path d="M256 157.045h50.532V226H256v-68.955z" class="B C"/></mask><g mask="url(#Az)" class="B"><path d="M281.263 196.786c-8.493 0-15.38-6.94-15.38-15.508 0-8.564 6.886-15.508 15.38-15.508 8.498 0 15.386 6.944 15.386 15.508 0 8.57-6.888 15.508-15.386 15.508zm0-39.74c-13.95 0-25.263 11.407-25.263 25.48C256 196.59 277.572 226 281.263 226c4.315 0 25.27-29.41 25.27-43.475 0-14.073-11.312-25.48-25.27-25.48z" fill="#cd5200"/></g><mask id="BA" mask-type="alpha" maskUnits="userSpaceOnUse" x="262" y="157" width="51" height="69"><path d="M262.16 157.045h50.532V226H262.16v-68.955z" class="B C"/></mask><g mask="url(#BA)" class="B"><path d="M287.423 196.786c-8.493 0-15.38-6.94-15.38-15.508 0-8.564 6.886-15.508 15.38-15.508 8.5 0 15.386 6.944 15.386 15.508 0 8.57-6.887 15.508-15.386 15.508zm0-39.74c-13.95 0-25.263 11.407-25.263 25.48 0 14.066 21.572 43.475 25.263 43.475 4.316 0 25.27-29.41 25.27-43.475 0-14.073-11.313-25.48-25.27-25.48z" fill="#fa6400"/></g><path d="M66 236l-17.025-.458s3.245-4.674-.197-7.497c-2.554-2.098-4.32-1.812-5.514-.6.13-2.03-.474-4.092-2.722-5.484-2.287-1.412-4.537-.286-6.45 1.66.82-2.795.532-5.715-2.574-7.774-8.03-5.332-15.98 16.558-15.98 16.558L3 235.618 66 236z" fill="#f4d4ce" class="B"/><mask id="BB" mask-type="alpha" maskUnits="userSpaceOnUse" x="53" y="206" width="31" height="30"><path d="M53.035 206.077h30.833v29.844H53.035v-29.844z" class="B C"/></mask><g mask="url(#BB)" class="B J"><path d="M83.582 221c-1.624 8.24-9.715 14.92-18.07 14.92s-13.814-6.68-12.2-14.92 9.716-14.923 18.072-14.923S85.206 212.76 83.582 221z"/></g><g class="B"><path d="M77.815 221c-1.054 5.523-6.302 10-11.723 10s-8.96-4.476-7.906-10 6.3-10 11.723-10 8.96 4.477 7.906 10z" fill="#435070"/><path d="M72.907 221c-.526 2.76-3.15 5-5.86 5s-4.48-2.24-3.954-5 3.15-5 5.86-5 4.48 2.24 3.954 5z" class="C"/><path d="M145 208.012s-.442-22.306-6.85-26.824c-2.938-2.072-5.04-5.984-6.453-9.613L126.65 157h-4.482l4.5 29.13c.517 2.59.14 5.278-1.066 7.622l-8.65 16.796c-1.21 2.35.45 3.686-2.152 3.33-6.043-.82-12.32-2.403-18.4-5.13V192.2c0-5.3 4.265-9.6 9.526-9.6v-8.753H81.122c-20.502 0-37.122 16.75-37.122 37.41V221h92.455L145 208.012z" fill="#ff7166"/><path d="M99.985 216.718l-10.422-8.213c-.588-.464-.74-1.34-.34-1.952s1.202-.735 1.8-.27l10.423 8.213c.588.465.74 1.34.34 1.952s-1.2.735-1.79.27z" class="J"/><path d="M67.022 187.298c.117-5.132 2.464-9.146 4.837-12.298C55.84 179.136 44 193.8 44 211.254V221h55c-12.21-8.8-32.33-18.285-31.978-33.702z" class="E"/><path d="M135.544 221L144 208.012s-.437-22.306-6.778-26.823c-2.907-2.073-4.987-5.985-6.386-9.614L125.84 157H123c.216 6.717 1.59 13.78 4.21 17.974 1.158 1.853 3.2 4.843 4.81 9.56.227.674 2.036 6.145 2.06 12.828.034 8.672-2.946 16.693-5.58 23.637h7.044z" class="K"/></g><mask id="BC" mask-type="alpha" maskUnits="userSpaceOnUse" x="116" y="206" width="31" height="30"><path d="M116.085 206.077h30.834v29.844h-30.834v-29.844z" class="B C"/></mask><g mask="url(#BC)" class="B J"><path d="M146.633 221c-1.624 8.24-9.716 14.92-18.072 14.92s-13.813-6.68-12.2-14.92 9.716-14.923 18.072-14.923 13.814 6.682 12.2 14.923z"/></g><g class="B"><path d="M141.815 221c-1.053 5.523-6.302 10-11.723 10s-8.96-4.476-7.906-10 6.3-10 11.722-10 8.96 4.477 7.907 10z" fill="#435070"/><path d="M136.907 221c-.527 2.76-3.15 5-5.862 5s-4.48-2.24-3.952-5 3.15-5 5.86-5 4.48 2.24 3.953 5z" class="C"/><path d="M150 210.618c-4.498-9.886-16.27-14.323-26.733-9.912S107.513 216.746 111.14 227L150 210.618zM90.33 221H52.67a1.67 1.67 0 0 1-1.67-1.669c0-9.57 7.767-17.33 17.35-17.33h6.303c9.58 0 17.35 7.76 17.35 17.33A1.67 1.67 0 0 1 90.329 221z" class="K"/><path d="M80 181h26v-6H80v6zm47.32-22h-6.642c-.375 0-.68-.448-.68-1s.304-1 .68-1h6.642c.375 0 .68.45.68 1s-.304 1-.68 1z" class="J"/><path d="M143 165c0 4.418-1.713 8-3.826 8S127 169.418 127 165s10.06-8 12.174-8 3.826 3.583 3.826 8z" class="K"/><path d="M143 167.086c-1.188.57-2.822 1.426-5.1 1.423-3.185-.005-5.6-1.682-7.323-2.88-1.182-.82-2.173-1.726-3.006-2.628-.358.596-.57 1.22-.57 1.86 0 4.497 10.154 8.14 12.287 8.14 1.765 0 3.253-2.5 3.713-5.914z" class="E"/><path d="M143 165c0 4.418-1.12 8-2.5 8s-2.5-3.582-2.5-8 1.12-8 2.5-8 2.5 3.583 2.5 8z" class="L"/><path d="M136 161.5c0 .827-1.12 1.5-2.5 1.5s-2.5-.672-2.5-1.5 1.12-1.5 2.5-1.5 2.5.672 2.5 1.5zm-4 2.5c0 .55-.672 1-1.5 1s-1.5-.45-1.5-1 .67-1 1.5-1 1.5.45 1.5 1z" fill="#ff6c32"/><path d="M133.92 159l-1.92-8.983.08-.017 1.92 8.982-.08.018z" class="M"/><path d="M133 150.5c0 2.486-.895 4.5-2 4.5s-2-2.014-2-4.5.896-4.5 2-4.5 2 2.015 2 4.5z" class="L"/><path d="M137.908 202.815c.643 1.994-2.152 4.813-6.243 6.296s-7.93 1.068-8.573-.927 2.152-4.812 6.243-6.296 7.93-1.067 8.573.927zm-51.032 4.737c.747 1.878-1.95 4.72-6.025 6.348s-7.98 1.425-8.727-.452 1.95-4.72 6.025-6.348 7.98-1.425 8.727.452zm40.094 5.255c.215.885-.718 2.14-2.08 2.797s-2.643.476-2.857-.4.716-2.14 2.08-2.8 2.643-.473 2.857.413z" fill="#ff6c32"/><path d="M79 179h28v-6H79v6z" class="K"/><path d="M139.98 165.225c-1.32-1.924-1.326-4.297-1.097-6.225-.534 1.2-.882 3.166-.882 5.39 0 3.653.938 6.61 2.095 6.61.846 0 1.576-1.588 1.905-3.874-.615-.435-1.364-.945-2.02-1.9z" fill="#dfecf5"/><path d="M95.956 177.25l4.84 1.75H107v-6H86c1.795 1.232 5.24 2.506 9.956 4.25z" class="E"/><g class="N"><path d="M89.452 152s16.916 11.675 25.93 18.587c8.115 6.222-3.197 5.044-26.168 1.497-4.568-.705-5.21-10.632-2.944-14.566L89.452 152z"/><path d="M110.324 174.546s-5.438.822-8.11 9.248S95 202.98 95 202.98l2.81 2.02s10.82-13.552 15.135-20.798c0 0 3.48-2.008 4.7-6.266 1.1-3.84-.437-4.854-3.378-6.936l-3.942 3.546z"/></g><path d="M94 204.393L95.4 202l2.6 1.86-.987 1.392-1.42 1.747L94 204.393z" class="I"/><path d="M94.33 204s-2.67 1.665-3.33 3.367l7.155 5.82c2.976 2.72 6.05 2.144 4.368-.18s-4.7-7.616-4.7-7.616-1.822 1.987-3.493-1.39z" class="N"/><path d="M97.084 207.693L97 207.64c1.06-.56 2-.245 2-.24l-.063.062c-.036-.012-.864-.3-1.853.233zm1 1L98 208.64c1.06-.56 2-.245 2-.242l-.063.063c-.036-.012-.866-.3-1.853.233zm-2-2L96 206.64c1.06-.56 2-.245 2-.242l-.063.063c-.036-.013-.864-.3-1.853.233z" class="M"/><path d="M88.16 155.3c-.81.96 1.48 5.226 5.634 6.37 2.57.707 5.947.25 6.19-.826.05-.215-.035-.467-.213-.738l-4.83-3.292c-2.908-1.373-6.114-2.305-6.78-1.515z" fill="#9fbfd4"/><path d="M102.29 212.598c-.82.224-1.56.972-2.083 1.27-.952.536-6.658-6.033-6.658-6.033-.16-1.157-.595-2.156-.963-2.834-.652.608-1.303 1.353-1.587 2.106l7.154 6.02c2.977 2.812 6.05 2.217 4.37-.188l-.232-.34z" class="L"/><path d="M109.05 139.458s1.57-1.928.708-2.938c-.505-.594-.71-1.574-.426-2.294.7-1.765 1.5-3.543 2.726-4.512L113 123s-3.966 3.326-7.563 7.404c-1.14 1.3-2.64.958-3.32.943-1.472-.032-2.715 8.417 4.713 8.437l.095-.001c1.498-.012.232.67 2.126-.325z" class="I"/><path d="M108.978 135l.026-.092c.017-.15.053-.298.116-.433l.88-1.71-1.365-2.766s-1.636 3.176.343 5z" fill="#de9066"/><g class="E"><path d="M107.864 141.556s-.36 4.993-3.442 10.127c-1.53 2.556-2.388 4.048-3.848 8.276 0 0-.765.99-2.422 1.04-3.326.085-6.838-2.484-9.226-4.74-.44-.43-.835-.837-1.194-1.22-.452-.49-.823-.92-1.113-1.277-.185-.24-.336-.442-.44-.586-.14-.19-.197-.3-.174-.323 2.735-2.352 4.335-9.124 4.335-9.124 1.472-4.047 1.402-6.292 6.676-10.962.08-.072.243-.204.475-.346.174-.11.383-.24.614-.36.174-.108.382-.214.59-.3a7.03 7.03 0 0 1 .626-.274c.556-.227 1.16-.408 1.727-.455.104-.012.197-.023.3-.023h.058c.313 0 .614.035.892.118 0 0 2.19 1.84 5.24 3.655 1.008.895 1.09 1.517 1.09 1.517 1.183 1.66-.753 5.266-.753 5.266z"/><path d="M86.3 153.255l.38.5-.38-.5z"/></g><path d="M104 152.476l-.53-2.33c-1.49-5.486-4.988-10.52-6.07-10.125-.958.352.047 4.94.53 6.775.974 3.682 2.766 7.276 4.202 9.203.624-1.402 1.193-2.428 1.868-3.524z" fill="#b5261c"/><path d="M89.942 158c-2.32 0-4.432-.81-5.942-2.337l.24-.242c2.027 2.054 5.195 2.75 8.472 1.86 4.123-1.12 9.262-5.14 11.325-13.056 1.068-4.102.764-7.432-.903-9.896-2.336-3.447-6.602-3.984-6.644-4l.04-.338c.043.005 4.457.556 6.882 4.134 1.728 2.548 2.048 5.973.953 10.177-2.1 8.057-7.35 12.15-11.565 13.296a10.84 10.84 0 0 1-2.857.393z" fill="#ede92f"/><path d="M116 126.035s-.02 8.51-3.952 7.937c-4.865-.71-6.095-7.492-6.046-11.186.026-1.762 1.77-2.238 3.56-2.655 2.785-.647 6.518 1.064 6.438 5.904z" class="I"/><path d="M115.57 120.873c-1.004-1.8-3.713-3.07-6.584-2.847s-4.72 2.232-4.956 4.865c-.384 4.28 3 5.105 3 5.105s3.102.337 4.857-4.9c4.113 1.162 4.686-.412 3.682-2.223z" class="G"/><path d="M115.987 127s.45 2.034.865 2.773.01 1.284-1.852 1.222m-8.64-1.102c.538.988 1.485 1.4 2.115.896s.703-1.695.165-2.684-1.485-1.387-2.114-.894-.705 1.695-.166 2.682zm-7.6 4.422c-.86.523-.96 2.973-.447 4.07 1.402 3 3.88 15.705 5.75 17.198 2.124 1.695 9.54 1.398 13.115 1.393l.822-2.12s-8.933-2.613-11.098-2.4c0 0-2.992-21.273-8.142-18.14z" class="I"/><path d="M102.556 135.946c1.26 3.634 3.444 11.085 3.444 11.085s-4.072 1.594-6.612.693l-4.076-10.167a4.35 4.35 0 0 1 1.503-5.153c1.994-1.43 4.936 1.223 5.74 3.542zm2.49-5.946l2.953 5.2-2.575 1.8-3.425-5.393 3.047-1.607zm3.63 5l-.675.615.16 2.385.835-.493-.32-2.507z" class="E"/><path d="M108.428 134.244l.264.228-.38.284s-.033-.08.117-.512zM107.87 138l-.006-.063-.185-2.05-2.232 1.584-.025-.038-3.422-5.4.073-.043 3.397 5.353 2.28-1.618.192 2.13 1.016-.555.04.07-1.13.62z" class="M"/><path d="M120.885 156s4.938.754 4.978 1.122S126 161 126 161s-1.202.158-2.184-2.9c0 0-4.68 1.18-7.816.077l1.384-2.045 3.5-.12z" class="I"/><path d="M116.994 121.156c.206-2.577-4.83-4.432-7.787-4.122s-4.886 2.742-5.166 5.9c-.455 5.13 3.016 6.067 3.016 6.067s1.38-.413 3.26-6.708c4.214 1.33 6.485 1.267 6.678-1.136z" class="N"/><path d="M106.088 119.84c.104-1.277 1.067-2.195 1.91-2.84-2.838.562-4.67 2.895-4.952 5.865-.495 5.187 3.27 6.135 3.27 6.135s1.095-.307 2.685-4.37c-.864-1.618-3.08-2.73-2.912-4.8z" fill="#578723"/><g fill="#f7ebd5"><use xlink:href="#BK"/><path d="M107.973 123.73c-.082.215-.325.323-.543.242l-3.158-1.17c-.218-.082-.326-.32-.245-.534s.325-.322.542-.24l3.158 1.17c.218.08.328.32.246.533z"/><use xlink:href="#BK" x="1" y="-1"/></g><path d="M105.438 180.656c-1.9 3.595-1.745 4.94-2.928 7.38-.956 1.976-2.282 3.62-3.692 4.964 1.195-3.118 2.462-6.607 3.477-9.774 1.482-4.666 3.812-6.987 5.592-8.143-4.755-.488-11.076-1.415-18.676-2.62-4.564-.713-5.2-10.856-2.94-14.88L87.73 155a39.26 39.26 0 0 0 1.231 1.215c-1.267 4.262-1.494 8.072.3 10.548.765 1.07 1.948 1.63 4.302 2.75 8.448 4.012 15.414 1.226 16.358 3.594.55 1.394-1.77 2.442-4.48 7.55z" fill="#578723"/><path d="M89.933 159L65 151.487 74.067 121 99 128.513 89.933 159z" class="O"/><path d="M90.586 144.114a8.5 8.5 0 0 1-10.699 5.472 8.5 8.5 0 0 1-5.472-10.7 8.5 8.5 0 0 1 10.699-5.472 8.5 8.5 0 0 1 5.472 10.7z" class="L"/><path d="M85.357 145.938l-7.452-2.34c-.686-.215-1.063-.93-.84-1.597L87 145.122c-.22.666-.957 1.03-1.643.816z" class="O"/><path d="M86.698 143.957l-8.008-2.26c-.522-.147-.81-.637-.64-1.095s.73-.707 1.254-.558l8.007 2.26c.523.148.81.638.642 1.094s-.73.71-1.254.56z" class="E"/></g><mask id="BD" mask-type="alpha" maskUnits="userSpaceOnUse" x="78" y="139" width="11" height="6"><use xlink:href="#BL" class="B C"/></mask><g mask="url(#BD)" class="B G"><path d="M80.104 142.59l-.737.203-.944-3.92.737-.203.944 3.92z"/></g><mask id="BE" mask-type="alpha" maskUnits="userSpaceOnUse" x="78" y="139" width="11" height="6"><use xlink:href="#BL" class="B C"/></mask><g mask="url(#BE)" class="B G"><path d="M82.005 143.248l-.737.203-.944-3.92.736-.205.945 3.92z"/></g><mask id="BF" mask-type="alpha" maskUnits="userSpaceOnUse" x="78" y="139" width="11" height="6"><use xlink:href="#BL" class="B C"/></mask><g mask="url(#BF)" class="B G"><path d="M83.905 143.906l-.737.203-.944-3.92.736-.203.945 3.92z"/></g><mask id="BG" mask-type="alpha" maskUnits="userSpaceOnUse" x="78" y="139" width="11" height="6"><use xlink:href="#BL" class="B C"/></mask><g mask="url(#BG)" class="B G"><path d="M85.805 144.565l-.737.203-.944-3.92.737-.203.944 3.92z"/></g><mask id="BH" mask-type="alpha" maskUnits="userSpaceOnUse" x="78" y="139" width="11" height="6"><use xlink:href="#BL" class="B C"/></mask><g mask="url(#BH)" class="B G"><path d="M87.705 145.222l-.737.203-.944-3.92.737-.204.944 3.92z"/></g><g class="B"><path d="M87.987 143.876c.768-2.728-.905-5.627-3.826-6.55s-6.013.47-7.024 3.12l10.85 3.43z" class="O"/><path d="M86.89 141.733c-.367.325-1.18.027-1.82-.662s-.856-1.512-.49-1.837 1.18-.026 1.82.664.856 1.512.49 1.835z" fill="#ffc94b"/><path d="M123.365 218.5c-4.475-3.077-5.565-8.552-6.034-13.325-6.152 5.497-8.673 13.987-5.826 21.688l16.218-6.54c-1.516-.314-2.99-.882-4.358-1.822z" class="E"/></g><defs ><path id="BJ" d="M53.828 205.003L5.448 245.07c-2.522 2.088-1.07 6.16 2.216 6.212l284.43 4.418c1.09.016 2.13-.467 2.815-1.31l32.742-40.31c1.852-2.28.247-5.672-2.703-5.718L56.1 204.187c-.83 0-1.635.288-2.273.816z"/><path id="BK" d="M107.973 124.73c-.082.213-.325.323-.542.243l-3.16-1.173a.41.41 0 0 1-.245-.533c.082-.213.325-.323.543-.24l3.158 1.17c.217.08.327.32.245.533z"/><path id="BL" d="M78.134 140.087c-.178.59.124 1.22.674 1.41l8.416 2.914c.55.19 1.14-.134 1.316-.723s-.125-1.22-.673-1.4l-8.416-2.914c-.106-.036-.215-.053-.322-.053-.442 0-.852.3-.995.775z"/></defs></svg>