<svg width="17" height="20" viewBox="0 0 17 20" fill="none" xmlns="http://www.w3.org/2000/svg">
<path fill-rule="evenodd" clip-rule="evenodd" d="M8.5 1.00576e-08C4.11278 -0.000215981 0.543872 3.47863 0.5 7.79813C0.5 13.1938 7.55 19.1999 7.85 19.4559C8.22422 19.7711 8.77578 19.7711 9.15 19.4559C9.5 19.1999 16.5 13.1938 16.5 7.79813C16.4561 3.47863 12.8872 -0.000215981 8.5 1.00576e-08ZM8.5 17.3784C6.83 15.8129 2.5 11.4707 2.5 7.79813C2.5 4.53541 5.18629 1.89046 8.5 1.89046C11.8137 1.89046 14.5 4.53541 14.5 7.79813C14.5 11.4412 10.17 15.8129 8.5 17.3784ZM5 7.38459C5 5.48134 6.567 3.93845 8.5 3.93845C10.433 3.93845 12 5.48134 12 7.38459C12 9.28784 10.433 10.8307 8.5 10.8307C6.567 10.8307 5 9.28784 5 7.38459ZM7 7.38459C7 8.20027 7.67157 8.86151 8.5 8.86151C9.32843 8.86151 10 8.20027 10 7.38459C10 6.56891 9.32843 5.90767 8.5 5.90767C7.67157 5.90767 7 6.56891 7 7.38459Z" fill="#C5CEE0"/>
</svg>
