<svg width="14" height="16" viewBox="0 0 14 16" fill="none" xmlns="http://www.w3.org/2000/svg">
<path fill-rule="evenodd" clip-rule="evenodd" d="M0.00170209 2.12625L0.139784 15.1141C0.139784 15.6034 0.551925 16 1.06033 16C1.22517 15.99 1.3856 15.9446 1.5298 15.8671L6.39947 13.0055L11.6466 15.8051C11.9314 15.9634 12.2823 15.9634 12.5671 15.8051C12.8495 15.644 13.0214 15.3503 13.0182 15.0343L12.8893 2.04651C12.8992 1.51312 12.6884 0.997812 12.3034 0.613998C11.9184 0.230185 11.3907 0.00931623 10.8365 0L2.00849 0.0442968C1.45495 0.0627301 0.931895 0.292832 0.555212 0.683624C0.178529 1.07442 -0.020686 1.59363 0.00170209 2.12625ZM6.82276 11.1892C6.6801 11.1195 6.52245 11.0831 6.36249 11.0828C6.19762 11.0854 6.0361 11.128 5.89301 11.2069L1.95309 13.5369L1.84263 2.10832C1.84263 1.93113 1.94389 1.81596 2.01753 1.81596L10.8547 1.73622C10.9284 1.72736 11.0481 1.8514 11.0481 2.02858L11.1585 13.5014L6.82276 11.1892Z" fill="#C5CEE0"/>
</svg>
