<svg width="17" height="21" viewBox="0 0 17 21" fill="none" xmlns="http://www.w3.org/2000/svg">
<path d="M4.71879 15.3186C4.71879 14.7715 4.31601 14.3281 3.77368 14.3281C3.23135 14.3281 2.82733 14.7715 2.82733 15.3186V16.309C2.82733 18.4971 4.45812 20.2709 6.62744 20.2709H12.7312C14.9005 20.2709 16.5385 18.4971 16.5385 16.309V4.42333C16.5385 2.23523 14.7799 0.461426 12.6106 0.461426H6.62744C4.45812 0.461426 2.82733 2.23523 2.82733 4.42333V5.41381C2.82733 5.96084 3.22454 6.40429 3.76686 6.40429C4.30919 6.40429 4.74883 5.96084 4.74883 5.41381V4.42333C4.74883 3.32928 5.54278 2.3531 6.62744 2.3531L12.7312 2.39107C13.8158 2.39107 14.6653 3.32928 14.6653 4.42333V16.309C14.6653 17.4031 13.8158 18.368 12.7312 18.368H6.62744C5.54278 18.368 4.71879 17.4031 4.71879 16.309V15.3186Z" fill="#C5CEE0"/>
<path d="M12.9415 9.65308L12.9548 9.66581C13.3597 10.0526 13.3597 10.6798 12.9548 11.0666L9.84438 14.038C9.43948 14.4248 8.783 14.4248 8.3781 14.038C7.97319 13.6512 7.97319 13.024 8.3781 12.6372L10.1768 10.9189H1.52893C0.981904 10.9189 0.538452 10.4755 0.538452 9.92843C0.538452 9.38141 0.981905 8.93796 1.52893 8.93796H9.26036L8.3781 8.09513C7.97319 7.70833 7.97319 7.08119 8.3781 6.69439C8.783 6.30758 9.43948 6.30758 9.84438 6.69439L12.2214 8.96519C12.5677 9.04815 12.8433 9.313 12.9415 9.65308Z" fill="#C5CEE0"/>
<path d="M4.71879 15.3186C4.71879 14.7715 4.31601 14.3281 3.77368 14.3281C3.23135 14.3281 2.82733 14.7715 2.82733 15.3186V16.309C2.82733 18.4971 4.45812 20.2709 6.62744 20.2709H12.7312C14.9005 20.2709 16.5385 18.4971 16.5385 16.309V4.42333C16.5385 2.23523 14.7799 0.461426 12.6106 0.461426H6.62744C4.45812 0.461426 2.82733 2.23523 2.82733 4.42333V5.41381C2.82733 5.96084 3.22454 6.40429 3.76686 6.40429C4.30919 6.40429 4.74883 5.96084 4.74883 5.41381V4.42333C4.74883 3.32928 5.54278 2.3531 6.62744 2.3531L12.7312 2.39107C13.8158 2.39107 14.6653 3.32928 14.6653 4.42333V16.309C14.6653 17.4031 13.8158 18.368 12.7312 18.368H6.62744C5.54278 18.368 4.71879 17.4031 4.71879 16.309V15.3186Z" fill="#C5CEE0"/>
<path d="M12.9415 9.65308L12.9548 9.66581C13.3597 10.0526 13.3597 10.6798 12.9548 11.0666L9.84438 14.038C9.43948 14.4248 8.783 14.4248 8.3781 14.038C7.97319 13.6512 7.97319 13.024 8.3781 12.6372L10.1768 10.9189H1.52893C0.981904 10.9189 0.538452 10.4755 0.538452 9.92843C0.538452 9.38141 0.981905 8.93796 1.52893 8.93796H9.26036L8.3781 8.09513C7.97319 7.70833 7.97319 7.08119 8.3781 6.69439C8.783 6.30758 9.43948 6.30758 9.84438 6.69439L12.2214 8.96519C12.5677 9.04815 12.8433 9.313 12.9415 9.65308Z" fill="#C5CEE0"/>
</svg>
