<svg width="16" height="19" viewBox="0 0 16 19" fill="none" xmlns="http://www.w3.org/2000/svg">
<path fill-rule="evenodd" clip-rule="evenodd" d="M15.581 12.0749L13.9794 10.4201V6.34266C14.0235 3.21175 11.8132 0.527163 8.80082 0.0527843C7.09042 -0.178647 5.36586 0.357915 4.06775 1.52538C2.76965 2.69285 2.02373 4.37814 2.02058 6.15067V10.4201L0.418951 12.0749C0.00765402 12.5045 -0.113313 13.1454 0.111863 13.7018C0.337038 14.2583 0.86459 14.6222 1.45111 14.6255H4.44082V14.9364C4.52736 16.8688 6.11899 18.3651 8 18.2824C9.88101 18.3651 11.4726 16.8688 11.5592 14.9364V14.6255H14.5489C15.1354 14.6222 15.663 14.2583 15.8881 13.7018C16.1133 13.1454 15.9923 12.5045 15.581 12.0749ZM9.77959 14.9364C9.67707 15.85 8.89283 16.5188 8 16.454C7.10718 16.5188 6.32293 15.85 6.22041 14.9364V14.6255H9.77959V14.9364ZM2.22523 12.7971L3.27519 11.7183C3.61157 11.3747 3.80055 10.9074 3.80017 10.4201V6.15067C3.80115 4.90292 4.32664 3.71643 5.24164 2.89603C6.14462 2.0554 7.36121 1.66436 8.56947 1.82638C10.6971 2.18133 12.2454 4.09193 12.1998 6.30609V10.4201C12.1971 10.9061 12.3828 11.3732 12.7159 11.7183L13.7748 12.7971H2.22523Z" fill="#C5CEE0"/>
</svg>
