<svg width="16" height="12" viewBox="0 0 16 12" fill="none" xmlns="http://www.w3.org/2000/svg">
<path fill-rule="evenodd" clip-rule="evenodd" d="M13.6 0H2.4C1.07452 0 0 1.07452 0 2.4V8.8C0 10.1255 1.07452 11.2 2.4 11.2H13.6C14.9255 11.2 16 10.1255 16 8.8V2.4C16 1.07452 14.9255 0 13.6 0ZM1.6 2.4C1.6 1.95817 1.95817 1.6 2.4 1.6H13.6C14.0418 1.6 14.4 1.95817 14.4 2.4V3.2H1.6V2.4ZM14.4 8.8C14.4 9.24183 14.0418 9.6 13.6 9.6H2.4C1.95817 9.6 1.6 9.24183 1.6 8.8V4.8H14.4V8.8ZM4 8H7.2C7.64183 8 8 7.64183 8 7.2C8 6.75817 7.64183 6.4 7.2 6.4H4C3.55817 6.4 3.2 6.75817 3.2 7.2C3.2 7.64183 3.55817 8 4 8ZM10.4 8H12C12.4418 8 12.8 7.64183 12.8 7.2C12.8 6.75817 12.4418 6.4 12 6.4H10.4C9.95817 6.4 9.6 6.75817 9.6 7.2C9.6 7.64183 9.95817 8 10.4 8Z" fill="#C5CEE0"/>
</svg>
