<svg width="16" height="14" viewBox="0 0 16 14" fill="none" xmlns="http://www.w3.org/2000/svg">
<path fill-rule="evenodd" clip-rule="evenodd" d="M14.4 2.94737H12V1.47368C12 0.663158 11.28 0 10.4 0H5.6C4.72 0 4 0.663158 4 1.47368V2.94737H1.6C0.72 2.94737 0 3.61053 0 4.42105V12.5263C0 13.3368 0.72 14 1.6 14H14.4C15.28 14 16 13.3368 16 12.5263V4.42105C16 3.61053 15.28 2.94737 14.4 2.94737ZM5.6 1.47368H10.4V2.94737H5.6V1.47368ZM14.4 12.5263H1.6V11.0526H14.4V12.5263ZM14.4 8.8421H1.6V4.42105H4V5.89474H5.6V4.42105H10.4V5.89474H12V4.42105H14.4V8.8421Z" fill="#C5CEE0"/>
</svg>
