<svg width="111" height="150" viewBox="0 0 111 150" fill="none" xmlns="http://www.w3.org/2000/svg">
<path d="M0.0419922 55.207C0.0419922 9.74404 9.78603 0 55.249 0C100.712 0 110.456 9.74404 110.456 55.207C110.456 100.67 100.712 110.414 55.249 110.414C9.78603 110.414 0.0419922 100.67 0.0419922 55.207Z" fill="#FA6400"/>
<path d="M0.0419922 55.207C0.0419922 9.74404 9.78603 0 55.249 0C100.712 0 110.456 9.74404 110.456 55.207C110.456 100.67 100.712 110.414 55.249 110.414C9.78603 110.414 0.0419922 100.67 0.0419922 55.207Z" fill="url(#paint0_linear_1292_16815)" fill-opacity="0.5"/>
<path d="M81.1892 27C89.1673 27 94.1689 35.6187 90.2107 42.5456C88.3607 45.783 84.9179 47.7809 81.1892 47.7809H49.8133C46.5342 47.7809 43.8759 50.4392 43.8759 53.7183C43.8759 56.9975 46.5342 59.6558 49.8133 59.6558H62.3529C70.3606 59.6558 75.3586 68.3324 71.341 75.2593C69.4822 78.4641 66.0577 80.4367 62.3529 80.4367L52.611 80.4367C46.9295 80.4367 36.7631 85.507 36.7631 85.507L28.2744 90.163C25.4297 91.7233 22.1464 88.6097 23.095 85.507V85.507C26.5889 74.0796 23.095 70.3213 23.095 54.9081C23.095 39.4949 35.5899 27 51.0031 27H81.1892Z" fill="#FA6400"/>
<path d="M81.1892 27C89.1673 27 94.1689 35.6187 90.2107 42.5456C88.3607 45.783 84.9179 47.7809 81.1892 47.7809H49.8133C46.5342 47.7809 43.8759 50.4392 43.8759 53.7183C43.8759 56.9975 46.5342 59.6558 49.8133 59.6558H62.3529C70.3606 59.6558 75.3586 68.3324 71.341 75.2593C69.4822 78.4641 66.0577 80.4367 62.3529 80.4367L52.611 80.4367C46.9295 80.4367 36.7631 85.507 36.7631 85.507L28.2744 90.163C25.4297 91.7233 22.1464 88.6097 23.095 85.507V85.507C26.5889 74.0796 23.095 70.3213 23.095 54.9081C23.095 39.4949 35.5899 27 51.0031 27H81.1892Z" fill="url(#paint1_linear_1292_16815)" fill-opacity="0.5"/>
<path d="M81.1892 27C89.1673 27 94.1689 35.6187 90.2107 42.5456C88.3607 45.783 84.9179 47.7809 81.1892 47.7809H49.8133C46.5342 47.7809 43.8759 50.4392 43.8759 53.7183C43.8759 56.9975 46.5342 59.6558 49.8133 59.6558H62.3529C70.3606 59.6558 75.3586 68.3324 71.341 75.2593C69.4822 78.4641 66.0577 80.4367 62.3529 80.4367L52.611 80.4367C46.9295 80.4367 36.7631 85.507 36.7631 85.507L28.2744 90.163C25.4297 91.7233 22.1464 88.6097 23.095 85.507V85.507C26.5889 74.0796 23.095 70.3213 23.095 54.9081C23.095 39.4949 35.5899 27 51.0031 27H81.1892Z" fill="white"/>
<path d="M10.0237 127.948C10.7974 127.948 11.2546 128.053 11.5008 128.124V124.185C11.1139 124.009 10.1643 123.833 9.17955 123.833C5.34595 123.833 2.884 126.365 2.884 130.269V132.239H0V136.248H2.884V149.543H7.59687V136.248H11.5008V132.239H7.59687V130.34C7.59687 128.405 8.96853 127.948 10.0237 127.948Z" fill="#222B45"/>
<path d="M10.0237 127.948C10.7974 127.948 11.2546 128.053 11.5008 128.124V124.185C11.1139 124.009 10.1643 123.833 9.17955 123.833C5.34595 123.833 2.884 126.365 2.884 130.269V132.239H0V136.248H2.884V149.543H7.59687V136.248H11.5008V132.239H7.59687V130.34C7.59687 128.405 8.96853 127.948 10.0237 127.948Z" fill="url(#paint2_linear_1292_16815)" fill-opacity="0.4"/>
<path d="M10.0237 127.948C10.7974 127.948 11.2546 128.053 11.5008 128.124V124.185C11.1139 124.009 10.1643 123.833 9.17955 123.833C5.34595 123.833 2.884 126.365 2.884 130.269V132.239H0V136.248H2.884V149.543H7.59687V136.248H11.5008V132.239H7.59687V130.34C7.59687 128.405 8.96853 127.948 10.0237 127.948Z" fill="white"/>
<path d="M22.9838 149.543H27.4505C27.3801 148.945 27.2746 147.749 27.2746 146.413V132.239H22.5969V142.298C22.5969 144.302 21.4011 145.709 19.326 145.709C17.1454 145.709 16.1607 144.162 16.1607 142.227V132.239H11.483V143.177C11.483 146.94 13.8746 150 18.0599 150C19.8888 150 21.8935 149.297 22.8431 147.679C22.8431 148.382 22.9134 149.191 22.9838 149.543Z" fill="#222B45"/>
<path d="M22.9838 149.543H27.4505C27.3801 148.945 27.2746 147.749 27.2746 146.413V132.239H22.5969V142.298C22.5969 144.302 21.4011 145.709 19.326 145.709C17.1454 145.709 16.1607 144.162 16.1607 142.227V132.239H11.483V143.177C11.483 146.94 13.8746 150 18.0599 150C19.8888 150 21.8935 149.297 22.8431 147.679C22.8431 148.382 22.9134 149.191 22.9838 149.543Z" fill="url(#paint3_linear_1292_16815)" fill-opacity="0.4"/>
<path d="M22.9838 149.543H27.4505C27.3801 148.945 27.2746 147.749 27.2746 146.413V132.239H22.5969V142.298C22.5969 144.302 21.4011 145.709 19.326 145.709C17.1454 145.709 16.1607 144.162 16.1607 142.227V132.239H11.483V143.177C11.483 146.94 13.8746 150 18.0599 150C19.8888 150 21.8935 149.297 22.8431 147.679C22.8431 148.382 22.9134 149.191 22.9838 149.543Z" fill="white"/>
<path d="M45.8794 124.079H41.272V133.962C40.7796 133.048 39.3728 131.817 36.3833 131.817C31.4945 131.817 28.083 135.791 28.083 140.856C28.083 146.096 31.6001 149.965 36.524 149.965C38.8452 149.965 40.6038 148.91 41.3775 147.538C41.3775 148.347 41.483 149.191 41.5534 149.543H46.02C45.9497 148.839 45.8794 147.573 45.8794 146.413V124.079ZM32.7959 140.856C32.7959 137.761 34.6951 136.002 37.0867 136.002C39.4783 136.002 41.3423 137.725 41.3423 140.82C41.3423 143.951 39.4783 145.78 37.0867 145.78C34.6247 145.78 32.7959 143.951 32.7959 140.856Z" fill="#222B45"/>
<path d="M45.8794 124.079H41.272V133.962C40.7796 133.048 39.3728 131.817 36.3833 131.817C31.4945 131.817 28.083 135.791 28.083 140.856C28.083 146.096 31.6001 149.965 36.524 149.965C38.8452 149.965 40.6038 148.91 41.3775 147.538C41.3775 148.347 41.483 149.191 41.5534 149.543H46.02C45.9497 148.839 45.8794 147.573 45.8794 146.413V124.079ZM32.7959 140.856C32.7959 137.761 34.6951 136.002 37.0867 136.002C39.4783 136.002 41.3423 137.725 41.3423 140.82C41.3423 143.951 39.4783 145.78 37.0867 145.78C34.6247 145.78 32.7959 143.951 32.7959 140.856Z" fill="url(#paint4_linear_1292_16815)" fill-opacity="0.4"/>
<path d="M45.8794 124.079H41.272V133.962C40.7796 133.048 39.3728 131.817 36.3833 131.817C31.4945 131.817 28.083 135.791 28.083 140.856C28.083 146.096 31.6001 149.965 36.524 149.965C38.8452 149.965 40.6038 148.91 41.3775 147.538C41.3775 148.347 41.483 149.191 41.5534 149.543H46.02C45.9497 148.839 45.8794 147.573 45.8794 146.413V124.079ZM32.7959 140.856C32.7959 137.761 34.6951 136.002 37.0867 136.002C39.4783 136.002 41.3423 137.725 41.3423 140.82C41.3423 143.951 39.4783 145.78 37.0867 145.78C34.6247 145.78 32.7959 143.951 32.7959 140.856Z" fill="white"/>
<path d="M52.8179 139.378C52.9234 137.479 54.084 136.002 56.0536 136.002C58.3045 136.002 59.2541 137.514 59.2541 139.449V149.543H63.9318V138.64C63.9318 134.841 61.8919 131.782 57.4956 131.782C55.8426 131.782 53.9433 132.344 52.8179 133.681V124.079H48.1402V149.543H52.8179V139.378Z" fill="#222B45"/>
<path d="M52.8179 139.378C52.9234 137.479 54.084 136.002 56.0536 136.002C58.3045 136.002 59.2541 137.514 59.2541 139.449V149.543H63.9318V138.64C63.9318 134.841 61.8919 131.782 57.4956 131.782C55.8426 131.782 53.9433 132.344 52.8179 133.681V124.079H48.1402V149.543H52.8179V139.378Z" fill="url(#paint5_linear_1292_16815)" fill-opacity="0.4"/>
<path d="M52.8179 139.378C52.9234 137.479 54.084 136.002 56.0536 136.002C58.3045 136.002 59.2541 137.514 59.2541 139.449V149.543H63.9318V138.64C63.9318 134.841 61.8919 131.782 57.4956 131.782C55.8426 131.782 53.9433 132.344 52.8179 133.681V124.079H48.1402V149.543H52.8179V139.378Z" fill="white"/>
<path d="M77.0532 149.543H81.5199C81.4496 148.945 81.3441 147.749 81.3441 146.413V132.239H76.6664V142.298C76.6664 144.302 75.4706 145.709 73.3955 145.709C71.2149 145.709 70.2301 144.162 70.2301 142.227V132.239H65.5524V143.177C65.5524 146.94 67.944 150 72.1293 150C73.9582 150 75.963 149.297 76.9126 147.679C76.9126 148.382 76.9829 149.191 77.0532 149.543Z" fill="#222B45"/>
<path d="M77.0532 149.543H81.5199C81.4496 148.945 81.3441 147.749 81.3441 146.413V132.239H76.6664V142.298C76.6664 144.302 75.4706 145.709 73.3955 145.709C71.2149 145.709 70.2301 144.162 70.2301 142.227V132.239H65.5524V143.177C65.5524 146.94 67.944 150 72.1293 150C73.9582 150 75.963 149.297 76.9126 147.679C76.9126 148.382 76.9829 149.191 77.0532 149.543Z" fill="url(#paint6_linear_1292_16815)" fill-opacity="0.4"/>
<path d="M77.0532 149.543H81.5199C81.4496 148.945 81.3441 147.749 81.3441 146.413V132.239H76.6664V142.298C76.6664 144.302 75.4706 145.709 73.3955 145.709C71.2149 145.709 70.2301 144.162 70.2301 142.227V132.239H65.5524V143.177C65.5524 146.94 67.944 150 72.1293 150C73.9582 150 75.963 149.297 76.9126 147.679C76.9126 148.382 76.9829 149.191 77.0532 149.543Z" fill="white"/>
<path d="M88.2002 139.589C88.2002 137.585 89.396 136.002 91.4359 136.002C93.6868 136.002 94.6364 137.514 94.6364 139.449V149.543H99.3141V138.64C99.3141 134.841 97.3445 131.782 93.0537 131.782C91.1897 131.782 89.1146 132.591 88.0595 134.384V132.239H83.5225V149.543H88.2002V139.589Z" fill="#222B45"/>
<path d="M88.2002 139.589C88.2002 137.585 89.396 136.002 91.4359 136.002C93.6868 136.002 94.6364 137.514 94.6364 139.449V149.543H99.3141V138.64C99.3141 134.841 97.3445 131.782 93.0537 131.782C91.1897 131.782 89.1146 132.591 88.0595 134.384V132.239H83.5225V149.543H88.2002V139.589Z" fill="url(#paint7_linear_1292_16815)" fill-opacity="0.4"/>
<path d="M88.2002 139.589C88.2002 137.585 89.396 136.002 91.4359 136.002C93.6868 136.002 94.6364 137.514 94.6364 139.449V149.543H99.3141V138.64C99.3141 134.841 97.3445 131.782 93.0537 131.782C91.1897 131.782 89.1146 132.591 88.0595 134.384V132.239H83.5225V149.543H88.2002V139.589Z" fill="white"/>
<path d="M107.016 127.069H102.795V129.495C102.795 131.043 101.951 132.239 100.122 132.239H99.2432V136.389H102.373V144.443C102.373 147.784 104.484 149.789 107.86 149.789C109.232 149.789 110.076 149.543 110.498 149.367V145.498C110.252 145.569 109.619 145.639 109.056 145.639C107.719 145.639 107.016 145.146 107.016 143.634V136.389H110.498V132.239H107.016V127.069Z" fill="#222B45"/>
<path d="M107.016 127.069H102.795V129.495C102.795 131.043 101.951 132.239 100.122 132.239H99.2432V136.389H102.373V144.443C102.373 147.784 104.484 149.789 107.86 149.789C109.232 149.789 110.076 149.543 110.498 149.367V145.498C110.252 145.569 109.619 145.639 109.056 145.639C107.719 145.639 107.016 145.146 107.016 143.634V136.389H110.498V132.239H107.016V127.069Z" fill="url(#paint8_linear_1292_16815)" fill-opacity="0.4"/>
<path d="M107.016 127.069H102.795V129.495C102.795 131.043 101.951 132.239 100.122 132.239H99.2432V136.389H102.373V144.443C102.373 147.784 104.484 149.789 107.86 149.789C109.232 149.789 110.076 149.543 110.498 149.367V145.498C110.252 145.569 109.619 145.639 109.056 145.639C107.719 145.639 107.016 145.146 107.016 143.634V136.389H110.498V132.239H107.016V127.069Z" fill="white"/>
<defs>
<linearGradient id="paint0_linear_1292_16815" x1="122.543" y1="-4.71638e-07" x2="-20.0597" y2="120.841" gradientUnits="userSpaceOnUse">
<stop stop-color="#FFB800"/>
<stop offset="1" stop-color="#FFB800" stop-opacity="0"/>
</linearGradient>
<linearGradient id="paint1_linear_1292_16815" x1="99.0939" y1="26.3175" x2="10.8946" y2="101.331" gradientUnits="userSpaceOnUse">
<stop stop-color="#FFB800"/>
<stop offset="1" stop-color="#FFB800" stop-opacity="0"/>
</linearGradient>
<linearGradient id="paint2_linear_1292_16815" x1="46.025" y1="138.662" x2="34.2866" y2="114.772" gradientUnits="userSpaceOnUse">
<stop stop-color="#4C70D7"/>
<stop offset="1" stop-color="#222B45"/>
</linearGradient>
<linearGradient id="paint3_linear_1292_16815" x1="46.025" y1="138.662" x2="34.2866" y2="114.772" gradientUnits="userSpaceOnUse">
<stop stop-color="#4C70D7"/>
<stop offset="1" stop-color="#222B45"/>
</linearGradient>
<linearGradient id="paint4_linear_1292_16815" x1="46.025" y1="138.662" x2="34.2866" y2="114.772" gradientUnits="userSpaceOnUse">
<stop stop-color="#4C70D7"/>
<stop offset="1" stop-color="#222B45"/>
</linearGradient>
<linearGradient id="paint5_linear_1292_16815" x1="46.025" y1="138.662" x2="34.2866" y2="114.772" gradientUnits="userSpaceOnUse">
<stop stop-color="#4C70D7"/>
<stop offset="1" stop-color="#222B45"/>
</linearGradient>
<linearGradient id="paint6_linear_1292_16815" x1="46.025" y1="138.662" x2="34.2866" y2="114.772" gradientUnits="userSpaceOnUse">
<stop stop-color="#4C70D7"/>
<stop offset="1" stop-color="#222B45"/>
</linearGradient>
<linearGradient id="paint7_linear_1292_16815" x1="46.025" y1="138.662" x2="34.2866" y2="114.772" gradientUnits="userSpaceOnUse">
<stop stop-color="#4C70D7"/>
<stop offset="1" stop-color="#222B45"/>
</linearGradient>
<linearGradient id="paint8_linear_1292_16815" x1="46.025" y1="138.662" x2="34.2866" y2="114.772" gradientUnits="userSpaceOnUse">
<stop stop-color="#4C70D7"/>
<stop offset="1" stop-color="#222B45"/>
</linearGradient>
</defs>
</svg>
