<svg width="107" height="100" viewBox="0 0 107 100" fill="none" xmlns="http://www.w3.org/2000/svg">
<path d="M91.1198 0C102.809 0 110.138 12.6281 104.338 22.7774C101.627 27.5209 96.583 30.4483 91.1198 30.4483H45.1478C40.3432 30.4483 36.4483 34.3432 36.4483 39.1478C36.4483 43.9524 40.3432 47.8473 45.1478 47.8473H63.5207C75.2537 47.8473 82.5767 60.5602 76.6901 70.7096C73.9666 75.4052 68.949 78.2955 63.5207 78.2955L49.2469 78.2955C40.9223 78.2955 26.0265 85.7245 26.0265 85.7245L0 100C0 100 4.23184 91.5076 6 85.7245C11.1193 68.9811 6 63.4745 6 40.891C6 18.3075 24.3076 0 46.891 0H91.1198Z" fill="#FA6400"/>
<path d="M91.1198 0C102.809 0 110.138 12.6281 104.338 22.7774C101.627 27.5209 96.583 30.4483 91.1198 30.4483H45.1478C40.3432 30.4483 36.4483 34.3432 36.4483 39.1478C36.4483 43.9524 40.3432 47.8473 45.1478 47.8473H63.5207C75.2537 47.8473 82.5767 60.5602 76.6901 70.7096C73.9666 75.4052 68.949 78.2955 63.5207 78.2955L49.2469 78.2955C40.9223 78.2955 26.0265 85.7245 26.0265 85.7245L0 100C0 100 4.23184 91.5076 6 85.7245C11.1193 68.9811 6 63.4745 6 40.891C6 18.3075 24.3076 0 46.891 0H91.1198Z" fill="url(#paint0_linear_1250_16000)" fill-opacity="0.5"/>
<defs>
<linearGradient id="paint0_linear_1250_16000" x1="117.354" y1="-1.00003" x2="-11.876" y2="108.909" gradientUnits="userSpaceOnUse">
<stop stop-color="#FFB800"/>
<stop offset="1" stop-color="#FFB800" stop-opacity="0"/>
</linearGradient>
</defs>
</svg>
