<svg width="16" height="16" viewBox="0 0 16 16" fill="none" xmlns="http://www.w3.org/2000/svg">
<path fill-rule="evenodd" clip-rule="evenodd" d="M7.18273 3.40388C7.65145 3.92346 7.50284 4.51208 7.0884 5.07059C6.99014 5.203 6.87688 5.33347 6.74009 5.47724C6.67443 5.54625 6.62323 5.59815 6.51614 5.70534C6.27293 5.94879 6.06848 6.15335 5.90278 6.31903C5.82243 6.39938 6.37103 7.49564 7.43572 8.56138C8.49983 9.62653 9.59603 10.1755 9.67677 10.0947L10.2897 9.48147C10.6272 9.1436 10.806 8.98059 11.0516 8.81944C11.5623 8.48443 12.1192 8.39339 12.589 8.81344C14.1227 9.91055 14.9907 10.5838 15.4159 11.0256C16.2452 11.8873 16.1365 13.2138 15.4206 13.9705C15.1723 14.233 14.8575 14.5479 14.4857 14.9063C12.2367 17.1566 7.49027 15.7872 3.85263 12.146C0.214162 8.50392 -1.15452 3.75701 1.08977 1.51152C1.49268 1.10227 1.62553 0.969491 2.01793 0.58284C2.74852 -0.137033 4.13619 -0.24975 4.97976 0.583552C5.42347 1.02187 6.13087 1.93205 7.18273 3.40388ZM11.4205 10.6126L10.8074 11.226C9.76534 12.2686 7.99068 11.3799 6.30484 9.69239C4.61785 8.00374 3.7301 6.22975 4.77251 5.18742C4.93799 5.02196 5.14224 4.81759 5.38526 4.57433C5.48332 4.47618 5.52817 4.43071 5.58201 4.37413C5.65536 4.29704 5.71563 4.22933 5.76389 4.16942C4.83169 2.87088 4.19799 2.05948 3.85638 1.72202C3.67995 1.54774 3.2849 1.57983 3.13987 1.72273C2.75307 2.10386 2.62593 2.23094 2.22464 2.6385C0.781333 4.0826 1.88623 7.91463 4.9835 11.0149C8.07981 14.1143 11.9113 15.2197 13.3655 13.7648C13.7316 13.4118 14.0298 13.1134 14.2594 12.8707C14.4253 12.6954 14.4549 12.3336 14.2641 12.1353C13.9463 11.8051 13.1681 11.1984 11.8245 10.2335C11.7266 10.3123 11.6062 10.4267 11.4205 10.6126Z" fill="white"/>
</svg>
