<svg width="20" height="20" viewBox="0 0 20 20" fill="none" xmlns="http://www.w3.org/2000/svg">
<rect width="20" height="20" rx="10" fill="#18203A"/>
<path d="M13.6894 5.79444C13.2923 5.90471 12.8811 5.95712 12.4688 5.95C11.8593 5.91733 11.2618 5.77026 10.7081 5.51667C10.0241 5.20424 9.2843 5.02864 8.53126 5C6.90564 5 6.28127 5.55556 6.16877 5.63333C6.06002 5.73861 5.99913 5.88294 6.00002 6.03333V14.4444C6.00002 14.7513 6.25186 15 6.56252 15C6.87318 15 7.12502 14.7513 7.12502 14.4444V12.0556C7.57323 11.8861 8.05171 11.8086 8.53126 11.8278C9.14068 11.8604 9.73821 12.0075 10.2919 12.2611C10.9759 12.5735 11.7157 12.7491 12.4688 12.7778C13.1469 12.8031 13.8214 12.6698 14.4375 12.3889C14.7763 12.2317 14.9946 11.8974 15 11.5278V6.72778C14.9996 6.41335 14.847 6.11808 14.5894 5.93333C14.3289 5.74799 13.9946 5.6964 13.6894 5.79444Z" fill="white"/>
</svg>
