<svg width="10" height="10" viewBox="0 0 10 10" fill="none" xmlns="http://www.w3.org/2000/svg">
<path d="M0.27934 9.72066C0.65179 10.0931 1.25565 10.0931 1.6281 9.72066L5 6.34876L8.3719 9.72066C8.74435 10.0931 9.34821 10.0931 9.72066 9.72066C10.0931 9.34821 10.0931 8.74435 9.72066 8.3719L6.34876 5L9.72066 1.6281C10.0931 1.25565 10.0931 0.651788 9.72066 0.279338C9.34821 -0.0931124 8.74435 -0.0931124 8.3719 0.279338L5 3.65124L1.6281 0.279338C1.25565 -0.0931125 0.651788 -0.0931126 0.279337 0.279338C-0.0931124 0.651787 -0.0931127 1.25565 0.279338 1.6281L3.65124 5L0.27934 8.3719C-0.0931096 8.74435 -0.0931103 9.34821 0.27934 9.72066Z" fill="#8F9BB3"/>
<path d="M0.27934 9.72066C0.65179 10.0931 1.25565 10.0931 1.6281 9.72066L5 6.34876L8.3719 9.72066C8.74435 10.0931 9.34821 10.0931 9.72066 9.72066C10.0931 9.34821 10.0931 8.74435 9.72066 8.3719L6.34876 5L9.72066 1.6281C10.0931 1.25565 10.0931 0.651788 9.72066 0.279338C9.34821 -0.0931124 8.74435 -0.0931124 8.3719 0.279338L5 3.65124L1.6281 0.279338C1.25565 -0.0931125 0.651788 -0.0931126 0.279337 0.279338C-0.0931124 0.651787 -0.0931127 1.25565 0.279338 1.6281L3.65124 5L0.27934 8.3719C-0.0931096 8.74435 -0.0931103 9.34821 0.27934 9.72066Z" fill="#8F9BB3"/>
</svg>
