<svg width="10" height="7" viewBox="0 0 10 7" fill="none" xmlns="http://www.w3.org/2000/svg">
<path fill-rule="evenodd" clip-rule="evenodd" d="M3.15273 3.5L0.201364 6.00419C-0.0671214 6.23199 -0.0671214 6.60134 0.201364 6.82915C0.46985 7.05695 0.905151 7.05695 1.17364 6.82915L4.61114 3.91248C4.87962 3.68467 4.87962 3.31533 4.61114 3.08752L1.17364 0.170854C0.905151 -0.0569515 0.46985 -0.0569515 0.201364 0.170854C-0.0671214 0.39866 -0.0671214 0.768006 0.201364 0.995812L3.15273 3.5Z" fill="#FA6400"/>
<path fill-rule="evenodd" clip-rule="evenodd" d="M3.15273 3.5L0.201364 6.00419C-0.0671214 6.23199 -0.0671214 6.60134 0.201364 6.82915C0.46985 7.05695 0.905151 7.05695 1.17364 6.82915L4.61114 3.91248C4.87962 3.68467 4.87962 3.31533 4.61114 3.08752L1.17364 0.170854C0.905151 -0.0569515 0.46985 -0.0569515 0.201364 0.170854C-0.0671214 0.39866 -0.0671214 0.768006 0.201364 0.995812L3.15273 3.5Z" fill="#FA6400"/>
</svg>
