<svg width="12" height="12" viewBox="0 0 12 12" fill="none" xmlns="http://www.w3.org/2000/svg">
<path fill-rule="evenodd" clip-rule="evenodd" d="M3.86413 10.7706C4.44567 11.0842 5.12967 11.2501 5.84206 11.2501H9.0419C9.88167 11.2501 10.5657 10.5683 10.5608 9.80813L11.0226 6.11493C11.0226 5.27703 10.3393 4.59523 9.49883 4.59523H7.82275V3.85603C7.82275 2.92713 7.28275 1.64613 6.37929 1.10993C6.35575 1.09593 6.33152 1.08403 6.3066 1.07283C5.94867 0.920233 5.5499 0.955233 5.23906 1.16453C4.94483 1.36263 4.7759 1.68463 4.7759 2.04793V3.62853L3.36643 5.3008C3.28718 5.26818 3.19953 5.25006 3.10735 5.25006H1.39265C1.03846 5.25006 0.75 5.51861 0.75 5.84986V10.6503C0.75 10.9808 1.03846 11.2501 1.39265 11.2501H3.10735C3.4388 11.2501 3.71166 11.0153 3.74629 10.715L3.86413 10.7706ZM3.75 9.35707L4.40967 9.66883C4.83752 9.89913 5.33667 10.0174 5.84206 10.0174H9.0419C9.20667 10.0174 9.34652 9.88583 9.34652 9.73043L9.80829 6.03653C9.80413 5.95883 9.6636 5.82723 9.49883 5.82723H7.21352C6.87706 5.82723 6.60429 5.55143 6.60429 5.21123V3.85603C6.60429 3.39123 6.35575 2.73323 5.99506 2.36013V3.85603C5.99506 4.00233 5.94313 4.14373 5.84898 4.25503L3.75 6.74509V9.35707ZM2.46471 10.0498H2.03603V6.44964H2.46471V10.0498Z" fill="#C5CEE0"/>
</svg>
