<svg width="29" height="28" viewBox="0 0 29 28" fill="none" xmlns="http://www.w3.org/2000/svg">
<rect x="0.5" width="28" height="28" rx="14" fill="#FA6400"/>
<path d="M14.4 6C13.4722 6 12.72 6.75216 12.72 7.68V12.72H7.68C6.75216 12.72 6 13.4722 6 14.4C6 15.3278 6.75216 16.08 7.68 16.08H12.72V21.12C12.72 22.0478 13.4722 22.8 14.4 22.8C15.3278 22.8 16.08 22.0478 16.08 21.12V16.08H21.12C22.0478 16.08 22.8 15.3278 22.8 14.4C22.8 13.4722 22.0478 12.72 21.12 12.72H16.08V7.68C16.08 6.75216 15.3278 6 14.4 6Z" fill="white"/>
</svg>
