<svg width="8" height="9" viewBox="0 0 8 9" fill="none" xmlns="http://www.w3.org/2000/svg">
<path d="M2.70837 4.875H4.33337V8.125H2.70837V4.875Z" fill="#C5CEE0"/>
<path d="M7.33898 3.54359L4.09081 0.128206C4.0117 0.0461535 3.90402 0 3.79169 0C3.67936 0 3.57168 0.0461535 3.49257 0.128206L0.244399 3.54792C0.0856367 3.71258 -0.00237251 3.93581 4.86655e-05 4.16772V7.79982C-0.00062917 8.26055 0.349136 8.64133 0.796294 8.66667H2.10652V4.76585C2.10652 4.52647 2.29514 4.33242 2.52781 4.33242H5.05557C5.28825 4.33242 5.47686 4.52647 5.47686 4.76585V8.66667H6.78709C7.23425 8.64133 7.58401 8.26055 7.58333 7.79982V4.16772C7.58367 3.93494 7.49605 3.71114 7.33898 3.54359Z" fill="#C5CEE0"/>
</svg>
