<svg width="20" height="20" viewBox="0 0 20 20" fill="none" xmlns="http://www.w3.org/2000/svg">
<path d="M13.125 7.42138H17.5C18.875 7.42138 20 8.55346 20 9.93711V10L19.0625 17.5472C18.8125 18.9937 17.625 20 16.25 20H10C8.6875 20 7.375 19.6855 6.1875 19.1195L5 18.4906V8.74214L8.125 4.71698V1.25786C8.125 0.81761 8.3125 0.503145 8.625 0.251572C8.9375 0 9.375 -0.0628931 9.75 0.0628931C11.9375 0.691824 13.125 2.95597 13.125 4.90566V7.42138Z" fill="#C5CEE0"/>
<path d="M0.666667 8H3.33333C3.73333 8 4 8.25263 4 8.63158V19.3684C4 19.7474 3.73333 20 3.33333 20H0.666667C0.266667 20 0 19.7474 0 19.3684V8.63158C0 8.25263 0.266667 8 0.666667 8Z" fill="#C5CEE0"/>
</svg>
