<svg width="16" height="15" viewBox="0 0 16 15" fill="none" xmlns="http://www.w3.org/2000/svg">
<path fill-rule="evenodd" clip-rule="evenodd" d="M5.6 6.4C7.36731 6.4 8.8 4.96731 8.8 3.2C8.8 1.43269 7.36731 0 5.6 0C3.83269 0 2.4 1.43269 2.4 3.2C2.4 4.96731 3.83269 6.4 5.6 6.4ZM5.6 1.6C6.48366 1.6 7.2 2.31634 7.2 3.2C7.2 4.08366 6.48366 4.8 5.6 4.8C4.71634 4.8 4 4.08366 4 3.2C4 2.31634 4.71634 1.6 5.6 1.6Z" fill="#C5CEE0"/>
<path fill-rule="evenodd" clip-rule="evenodd" d="M14.4 5.6C14.4 6.92548 13.3255 8 12 8C10.6745 8 9.6 6.92548 9.6 5.6C9.6 4.27452 10.6745 3.2 12 3.2C13.3255 3.2 14.4 4.27452 14.4 5.6ZM12.8 5.6C12.8 5.15817 12.4418 4.8 12 4.8C11.5582 4.8 11.2 5.15817 11.2 5.6C11.2 6.04183 11.5582 6.4 12 6.4C12.4418 6.4 12.8 6.04183 12.8 5.6Z" fill="#C5CEE0"/>
<path d="M9.552 9.64C10.2524 9.09645 11.1135 8.80098 12 8.8C14.2091 8.8 16 10.5909 16 12.8C16 13.2418 15.6418 13.6 15.2 13.6C14.7582 13.6 14.4 13.2418 14.4 12.8C14.3988 11.8806 13.8725 11.0426 13.0448 10.6424C12.217 10.2421 11.2334 10.35 10.512 10.92C10.9651 11.7404 11.2019 12.6627 11.2 13.6C11.2 14.0418 10.8418 14.4 10.4 14.4C9.95817 14.4 9.6 14.0418 9.6 13.6C9.6 11.3909 7.80914 9.6 5.6 9.6C3.39086 9.6 1.6 11.3909 1.6 13.6C1.6 14.0418 1.24183 14.4 0.8 14.4C0.358172 14.4 0 14.0418 0 13.6C0.00305944 11.3384 1.36619 9.30063 3.45538 8.43451C5.54457 7.56839 7.94966 8.04395 9.552 9.64Z" fill="#C5CEE0"/>
</svg>
