<svg width="16" height="16" viewBox="0 0 16 16" fill="none" xmlns="http://www.w3.org/2000/svg">
<path fill-rule="evenodd" clip-rule="evenodd" d="M0 8C0 7.28201 0.0880044 6.58643 0.252813 5.92156C1.15404 5.97071 2.00567 5.4912 2.45709 4.68043C2.90851 3.86966 2.88341 2.86469 2.39212 2.07927C3.35932 1.09198 4.55286 0.376423 5.86029 0C6.26974 0.835212 7.09644 1.36124 7.9996 1.36124C8.90276 1.36124 9.72946 0.835212 10.1389 0C11.4463 0.376423 12.6399 1.09198 13.6071 2.07927C13.1152 2.86485 13.0899 3.87035 13.5416 4.68148C13.9933 5.49261 14.8456 5.9721 15.7472 5.92239C15.912 6.58643 16 7.28201 16 8C16 8.71799 15.912 9.41357 15.7472 10.0784C14.8458 10.029 13.9939 10.5083 13.5423 11.3192C13.0907 12.13 13.1157 13.1352 13.6071 13.9207C12.6399 14.908 11.4463 15.6236 10.1389 16C9.72946 15.1648 8.90276 14.6388 7.9996 14.6388C7.09644 14.6388 6.26974 15.1648 5.86029 16C4.55286 15.6236 3.35932 14.908 2.39212 13.9207C2.88397 13.1352 2.90926 12.1296 2.45757 11.3185C2.00588 10.5074 1.15365 10.0279 0.252013 10.0776C0.0880044 9.4144 0 8.71882 0 8ZM3.84339 10.4901C4.34742 11.3957 4.49142 12.4374 4.29461 13.4152C4.62103 13.6559 4.96825 13.8643 5.33227 14.0378C6.06564 13.3562 7.0158 12.9796 8.0004 12.9803C9.00845 12.9803 9.9509 13.3712 10.6685 14.0378C11.0326 13.8643 11.3798 13.6559 11.7062 13.4152C11.5041 12.4158 11.6648 11.3742 12.1574 10.4901C12.6491 9.60562 13.4383 8.94057 14.3735 8.62254C14.4105 8.2084 14.4105 7.7916 14.3735 7.37746C13.438 7.05961 12.6485 6.39454 12.1566 5.50986C11.664 4.6258 11.5033 3.58418 11.7054 2.58477C11.3791 2.34399 11.0316 2.13556 10.6677 1.96223C9.93457 2.64365 8.98472 3.02022 8.0004 3.01971C7.0158 3.02042 6.06564 2.64384 5.33227 1.96223C4.96835 2.13557 4.62094 2.344 4.29461 2.58477C4.49668 3.58418 4.336 4.6258 3.84339 5.50986C3.35166 6.39438 2.56251 7.05943 1.62728 7.37746C1.59028 7.7916 1.59028 8.2084 1.62728 8.62254C2.56281 8.94039 3.35147 9.60546 3.84339 10.4901ZM8.0004 10.4901C6.67485 10.4901 5.60028 9.37527 5.60028 8C5.60028 6.62473 6.67485 5.50986 8.0004 5.50986C9.32595 5.50986 10.4005 6.62473 10.4005 8C10.4005 9.37527 9.32595 10.4901 8.0004 10.4901ZM8.0004 8.83005C8.44225 8.83005 8.80044 8.45842 8.80044 8C8.80044 7.54158 8.44225 7.16995 8.0004 7.16995C7.55855 7.16995 7.20036 7.54158 7.20036 8C7.20036 8.45842 7.55855 8.83005 8.0004 8.83005Z" fill="#C5CEE0"/>
</svg>
