<svg width="16" height="16" viewBox="0 0 16 16" fill="none" xmlns="http://www.w3.org/2000/svg">
<path fill-rule="evenodd" clip-rule="evenodd" d="M15.251 6.1882L14.69 5.62809C14.5116 5.44886 14.4084 5.20001 14.4084 4.94716V4.1542C14.4084 2.74113 13.2586 1.59211 11.8455 1.59211H11.0533C10.7965 1.59211 10.5548 1.49209 10.3724 1.30965L9.8123 0.749545C8.81291 -0.250648 7.18699 -0.249048 6.1876 0.749545L5.62749 1.30965C5.44505 1.49209 5.20341 1.59211 4.94656 1.59211H4.1544C2.74133 1.59211 1.59151 2.74113 1.59151 4.1542V4.94716C1.59151 5.20001 1.48829 5.44886 1.30985 5.62809L0.748945 6.1882C-0.249648 7.18759 -0.249648 8.81271 0.748945 9.8121L1.30985 10.3722C1.48829 10.5514 1.59151 10.7995 1.59151 11.0531V11.8461C1.59151 13.2592 2.74133 14.4082 4.1544 14.4082H4.94656C5.20341 14.4082 5.44505 14.5082 5.62749 14.6906L6.1876 15.2508C6.6877 15.7509 7.34382 15.9997 7.99995 15.9997C8.65608 15.9997 9.3122 15.7501 9.8123 15.2508L10.3724 14.6906C10.5548 14.5082 10.7965 14.4082 11.0533 14.4082H11.8455C13.2586 14.4082 14.4084 13.2592 14.4084 11.8461V11.0531C14.4084 10.7995 14.5116 10.5514 14.69 10.3722L15.2518 9.8121C16.2495 8.81271 16.2495 7.18759 15.251 6.1882ZM9.8331 5.03237L5.03217 9.8333C4.71931 10.1462 4.71931 10.6519 5.03217 10.9647C5.1882 11.1208 5.39304 11.1992 5.59788 11.1992C5.80272 11.1992 6.00756 11.1208 6.16359 10.9647L10.9645 6.16379C11.2774 5.85093 11.2774 5.34524 10.9645 5.03237C10.6517 4.71951 10.146 4.71951 9.8331 5.03237ZM5.99804 7.19839C6.66057 7.19839 7.19827 6.66069 7.19827 5.99816C7.19827 5.33563 6.66057 4.79793 5.99804 4.79793C5.33551 4.79793 4.79781 5.33563 4.79781 5.99816C4.79781 6.66069 5.33551 7.19839 5.99804 7.19839ZM9.99882 8.7987C9.33629 8.7987 8.79858 9.33641 8.79858 9.99894C8.79858 10.6615 9.33629 11.1992 9.99882 11.1992C10.6613 11.1992 11.199 10.6615 11.199 9.99894C11.199 9.33641 10.6613 8.7987 9.99882 8.7987ZM14.1195 8.68068L13.5586 9.24079C13.0745 9.72488 12.8081 10.3682 12.8081 11.0531V11.8461C12.8081 12.3766 12.3768 12.8079 11.8455 12.8079H11.0533C10.3692 12.8079 9.72508 13.0743 9.24099 13.5592L8.68088 14.1193C8.30561 14.4946 7.69429 14.4946 7.31902 14.1193L6.75891 13.5592C6.27482 13.0743 5.63149 12.8079 4.94656 12.8079H4.1544C3.6231 12.8079 3.19182 12.3766 3.19182 11.8461V11.0531C3.19182 10.3682 2.92537 9.72488 2.44127 9.24079L1.88116 8.68068C1.50509 8.30541 1.50509 7.69489 1.88036 7.31962L2.44127 6.75951C2.92537 6.27542 3.19182 5.63129 3.19182 4.94716V4.1542C3.19182 3.6237 3.6231 3.19242 4.1544 3.19242H4.94656C5.63149 3.19242 6.27482 2.92597 6.75891 2.44107L7.31902 1.88096C7.69429 1.50569 8.30561 1.50569 8.68088 1.88096L9.24099 2.44107C9.72508 2.92597 10.3692 3.19242 11.0533 3.19242H11.8455C12.3768 3.19242 12.8081 3.6237 12.8081 4.1542V4.94716C12.8081 5.63129 13.0745 6.27542 13.5586 6.75951L14.1195 7.31962C14.4948 7.69489 14.4948 8.30541 14.1195 8.68068Z" fill="#C5CEE0"/>
</svg>
