<svg width="18" height="18" viewBox="0 0 18 18" fill="none" xmlns="http://www.w3.org/2000/svg">
<path fill-rule="evenodd" clip-rule="evenodd" d="M9 18C13.9706 18 18 13.9706 18 9C18 4.02944 13.9706 0 9 0C4.02944 0 0 4.02944 0 9C0 13.9706 4.02944 18 9 18ZM7.875 4.375C7.875 3.82272 8.32272 3.375 8.875 3.375H9.125C9.67728 3.375 10.125 3.82272 10.125 4.375V7.875H13.625C14.1773 7.875 14.625 8.32272 14.625 8.875V9.125C14.625 9.67728 14.1773 10.125 13.625 10.125H10.125V13.625C10.125 14.1773 9.67728 14.625 9.125 14.625H8.875C8.32272 14.625 7.875 14.1773 7.875 13.625V10.125H4.375C3.82272 10.125 3.375 9.67728 3.375 9.125V8.875C3.375 8.32272 3.82272 7.875 4.375 7.875H7.875V4.375Z" fill="#FA6400"/>
</svg>
