<svg width="12" height="12" viewBox="0 0 12 12" fill="none" xmlns="http://www.w3.org/2000/svg">
<path fill-rule="evenodd" clip-rule="evenodd" d="M11.1429 3.30804H9.42857C9.42857 1.47321 7.95536 0 6.12054 0H5.90625C4.07143 0 2.57143 1.47321 2.57143 3.30804H0.857143L0 12H12L11.1429 3.30804ZM5.90625 0.857152H6.12054C7.47857 0.857152 8.57143 1.95001 8.57143 3.30804H3.42857C3.42857 1.95001 4.54822 0.857152 5.90625 0.857152ZM1.08806 11.0181L1.82748 4.28573H2.57143V5.25805C2.31429 5.40537 2.14286 5.68394 2.14286 6.00001C2.14286 6.47412 2.52589 6.85716 3 6.85716C3.47411 6.85716 3.85714 6.47412 3.85714 6.00001C3.85714 5.68394 3.68571 5.40537 3.42857 5.25805V4.28573H8.57143V5.25805C8.31429 5.40537 8.14286 5.68394 8.14286 6.00001C8.14286 6.47412 8.52589 6.85716 9 6.85716C9.47411 6.85716 9.85714 6.47412 9.85714 6.00001C9.85714 5.68394 9.68571 5.40537 9.42857 5.25805V4.28573H10.1559L10.8724 10.9587L1.08806 11.0181Z" fill="#C5CEE0"/>
</svg>
