<svg width="13" height="17" viewBox="0 0 13 17" fill="none" xmlns="http://www.w3.org/2000/svg">
<path d="M6.83913 11.6022C6.57835 11.4159 6.22804 11.4159 5.96727 11.6022L2.0901 15.3716C1.87996 15.5217 1.60356 15.5418 1.37394 15.4236C1.14432 15.3054 1 15.0688 1 14.8106V3.03619C1 2.49616 1.21453 1.97825 1.59639 1.59639C1.97825 1.21453 2.49616 1 3.0362 1H9.77023C10.3102 1 10.8281 1.21453 11.21 1.59639C11.5918 1.97825 11.8064 2.49616 11.8064 3.03619V14.8106C11.8064 15.0688 11.662 15.3054 11.4324 15.4236C11.2028 15.5418 10.9264 15.5217 10.7163 15.3716L6.83913 11.6022Z" stroke="#FA6400" stroke-width="1.5" stroke-linecap="round" stroke-linejoin="round"/>
</svg>
