<svg width="16" height="16" viewBox="0 0 16 16" fill="none" xmlns="http://www.w3.org/2000/svg">
<path fill-rule="evenodd" clip-rule="evenodd" d="M8 0C3.58214 0 0 3.58214 0 8C0 12.4179 3.58214 16 8 16C12.4179 16 16 12.4179 16 8C16 3.58214 12.4179 0 8 0Z" fill="#FA6400"/>
<path fill-rule="evenodd" clip-rule="evenodd" d="M12.1037 5.32499L7.13584 11.7C7.09655 11.7393 7.03227 11.825 6.9537 11.825C6.87155 11.825 6.81798 11.7678 6.77155 11.7214C6.72513 11.675 3.9537 9.0107 3.9537 9.0107L3.90013 8.95713C3.8787 8.92499 3.86084 8.8857 3.86084 8.84284C3.86084 8.79999 3.8787 8.7607 3.90013 8.72856C3.91441 8.71427 3.92513 8.70356 3.93941 8.6857C4.21441 8.39642 4.77155 7.8107 4.80727 7.77499C4.8537 7.72856 4.89298 7.66785 4.9787 7.66785C5.06798 7.66785 5.12513 7.74284 5.16798 7.7857C5.21084 7.82856 6.77513 9.33213 6.77513 9.33213L10.7501 4.22499C10.7858 4.19642 10.8287 4.17499 10.8751 4.17499C10.9216 4.17499 10.9644 4.19284 11.0001 4.22142L12.093 5.08213C12.1216 5.11784 12.1394 5.1607 12.1394 5.20713C12.143 5.25356 12.1251 5.29284 12.1037 5.32499Z" fill="white"/>
</svg>
