<svg width="10" height="7" viewBox="0 0 10 7" fill="none" xmlns="http://www.w3.org/2000/svg">
<path fill-rule="evenodd" clip-rule="evenodd" d="M3.15273 3.5L0.201364 6.00419C-0.0671214 6.23199 -0.0671214 6.60134 0.201364 6.82915C0.46985 7.05695 0.905151 7.05695 1.17364 6.82915L4.61114 3.91248C4.87962 3.68467 4.87962 3.31533 4.61114 3.08752L1.17364 0.170854C0.905151 -0.0569515 0.46985 -0.0569515 0.201364 0.170854C-0.0671214 0.39866 -0.0671214 0.768006 0.201364 0.995812L3.15273 3.5Z" fill="#FA6400"/>
<path fill-rule="evenodd" clip-rule="evenodd" d="M3.15273 3.5L0.201364 6.00419C-0.0671214 6.23199 -0.0671214 6.60134 0.201364 6.82915C0.46985 7.05695 0.905151 7.05695 1.17364 6.82915L4.61114 3.91248C4.87962 3.68467 4.87962 3.31533 4.61114 3.08752L1.17364 0.170854C0.905151 -0.0569515 0.46985 -0.0569515 0.201364 0.170854C-0.0671214 0.39866 -0.0671214 0.768006 0.201364 0.995812L3.15273 3.5Z" fill="#FA6400"/>
<path fill-rule="evenodd" clip-rule="evenodd" d="M7.96523 3.5L5.01386 6.00419C4.74538 6.23199 4.74538 6.60134 5.01386 6.82915C5.28235 7.05695 5.71765 7.05695 5.98614 6.82915L9.42364 3.91248C9.69212 3.68467 9.69212 3.31533 9.42364 3.08752L5.98614 0.170854C5.71765 -0.0569515 5.28235 -0.0569515 5.01386 0.170854C4.74538 0.39866 4.74538 0.768006 5.01386 0.995812L7.96523 3.5Z" fill="#FA6400"/>
<path fill-rule="evenodd" clip-rule="evenodd" d="M7.96523 3.5L5.01386 6.00419C4.74538 6.23199 4.74538 6.60134 5.01386 6.82915C5.28235 7.05695 5.71765 7.05695 5.98614 6.82915L9.42364 3.91248C9.69212 3.68467 9.69212 3.31533 9.42364 3.08752L5.98614 0.170854C5.71765 -0.0569515 5.28235 -0.0569515 5.01386 0.170854C4.74538 0.39866 4.74538 0.768006 5.01386 0.995812L7.96523 3.5Z" fill="#FA6400"/>
</svg>
