<svg width="16" height="14" viewBox="0 0 16 14" fill="none" xmlns="http://www.w3.org/2000/svg">
<path fill-rule="evenodd" clip-rule="evenodd" d="M5.68939 7.63976L0.219894 1.44914C-0.280398 0.882889 0.128122 0 0.890423 0H15.1096C15.8719 0 16.2804 0.882889 15.7801 1.44914L10.3106 7.63976V13.124C10.3106 13.7701 9.62365 14.1933 9.03338 13.9109L6.18955 12.5499C5.88359 12.4034 5.68939 12.0979 5.68939 11.763V7.63976ZM2.84129 1.74986L7.24861 6.73827C7.3893 6.89751 7.46678 7.10144 7.46678 7.31248V11.2155L8.53322 11.7258V7.31248C8.53322 7.10144 8.6107 6.89751 8.75139 6.73827L13.1587 1.74986H2.84129Z" fill="white"/>
</svg>
