<svg height="20" viewBox="0 0 22 20" fill="none" xmlns="http://www.w3.org/2000/svg">
<path fill-rule="evenodd" clip-rule="evenodd" d="M6.82169 0.119779C7.0856 -0.0310258 7.40742 -0.0399583 7.67929 0.0959756L14.5168 3.51476L20.4581 0.119779C20.7394 -0.0410015 21.0851 -0.039847 21.3654 0.122809C21.6457 0.285466 21.8182 0.585027 21.8182 0.909091V15.4545C21.8182 15.7808 21.6434 16.082 21.3601 16.2439L14.9965 19.8802C14.7326 20.031 14.4108 20.04 14.1389 19.904L7.30134 16.4852L1.36013 19.8802C1.07876 20.041 0.73308 20.0398 0.452794 19.8772C0.172508 19.7145 0 19.415 0 19.0909V4.54546C0 4.21922 0.174806 3.918 0.458056 3.75614L6.82169 0.119779ZM13.6364 17.62L8.18182 14.8927V2.38003L13.6364 5.1073V17.62ZM15.4545 17.5244L20 14.927V2.47562L15.4545 5.07302V17.5244ZM1.81818 5.07302L6.36364 2.47562V14.927L1.81818 17.5244V5.07302Z" fill="black"/>
</svg>
