<svg width="9" height="11" viewBox="0 0 9 11" fill="none" xmlns="http://www.w3.org/2000/svg">
<path fill-rule="evenodd" clip-rule="evenodd" d="M4.50004 0.229126C2.1122 0.22901 0.169752 2.0913 0.145874 4.40361C0.145874 7.29202 3.98298 10.5072 4.14626 10.6443C4.34994 10.813 4.65014 10.813 4.85382 10.6443C5.04431 10.5072 8.85421 7.29202 8.85421 4.40361C8.83033 2.0913 6.88788 0.22901 4.50004 0.229126ZM4.50004 6.02703C3.44797 6.02703 2.59509 5.20109 2.59509 4.18224C2.59509 3.1634 3.44797 2.33746 4.50004 2.33746C5.55211 2.33746 6.40499 3.1634 6.40499 4.18224C6.40499 4.67151 6.20429 5.14074 5.84704 5.4867C5.4898 5.83267 5.00526 6.02703 4.50004 6.02703V6.02703Z" fill="white"/>
</svg>
