<svg width="16" height="16" viewBox="0 0 16 16" fill="none" xmlns="http://www.w3.org/2000/svg">
<path fill-rule="evenodd" clip-rule="evenodd" d="M13.6099 2.35381C10.9152 -0.36255 6.67291 -0.776904 3.50492 1.36683C0.336932 3.51056 -0.862087 7.60697 0.648895 11.1243C0.725236 11.2828 0.750285 11.4612 0.720547 11.6346L0.0199518 15.0073C-0.0348785 15.27 0.0459041 15.5426 0.234907 15.7328C0.389032 15.8861 0.598976 15.9696 0.816082 15.9641H0.975308L4.38275 15.2784C4.55593 15.2575 4.73155 15.2823 4.89227 15.3501C8.40439 16.8634 12.4947 15.6626 14.6352 12.4898C16.7757 9.31711 16.362 5.06849 13.6497 2.36976L13.6099 2.35381ZM14.2707 9.01941C13.9553 10.9482 12.7744 12.6257 11.0664 13.5712C9.35837 14.5167 7.31181 14.6257 5.51325 13.8671C5.19842 13.733 4.86021 13.6625 4.51809 13.6598C4.36864 13.6609 4.21953 13.6742 4.07226 13.6997L1.82717 14.1542L2.28096 11.9057C2.37134 11.4188 2.31308 10.9158 2.11378 10.4626C1.35629 8.66132 1.46519 6.6117 2.40925 4.90113C3.35332 3.19056 5.02834 2.00787 6.95425 1.69203C8.97848 1.35932 11.0388 2.0234 12.4893 3.47607C13.9398 4.92873 14.6029 6.99215 14.2707 9.01941ZM7.98126 8.78819C8.42095 8.78819 8.77739 8.43121 8.77739 7.99087C8.77739 7.55052 8.42095 7.19354 7.98126 7.19354C7.54157 7.19354 7.18513 7.55052 7.18513 7.99087C7.18513 8.43121 7.54157 8.78819 7.98126 8.78819ZM11.9619 7.99087C11.9619 8.43121 11.6055 8.78819 11.1658 8.78819C10.7261 8.78819 10.3696 8.43121 10.3696 7.99087C10.3696 7.55052 10.7261 7.19354 11.1658 7.19354C11.6055 7.19354 11.9619 7.55052 11.9619 7.99087ZM4.79673 8.78819C5.23643 8.78819 5.59286 8.43121 5.59286 7.99087C5.59286 7.55052 5.23643 7.19354 4.79673 7.19354C4.35704 7.19354 4.0006 7.55052 4.0006 7.99087C4.0006 8.43121 4.35704 8.78819 4.79673 8.78819Z" fill="white"/>
</svg>
