<svg width="29" height="29" viewBox="0 0 29 29" fill="none" xmlns="http://www.w3.org/2000/svg">
<rect x="0.236816" y="0.617676" width="28" height="28" rx="14" fill="#FA6400"/>
<path d="M14.2368 9.61768C13.6845 9.61768 13.2368 10.0654 13.2368 10.6177V13.6177H10.2368C9.68453 13.6177 9.23682 14.0654 9.23682 14.6177C9.23682 15.17 9.68453 15.6177 10.2368 15.6177H13.2368V18.6177C13.2368 19.17 13.6845 19.6177 14.2368 19.6177C14.7891 19.6177 15.2368 19.17 15.2368 18.6177V15.6177H18.2368C18.7891 15.6177 19.2368 15.17 19.2368 14.6177C19.2368 14.0654 18.7891 13.6177 18.2368 13.6177H15.2368V10.6177C15.2368 10.0654 14.7891 9.61768 14.2368 9.61768Z" fill="white"/>
</svg>
