<svg width="10" height="10" viewBox="0 0 10 10" fill="none" xmlns="http://www.w3.org/2000/svg">
<path fill-rule="evenodd" clip-rule="evenodd" d="M7.78078 10C7.70178 10 7.62228 9.98048 7.54928 9.94038L4.99975 8.53495L2.45072 9.94038C2.28172 10.0327 2.07771 10.0169 1.92471 9.89871C1.77071 9.78053 1.69421 9.58059 1.72671 9.38275L2.21222 6.41361L0.152191 4.31126C0.0151896 4.17146 -0.034311 3.96149 0.0241897 3.76945C0.0826904 3.57848 0.239192 3.43867 0.428195 3.41018L3.27823 2.97336L4.55224 0.269058C4.72125 -0.0896861 5.27875 -0.0896861 5.44776 0.269058L6.72177 2.97336L9.57181 3.41018C9.76081 3.43867 9.91731 3.57848 9.97581 3.76945C10.0343 3.96149 9.98481 4.17146 9.84781 4.31126L7.78778 6.41361L8.27329 9.38275C8.30579 9.58059 8.22879 9.78053 8.07529 9.89871C7.98829 9.96624 7.88478 10 7.78078 10Z" fill="#ff8900"/>
</svg>
