<svg width="20" height="20" viewBox="0 0 20 20" fill="none" xmlns="http://www.w3.org/2000/svg">
<path d="M6.875 12.5786H2.5C1.125 12.5786 0 11.4465 0 10.0629V10L0.9375 2.45283C1.1875 1.00629 2.375 0 3.75 0H10C11.3125 0 12.625 0.314465 13.8125 0.880503L15 1.50943V11.2579L11.875 15.283V18.7421C11.875 19.1824 11.6875 19.4969 11.375 19.7484C11.0625 20 10.625 20.0629 10.25 19.9371C8.0625 19.3082 6.875 17.044 6.875 15.0943V12.5786Z" fill="#C5CEE0"/>
<path d="M19.3333 12H16.6667C16.2667 12 16 11.7474 16 11.3684V0.63158C16 0.252632 16.2667 0 16.6667 0H19.3333C19.7333 0 20 0.252632 20 0.63158V11.3684C20 11.7474 19.7333 12 19.3333 12Z" fill="#C5CEE0"/>
</svg>
