<svg width="40" height="40" viewBox="0 0 40 40" fill="none" xmlns="http://www.w3.org/2000/svg">
<path d="M40 40L0 0H40V40Z" fill="#FA6400"/>
<path fill-rule="evenodd" clip-rule="evenodd" d="M33.6343 6.73964C33.9467 6.42012 34.4533 6.42012 34.7657 6.73964C35.0781 7.05916 35.0781 7.5772 34.7657 7.89672L27.5657 15.2604C27.2533 15.5799 26.7467 15.5799 26.4343 15.2604L23.2343 11.9876C22.9219 11.6681 22.9219 11.1501 23.2343 10.8305C23.5467 10.511 24.0533 10.511 24.3657 10.8305L27 13.5247L33.6343 6.73964Z" fill="white"/>
<path fill-rule="evenodd" clip-rule="evenodd" d="M33.6343 6.73964C33.9467 6.42012 34.4533 6.42012 34.7657 6.73964C35.0781 7.05916 35.0781 7.5772 34.7657 7.89672L27.5657 15.2604C27.2533 15.5799 26.7467 15.5799 26.4343 15.2604L23.2343 11.9876C22.9219 11.6681 22.9219 11.1501 23.2343 10.8305C23.5467 10.511 24.0533 10.511 24.3657 10.8305L27 13.5247L33.6343 6.73964Z" fill="white"/>
</svg>
