<svg width="40" height="32" viewBox="0 0 40 32" fill="none" xmlns="http://www.w3.org/2000/svg">
<path d="M7.27912 30.97V28.9099C7.27912 28.1202 6.79844 27.6052 5.9744 27.6052C5.56238 27.6052 5.11603 27.7425 4.80701 28.1889C4.56667 27.8112 4.22331 27.6052 3.70829 27.6052C3.36494 27.6052 3.02159 27.7082 2.74692 28.0859V27.6739H2.02588V30.97H2.74692V29.1503C2.74692 28.5666 3.05593 28.2919 3.53662 28.2919C4.0173 28.2919 4.25765 28.6009 4.25765 29.1503V30.97H4.97869V29.1503C4.97869 28.5666 5.32203 28.2919 5.76839 28.2919C6.24908 28.2919 6.48942 28.6009 6.48942 29.1503V30.97H7.27912V30.97ZM17.9573 27.6739H16.7899V26.6782H16.0689V27.6739H15.4165V28.3262H16.0689V29.837C16.0689 30.5923 16.3779 31.0387 17.2019 31.0387C17.5109 31.0387 17.8543 30.9357 18.0946 30.7983L17.8886 30.1803C17.6826 30.3177 17.4423 30.352 17.2706 30.352C16.9273 30.352 16.7899 30.146 16.7899 29.8026V28.3262H17.9573V27.6739V27.6739ZM24.0689 27.6052C23.6569 27.6052 23.3822 27.8112 23.2105 28.0859V27.6739H22.4895V30.97H23.2105V29.1159C23.2105 28.5666 23.4509 28.2576 23.8972 28.2576C24.0346 28.2576 24.2063 28.2919 24.3436 28.3262L24.5496 27.6395C24.4123 27.6052 24.2063 27.6052 24.0689 27.6052V27.6052ZM14.8328 27.9485C14.4895 27.7082 14.0088 27.6052 13.4938 27.6052C12.6697 27.6052 12.1204 28.0172 12.1204 28.6696C12.1204 29.2189 12.5324 29.528 13.2534 29.631L13.5968 29.6653C13.9744 29.734 14.1805 29.837 14.1805 30.0086C14.1805 30.249 13.9058 30.4207 13.4251 30.4207C12.9444 30.4207 12.5667 30.249 12.3264 30.0773L11.983 30.6267C12.3607 30.9014 12.8757 31.0387 13.3908 31.0387C14.3521 31.0387 14.9015 30.5923 14.9015 29.9743C14.9015 29.3906 14.4551 29.0816 13.7684 28.9786L13.4251 28.9443C13.1161 28.9099 12.8757 28.8412 12.8757 28.6352C12.8757 28.3949 13.1161 28.2576 13.4938 28.2576C13.9058 28.2576 14.3178 28.4292 14.5238 28.5322L14.8328 27.9485V27.9485ZM33.9917 27.6052C33.5797 27.6052 33.305 27.8112 33.1334 28.0859V27.6739H32.4123V30.97H33.1334V29.1159C33.1334 28.5666 33.3737 28.2576 33.8201 28.2576C33.9574 28.2576 34.1291 28.2919 34.2664 28.3262L34.4724 27.6395C34.3351 27.6052 34.1291 27.6052 33.9917 27.6052V27.6052ZM24.79 29.3219C24.79 30.3177 25.4767 31.0387 26.541 31.0387C27.0217 31.0387 27.3651 30.9357 27.7084 30.661L27.3651 30.0773C27.0904 30.2833 26.8157 30.3863 26.5067 30.3863C25.923 30.3863 25.511 29.9743 25.511 29.3219C25.511 28.7039 25.923 28.2919 26.5067 28.2576C26.8157 28.2576 27.0904 28.3606 27.3651 28.5666L27.7084 27.9829C27.3651 27.7082 27.0217 27.6052 26.541 27.6052C25.4767 27.6052 24.79 28.3262 24.79 29.3219V29.3219ZM31.4509 29.3219V27.6739H30.7299V28.0859C30.4896 27.7769 30.1462 27.6052 29.6999 27.6052C28.7728 27.6052 28.0518 28.3262 28.0518 29.3219C28.0518 30.3177 28.7728 31.0387 29.6999 31.0387C30.1806 31.0387 30.5239 30.867 30.7299 30.558V30.97H31.4509V29.3219ZM28.8072 29.3219C28.8072 28.7382 29.1848 28.2576 29.8029 28.2576C30.3866 28.2576 30.7986 28.7039 30.7986 29.3219C30.7986 29.9056 30.3866 30.3863 29.8029 30.3863C29.1848 30.352 28.8072 29.9056 28.8072 29.3219ZM20.1891 27.6052C19.2277 27.6052 18.541 28.2919 18.541 29.3219C18.541 30.352 19.2277 31.0387 20.2234 31.0387C20.7041 31.0387 21.1848 30.9014 21.5625 30.5923L21.2191 30.0773C20.9444 30.2833 20.6011 30.4207 20.2577 30.4207C19.8114 30.4207 19.365 30.2147 19.262 29.631H21.6998C21.6998 29.528 21.6998 29.4593 21.6998 29.3563C21.7341 28.2919 21.1161 27.6052 20.1891 27.6052V27.6052ZM20.1891 28.2232C20.6354 28.2232 20.9444 28.4979 21.0131 29.0129H19.2964C19.365 28.5666 19.674 28.2232 20.1891 28.2232ZM38.0776 29.3219V26.3691H37.3566V28.0859C37.1162 27.7769 36.7729 27.6052 36.3265 27.6052C35.3995 27.6052 34.6784 28.3262 34.6784 29.3219C34.6784 30.3177 35.3995 31.0387 36.3265 31.0387C36.8072 31.0387 37.1505 30.867 37.3566 30.558V30.97H38.0776V29.3219ZM35.4338 29.3219C35.4338 28.7382 35.8115 28.2576 36.4295 28.2576C37.0132 28.2576 37.4252 28.7039 37.4252 29.3219C37.4252 29.9056 37.0132 30.3863 36.4295 30.3863C35.8115 30.352 35.4338 29.9056 35.4338 29.3219ZM11.3307 29.3219V27.6739H10.6096V28.0859C10.3693 27.7769 10.0259 27.6052 9.57957 27.6052C8.65253 27.6052 7.93149 28.3262 7.93149 29.3219C7.93149 30.3177 8.65253 31.0387 9.57957 31.0387C10.0603 31.0387 10.4036 30.867 10.6096 30.558V30.97H11.3307V29.3219ZM8.65252 29.3219C8.65252 28.7382 9.03021 28.2576 9.64823 28.2576C10.2319 28.2576 10.644 28.7039 10.644 29.3219C10.644 29.9056 10.2319 30.3863 9.64823 30.3863C9.03021 30.352 8.65252 29.9056 8.65252 29.3219Z" fill="black"/>
<path d="M25.4073 2.64404H14.5918V22.0776H25.4073V2.64404Z" fill="#FF5F00"/>
<path d="M15.2791 12.3606C15.2791 8.41207 17.1331 4.9099 19.9829 2.6438C17.8885 0.995718 15.2447 0 12.3606 0C5.52793 0 0 5.52793 0 12.3606C0 19.1932 5.52793 24.7212 12.3606 24.7212C15.2447 24.7212 17.8885 23.7255 19.9829 22.0774C17.1331 19.8456 15.2791 16.3091 15.2791 12.3606Z" fill="#EB001B"/>
<path d="M40 12.3606C40 19.1932 34.4721 24.7212 27.6395 24.7212C24.7553 24.7212 22.1115 23.7255 20.0171 22.0774C22.9012 19.8113 24.721 16.3091 24.721 12.3606C24.721 8.41207 22.8669 4.9099 20.0171 2.6438C22.1115 0.995718 24.7553 0 27.6395 0C34.4721 0 40 5.56226 40 12.3606Z" fill="#F79E1B"/>
</svg>
