<svg width="50" height="17" viewBox="0 0 50 17" fill="none" xmlns="http://www.w3.org/2000/svg">
<path d="M32.7167 0C34.2835 0 35.5507 0.349951 36.3496 0.6669L35.7987 4.04946L35.4324 3.88313C34.6995 3.5664 33.732 3.24989 32.4153 3.28334C30.8161 3.28334 30.099 3.96618 30.0824 4.63286C30.0824 5.36621 30.9499 5.8495 32.3666 6.56623C34.7001 7.68275 35.7826 9.04911 35.7664 10.8323C35.7336 14.082 32.9668 16.1819 28.7169 16.1819C26.8998 16.1651 25.1496 15.781 24.1996 15.3482L24.7664 11.8319L25.2998 12.0822C26.6165 12.666 27.483 12.9154 29.1001 12.9154C30.2662 12.9154 31.5165 12.4317 31.5324 11.3823C31.5324 10.699 30.9998 10.1986 29.4327 9.43206C27.8996 8.68188 25.8497 7.43225 25.8829 5.18237C25.9002 2.13293 28.7169 0 32.7167 0Z" fill="#00579F"/>
<path d="M17.6164 15.9485H21.6667L24.1999 0.283947H20.1497L17.6164 15.9485Z" fill="#00579F"/>
<path fill-rule="evenodd" clip-rule="evenodd" d="M46.7325 0.283947H43.5996C42.6334 0.283947 41.8994 0.567008 41.4826 1.58364L35.4663 15.9482H39.7162C39.7162 15.9482 40.4159 14.0149 40.5663 13.5985H45.7666C45.8829 14.1484 46.2499 15.9482 46.2499 15.9482H50.0001L46.7325 0.283947ZM41.7329 10.3991C42.0664 9.49917 43.3499 6.01627 43.3499 6.01627C43.3431 6.02978 43.3962 5.88281 43.475 5.66436L43.475 5.66429L43.475 5.66412C43.5913 5.34182 43.7637 4.86408 43.8828 4.51658L44.1659 5.86633C44.1659 5.86633 44.9329 9.6159 45.0995 10.3991H41.7329Z" fill="#00579F"/>
<path d="M10.2667 10.9656L14.2334 0.283947H18.5163L12.1498 15.9318H7.86669L4.2334 2.23326C6.8 3.58367 9.09993 6.29956 9.83328 8.79927L10.2667 10.9656Z" fill="#00579F"/>
<path d="M6.58328 0.28418H0.0666676L0 0.600686C5.08337 1.9006 8.44998 5.03399 9.83317 8.80017L8.41654 1.60092C8.18331 0.600464 7.46658 0.317181 6.58328 0.28418Z" fill="#FAA61A"/>
</svg>
