<svg width="124" height="64" viewBox="0 0 124 64" fill="none" xmlns="http://www.w3.org/2000/svg">
<mask id="mask0" mask-type="alpha" maskUnits="userSpaceOnUse" x="0" y="0" width="124" height="64">
<path fill-rule="evenodd" clip-rule="evenodd" d="M0 0.012207H123.911V63.7378H0V0.012207Z" fill="white"/>
</mask>
<g mask="url(#mask0)">
<path fill-rule="evenodd" clip-rule="evenodd" d="M123.651 63.4789C123.246 63.4789 122.917 63.15 122.917 62.7445V62.3774C122.917 61.9719 123.246 61.643 123.651 61.643C123.743 61.643 123.83 61.6618 123.911 61.6924V58.061C123.83 58.0916 123.743 58.1104 123.651 58.1104C123.246 58.1104 122.917 57.7815 122.917 57.3761V55.3122C122.917 54.9066 123.246 54.5778 123.651 54.5778C123.743 54.5778 123.83 54.5967 123.911 54.6273V50.9959C123.83 51.0266 123.743 51.0454 123.651 51.0454C123.246 51.0454 122.917 50.7165 122.917 50.3108V48.2472C122.917 47.8415 123.246 47.5128 123.651 47.5128C123.743 47.5128 123.83 47.5317 123.911 47.5623V43.9308C123.83 43.9614 123.743 43.9803 123.651 43.9803C123.246 43.9803 122.917 43.6514 122.917 43.2458V41.182C122.917 40.7765 123.246 40.4477 123.651 40.4477C123.743 40.4477 123.83 40.4664 123.911 40.4971V36.8655C123.83 36.8961 123.743 36.9149 123.651 36.9149C123.246 36.9149 122.917 36.5861 122.917 36.1805V34.1167C122.917 33.711 123.246 33.3823 123.651 33.3823C123.743 33.3823 123.83 33.4011 123.911 33.4316V29.8004C123.83 29.831 123.743 29.8497 123.651 29.8497C123.246 29.8497 122.917 29.5209 122.917 29.1154V27.0516C122.917 26.646 123.246 26.3171 123.651 26.3171C123.743 26.3171 123.83 26.336 123.911 26.3666V22.7351C123.83 22.7657 123.743 22.7846 123.651 22.7846C123.246 22.7846 122.917 22.4559 122.917 22.0502V19.9865C122.917 19.5809 123.246 19.252 123.651 19.252C123.743 19.252 123.83 19.2708 123.911 19.3014V15.6698C123.83 15.7004 123.743 15.7192 123.651 15.7192C123.246 15.7192 122.917 15.3904 122.917 14.9849V12.921C122.917 12.5155 123.246 12.1867 123.651 12.1867C123.743 12.1867 123.83 12.2055 123.911 12.2361V8.60476C123.83 8.63534 123.743 8.65413 123.651 8.65413C123.246 8.65413 122.917 8.32525 122.917 7.91973V5.85594C122.917 5.4503 123.246 5.12166 123.651 5.12166C123.743 5.12166 123.83 5.14045 123.911 5.17103V1.5397C123.83 1.57028 123.743 1.58907 123.651 1.58907C123.246 1.58907 122.917 1.26019 122.917 0.854552V0.487599C122.917 0.305351 122.986 0.140665 123.095 0.012207H0.815278C0.925146 0.140665 0.994212 0.305351 0.994212 0.487599V0.854552C0.994212 1.26019 0.665102 1.58907 0.259183 1.58907C0.167627 1.58907 0.0809871 1.57028 0 1.5397V5.17103C0.0809871 5.14045 0.167627 5.12166 0.259183 5.12166C0.665102 5.12166 0.994212 5.4503 0.994212 5.85594V7.91973C0.994212 8.32525 0.665102 8.65413 0.259183 8.65413C0.167627 8.65413 0.0809871 8.63534 0 8.60476V12.2361C0.0809871 12.2055 0.167627 12.1867 0.259183 12.1867C0.665102 12.1867 0.994212 12.5155 0.994212 12.921V14.9849C0.994212 15.3904 0.665102 15.7192 0.259183 15.7192C0.167627 15.7192 0.0809871 15.7004 0 15.6698V19.3014C0.0809871 19.2708 0.167627 19.252 0.259183 19.252C0.665102 19.252 0.994212 19.5809 0.994212 19.9865V22.0502C0.994212 22.4559 0.665102 22.7846 0.259183 22.7846C0.167627 22.7846 0.0809871 22.7657 0 22.7351V26.3666C0.0809871 26.336 0.167627 26.3171 0.259183 26.3171C0.665102 26.3171 0.994212 26.646 0.994212 27.0516V29.1154C0.994212 29.5209 0.665102 29.8497 0.259183 29.8497C0.167627 29.8497 0.0809871 29.831 0 29.8004V33.4316C0.0809871 33.4011 0.167627 33.3823 0.259183 33.3823C0.665102 33.3823 0.994212 33.711 0.994212 34.1167V36.1805C0.994212 36.5861 0.665102 36.9149 0.259183 36.9149C0.167627 36.9149 0.0809871 36.8961 0 36.8655V40.4971C0.0809871 40.4664 0.167627 40.4477 0.259183 40.4477C0.665102 40.4477 0.994212 40.7765 0.994212 41.182V43.2458C0.994212 43.6514 0.665102 43.9803 0.259183 43.9803C0.167627 43.9803 0.0809871 43.9614 0 43.9308V47.5623C0.0809871 47.5317 0.167627 47.5128 0.259183 47.5128C0.665102 47.5128 0.994212 47.8415 0.994212 48.2472V50.3108C0.994212 50.7165 0.665102 51.0454 0.259183 51.0454C0.167627 51.0454 0.0809871 51.0266 0 50.9959V54.6273C0.0809871 54.5967 0.167627 54.5778 0.259183 54.5778C0.665102 54.5778 0.994212 54.9066 0.994212 55.3122V57.3761C0.994212 57.7815 0.665102 58.1104 0.259183 58.1104C0.167627 58.1104 0.0809871 58.0916 0 58.061V61.6924C0.0809871 61.6618 0.167627 61.643 0.259183 61.643C0.665102 61.643 0.994212 61.9719 0.994212 62.3774V62.7445C0.994212 63.15 0.665102 63.4789 0.259183 63.4789C0.167627 63.4789 0.0809871 63.4601 0 63.4295V63.7379H123.911V63.4295C123.83 63.4601 123.743 63.4789 123.651 63.4789Z" fill="#00C1D6"/>
</g>
<mask id="mask1" mask-type="alpha" maskUnits="userSpaceOnUse" x="0" y="1" width="124" height="63">
<path fill-rule="evenodd" clip-rule="evenodd" d="M0 64H124V1H0V64Z" fill="white"/>
</mask>
<g mask="url(#mask1)">
<path fill-rule="evenodd" clip-rule="evenodd" d="M114.806 54.8846H115.883V53.8118H114.806V54.8846ZM111.5 36.1394H112.581V35.0699H111.5V36.1394ZM93.8568 28.4232H94.9342V27.3497H93.8568V28.4232ZM81.7299 43.8578H82.8117V42.7872H81.7299V43.8578ZM111.498 24.0121H112.574V22.9323H111.498V24.0121ZM81.7356 24.0137H82.8096V22.9388H81.7356V24.0137ZM88.3455 44.9638H89.42V42.7875H88.3455V44.9638ZM108.194 24.0092H110.374V22.9355H108.194V24.0092ZM83.9387 22.9042H85.0133V19.626H83.9387V22.9042ZM114.811 49.3738H115.885V46.0873H114.811V49.3738ZM105.99 18.4942H107.065V15.216H105.99V18.4942ZM92.7538 16.2905H96.0387V15.201H93.8362V14.1155H92.7538V16.2905ZM75.1201 44.9715V46.0653H79.4982V43.8895H78.4035V44.9715H75.1201ZM75.1181 54.88H82.8086V47.1905H75.1181V54.88ZM108.191 21.8096H115.882V14.1203H108.191V21.8096ZM75.1145 21.8095H82.8047V14.1205H75.1145V21.8095ZM114.792 36.1491H115.886V31.7579H114.798C114.798 33.233 114.798 34.6944 114.798 36.1557H113.708V37.2392H114.792V36.1491ZM86.1253 15.2008C86.4952 15.2014 86.8651 15.2019 87.235 15.2025V17.4136H88.3356L88.3295 17.4076V19.6025H87.2231V18.5168H86.1261V17.4254H83.9411V18.5101H86.1327V22.9289H87.2344V24.0286H86.1313V25.1318H85.0149V26.219H83.9169V25.1324C82.0643 25.1324 80.2361 25.1324 78.4079 25.1323V22.9386H76.2083V24.0294H75.1197V26.2368H76.2084V28.4195H77.3042V25.1252C77.6743 25.1254 78.0443 25.1255 78.4145 25.1257V26.2398H79.508V28.4397L79.5143 28.4336H78.4064V30.6439L78.4125 30.6378H77.298V32.8533H76.202V33.9577H75.1137V36.1399H76.2119V35.0475C76.9618 35.0475 77.6876 35.0475 78.4134 35.0476V36.1619H77.3108V37.2601H75.1186V41.6789H76.1931V42.7759H75.1212V43.8586H77.3132V41.6623C77.6956 41.6623 78.0543 41.6623 78.413 41.6624V42.7542H80.5981V41.6689H78.4064V39.4584H79.5215V40.5603H81.7212V41.6503H82.8173V40.5603H90.5208V39.4552H89.4306V38.3629H88.3299C88.3298 37.258 88.3297 36.153 88.3295 35.0482H89.4327V33.945H90.5354V30.6373H92.7398V26.2275H96.0482V25.1246H98.2421V22.9157H97.1496C97.1496 22.5344 97.1496 22.1762 97.1497 21.818H98.2607V20.7208C98.6281 20.7188 98.9955 20.7168 99.363 20.7147V22.9305H101.547V24.0341H100.458V26.2395H99.3669C99.3669 26.6223 99.3669 26.9809 99.3665 27.3395H98.2518V28.4441H96.0555V29.541H94.9638V32.8283H96.0488V29.5343H97.1636V32.8343H99.3442V30.6328H98.2668V29.5349H99.3606V27.3338H102.673V24.0394H103.779V25.1155H104.877V22.9403H105.962V26.2369H103.788V27.3426H105.959V28.4488H100.476V31.7512H101.554V35.0386H100.453V33.9608H97.1685V37.2527H98.2596V38.3627H96.0409V35.0641H94.9439V37.2601H93.8429V33.9501C93.4601 33.9501 93.1017 33.9502 92.7432 33.9503V31.76H91.6582V33.9438H92.75V36.1577H91.6388V35.0667H90.5553V36.1513H91.6453C91.6451 36.5207 91.6448 36.8901 91.6447 37.2595H90.5544V38.3559H91.6447V41.6733H90.5562V42.7765H91.628V43.8801H90.5417V46.0807H89.4255V49.3733H88.3281V46.081H86.1258C86.1282 45.7132 86.1304 45.3455 86.1326 44.9778H87.2168V43.889H86.1394C86.1394 44.265 86.1394 44.6244 86.1389 44.9834L85.0219 44.9775C85.0222 44.24 85.0225 43.5026 85.0228 42.765H87.2193V41.681H85.0291V42.7715H83.9262V44.9779H81.7345V46.0733H83.9262V47.1631H85.0225V46.0732C85.3924 46.0737 85.7623 46.074 86.1323 46.0744V48.2941H85.0398V49.3927H86.1351V50.4912H87.2271V51.5927L87.2331 51.5865H83.9341V53.7969H86.1365V54.8853H92.7471V53.7913H93.8492V54.8815H96.0481V53.7912H97.1651V54.8841H98.2633V50.4978H99.3622V54.8797H102.654V53.7887H100.479V52.6819H101.547V51.5835H100.475V50.4765H101.572V49.3773H102.655V48.2781H101.56V46.0738C101.93 46.0735 102.299 46.0733 102.669 46.073V47.1657H104.877V46.081H105.962V48.2892H103.781V49.3878H104.855V51.5974H102.683V52.696H103.772V53.7775H104.878V52.7065H105.985V54.8841H107.083V52.6866H108.165V51.5803H107.089V50.5014H110.388V52.6955H109.297V54.8813H111.484V53.7912H112.6V52.6842H115.882V50.5052H114.787V51.5761H111.503V49.3783H112.593V48.2724H113.679V47.1746H112.585V46.0737H113.697V44.978H114.804V43.8639H115.886V38.3734H113.71V41.6733H114.781V42.7795H113.704C113.704 43.5308 113.704 44.2574 113.704 44.9837H112.591V46.0801H111.477V44.9616H109.27C109.27 44.5796 109.27 44.2207 109.27 43.8623H110.388V42.7586H111.475C111.475 42.3749 111.475 42.0156 111.475 41.6571H112.574V39.4642H111.483V38.3551H110.382V37.2488H109.275V36.1691H108.169V37.2689C107.786 37.2689 107.426 37.2689 107.067 37.2684V36.1693H105.977V37.261H104.889V40.5532H107.063V39.4552H105.971V37.2543C106.338 37.2569 106.705 37.2594 107.073 37.262V38.3659H109.269V39.4697H108.19V40.5512H110.39V39.4575C110.772 39.4575 111.131 39.4575 111.49 39.4577C111.487 40.1927 111.484 40.9276 111.482 41.6626H109.277V43.8678C108.91 43.8704 108.544 43.8732 108.177 43.8756V42.7844H107.094V43.8691H108.184V44.9784H104.869C104.869 44.6086 104.868 44.239 104.868 43.8692H105.959V42.7859H104.874V43.8757H103.786V44.9717H104.876C104.879 45.3435 104.881 45.7153 104.884 46.0865C104.143 46.0842 103.403 46.0819 102.662 46.0796V42.7626H101.561V41.663H103.751V39.4525H102.682V38.3533H103.755V37.2473H102.678V35.0464H103.751V33.9406H102.681V30.6578H103.778V31.749H104.884V35.0374H105.981V33.9422H107.062V32.836H105.986V29.5527H108.183V30.6441H107.093V31.7402H108.183V35.033H110.393V31.7372H112.601V30.6308H113.699V29.5486H114.798V30.6236H115.885V28.4316H113.688C113.688 28.0486 113.688 27.6896 113.688 27.3307H115.88V24.0381H113.708V25.1385H114.783V26.2366H113.695V27.3374H112.578V29.5483H111.48V30.6308H110.382V27.3271H107.094V26.2221H111.471V25.1176H107.069V19.6304H105.964V21.8093H104.867V20.7362H103.761V22.9084H102.663V19.6122H103.779V18.5036H104.855V17.4057H103.766V16.3001H102.677V15.2025H104.855V14.1142H100.476V15.2141H101.553V16.3127H100.465V17.4139H99.3478V14.116H98.2493V16.3136H97.1684V19.6246H98.2675C98.2675 20.0081 98.2675 20.3675 98.267 20.7264H97.1562V21.8245H96.0431V18.5162H94.9456V17.4265H93.8497V18.5158C93.4797 18.5159 93.1098 18.5159 92.7398 18.5159V17.4H91.6323V16.3026H90.5276V14.1148H88.3291V15.2092C87.9459 15.2092 87.5873 15.2092 87.2284 15.209V14.1185H86.1315V15.2072H85.0408V16.2909H86.1253V15.2008ZM74 56H117V13H74V56Z" fill="white"/>
<path fill-rule="evenodd" clip-rule="evenodd" d="M97.1075 36.5943H96V33.311H99.3343V34.386H100.452V31.1074H99.3571V27.8134H104.924V26.7101H102.72V25.6073H104.927V22.3193H103.826V24.4889H102.711V23.4156H101.588V26.7014C100.456 26.7014 99.3405 26.7014 98.2251 26.7013L98.2317 26.7074V25.6099H99.3391V23.4104H100.445V22.3096H98.2277V20.0997L98.2203 20.1061H99.3533V21.1911H100.468V19.0063H101.585L101.578 19V22.2875H102.692V20.121H103.815V21.1913H104.929V19.0181H106.05V24.4909H110.52V25.5927H106.076V26.6947H109.414V29.9897H110.528V28.9101H111.643V26.7049H112.777L112.77 26.6984V27.7964H115V29.9827H113.897V28.9105H112.781V29.9897H111.667V31.0932H109.425V34.3805H107.182V31.0964L107.175 31.1028H108.282V29.9969H107.175L107.182 30.0031V28.9146H104.951V32.1892H106.043V33.2925H104.947V34.3848H103.832V31.105H102.709V30.0167H101.596V33.2909H102.683V34.3939H101.593V36.5889H102.686V37.692H101.597V38.7885H102.682V40.9931H100.459L100.465 41V38.7933H99.3403L99.3467 38.7997V36.5899H100.444V35.4895H98.2196V34.4142H97.1011V36.6012L97.1075 36.5943Z" fill="black"/>
<path fill-rule="evenodd" clip-rule="evenodd" d="M91.5049 52.7964H92.5569V51.7197H91.5049V52.7964ZM93.6394 48.41H92.5548V49.5147H91.5062V50.5938H93.6335C93.6335 49.8535 93.6335 49.1288 93.6336 48.4041H94.6953V47.3213H93.6394V48.41ZM86.1311 46.209H88.2721V49.4963H89.3391V46.2088H90.4243L90.4181 46.2019V47.2907H92.5682V45.1009L92.562 45.1073H93.6401V44L93.6339 44.0063H94.7176V46.1949H95.7835V45.1195H98.9939V46.2083L99 46.2019H96.8498V47.3091L96.8561 47.3027H95.7738V51.7176H93.634V53.9144L93.64 53.9076H92.5685V55H86.1413V53.9132H84V51.7062H87.2074V53.8949H88.283V52.8075H89.3343V51.7123H87.2017V50.6126H86.1399V49.5157H85.0751V48.4188H86.1372V46.2025L86.1311 46.209Z" fill="black"/>
<path fill-rule="evenodd" clip-rule="evenodd" d="M81.5609 31.5934H82.6294V30.5186H81.5609V31.5934ZM80.4647 27.1925H82.6249V26.1132H80.4647V27.1925ZM79.356 28.3101V26.1132H78.272V25.0006L78.2655 25.0073H83.7265V26.0924H84.8149V25.0067H85.9215L85.9154 25V26.1133H87V27.2069H85.9117V29.4105H84.8233V27.2198H83.7478V29.4045H84.8295V30.5195H83.7446V31.6164H84.8144V32.7124H81.562V33.8172H82.6251V34.8951H80.4465V33.826H78.2647V34.916L78.2709 34.9091H76.0886V36H75V33.8207H76.0788V32.7178H77.1653V30.5053H78.2701C78.2702 30.8689 78.2702 31.2326 78.2702 31.6197H79.3673V32.6974H80.4388V30.5114H78.2641V28.304H79.3623V29.3928H82.623V28.3101H79.356Z" fill="black"/>
<path fill-rule="evenodd" clip-rule="evenodd" d="M106.337 48.4961H109.569V45.2218H106.337V48.4961ZM109.589 51.8158V49.6261H106.339V50.7029H107.399V51.8069H106.334V54H105.253V51.8268H104.162V52.8956H103.073V51.8163H102V50.7199H104.14V48.5149H103.082V47.4185H105.23V45.2147C104.878 45.2147 104.519 45.2147 104.161 45.2144C104.161 45.2142 104.168 45.2207 104.168 45.2207C104.166 44.8497 104.163 44.4787 104.16 44.1077L104.154 44.1144H107.418V43.0073L107.412 43.0138C107.772 43.0113 108.134 43.0086 108.495 43.0063C108.495 43.0065 108.488 43 108.488 43V44.0976H110.661V45.2138H111.759L111.752 45.2073V46.3061H112.831V47.4017H111.76V48.5054H110.687V50.6987H113.922V49.63H115V51.8046H111.768V52.9093H110.668L110.674 52.9162V51.8096H109.583L109.589 51.8158Z" fill="black"/>
<path fill-rule="evenodd" clip-rule="evenodd" d="M86.999 15.0944H87.9964V14H89.9889V16.188H90.9901V17.2855H91.9936V18.4017L92 18.3952H90.9917V19.5096H90.0016V20.6066H89.0025V21.7094C88.6697 21.7069 88.3368 21.7042 88.004 21.7018V20.6207H87.0106V21.6952C87.3499 21.6952 87.6796 21.6952 88.0091 21.6955C88.0088 22.0643 88.0088 22.433 88.0088 22.8063H89.0025V25H87.9929V23.9088H86.9983L87.0045 23.915V22.8151H86.0062V18.3957L86 18.4024H86.9942V19.4884H87.997V17.2931C88.3322 17.2924 88.6673 17.2919 89.0025 17.2916C89.0024 17.6552 89.0024 18.0189 89.0024 18.3846H89.9849V17.2976H88.9969V16.2086H88.0025V17.2991H87.0051V15.0877L86.999 15.0944Z" fill="black"/>
<path fill-rule="evenodd" clip-rule="evenodd" d="M101.006 46V48.2518H102V49.3747H101.017V50.4975H100.021V51.6284H100.994V52.7503H100.024V53.881H101.999V54.9955H99.01V50.5192H98.0119V55H97.0145V53.8836H96L96.0058 53.8905V52.7495H97.0137V49.3744H98.9973V48.2514H97.0071V47.1263L97.0013 47.1328H99.0099V46L99.004 46.0066C99.6736 46.0064 100.343 46.0064 101.013 46.0064L101.006 46Z" fill="black"/>
<path fill-rule="evenodd" clip-rule="evenodd" d="M76.1521 20.8526H81.8592V15.1439H76.1521V20.8526ZM75 22H83V14H75V22Z" fill="black"/>
<path fill-rule="evenodd" clip-rule="evenodd" d="M108.146 20.8542H113.853V15.1462H108.146V20.8542ZM107 22H115V14H107V22Z" fill="black"/>
<path fill-rule="evenodd" clip-rule="evenodd" d="M76.1427 53.8617H81.8494V48.1537H76.1427V53.8617ZM75 55H83V47H75V55Z" fill="black"/>
<path fill-rule="evenodd" clip-rule="evenodd" d="M87.761 38.0036H88.8858V38.9929H90V39.9937H82.1272L82.1336 40V38.9958H81.0003L81.0067 39.0015C81.0045 38.6668 81.0024 38.3321 81.0001 37.9974H82.1149V37.0042H81V36H83.2602V38.9851H85.5168V37.9964L85.51 38.0021C85.8869 38.0024 86.2639 38.0026 86.6408 38.0029L86.6344 37.9973V38.985H87.7677V37.9971L87.761 38.0036Z" fill="black"/>
<path fill-rule="evenodd" clip-rule="evenodd" d="M90.0057 46V43.721H90.9892V42.5781H90.0189V41.4356H91.0043V38.0001L90.9981 38.0064C91.6655 38.0064 92.3327 38.0064 92.9999 38.0065L92.9943 38V39.1549H92.0087V40.2904H92.9823V41.4416H92.01V42.5771H92.9943V43.7156L93 43.7092H91.9962V44.8575L92.002 44.851H90.9938V45.9928H90L90.0057 46Z" fill="black"/>
<path fill-rule="evenodd" clip-rule="evenodd" d="M77.9997 42.005H76.9982V44H75.0024V43.0166H75.9784V42.0201H75V38.0063H76.9961L76.9904 38V39.0113H76.0045V40.0088H78L77.9937 40.0031V42.011L77.9997 42.005Z" fill="black"/>
<path fill-rule="evenodd" clip-rule="evenodd" d="M94.0027 19.0059H95.0006V22.0036H96.0126L96.0066 21.9978V22.9923H97V24.9938H95.0052L95.0108 25V23.9953H94.0026L94.0083 24.001V22.992H93V21.9974H93.9918V21.0035H93C93.002 20.6688 93.0038 20.3339 93.0057 19.999L93.0001 20.0047H94.0082V19L94.0027 19.0059Z" fill="black"/>
<path fill-rule="evenodd" clip-rule="evenodd" d="M98.0003 21V19.9997H97V16.9945H97.9839V15H98.9835V17.9933H100L99.9943 17.987V19.9974H98.9908V20.995L98.9973 20.989C98.6629 20.9909 98.3285 20.9928 97.9939 20.9944C97.9937 20.9942 98.0003 21 98.0003 21Z" fill="black"/>
<path fill-rule="evenodd" clip-rule="evenodd" d="M100.006 17.5969V16.3965H100.996V15.1989H100.016V14H104V15.1863H102.018V16.3827H103.009V17.588H104V18.7846H103.021V19.9931H102.006L102.012 20V17.5893H100L100.006 17.5969Z" fill="black"/>
<path fill-rule="evenodd" clip-rule="evenodd" d="M93 37.2792H93.9971V35H94.9907V38.4234H97L96.9943 38.4164V43L97 42.9935H95.9918V40.7038H94.9977L95.0034 40.7106V39.5563H93.9935V38.4163H93L93.0057 38.4229C93.0057 38.0393 93.0058 37.6558 93.0058 37.272L93 37.2792Z" fill="black"/>
<path fill-rule="evenodd" clip-rule="evenodd" d="M113.007 44V41.9991H113.99V40.995H113.012V38H115V42.9834H114.011V43.9945C113.665 43.9945 113.332 43.9945 113 43.9943C113 43.9942 113.007 44 113.007 44Z" fill="black"/>
<path fill-rule="evenodd" clip-rule="evenodd" d="M91.9937 26.184V30.9925H89.9982L90.0038 31V29.786H90.9842V28.5887H89L89.0057 28.5954V27.3798H90.0135V25H91.0045V26.1909H92L91.9937 26.184Z" fill="black"/>
<path fill-rule="evenodd" clip-rule="evenodd" d="M96.006 29.4077V28.2113H97.9918V27.0065C98.3417 27.0065 98.6707 27.0065 99 27.0066C99.0001 27.0067 98.9941 27 98.9941 27C98.9943 27.7917 98.9943 28.5834 98.9943 29.4011H98.0054V30.5986H98.9794V33H97.008V29.4004H96L96.006 29.4077Z" fill="black"/>
<path fill-rule="evenodd" clip-rule="evenodd" d="M100.996 42V42.9957H101.994V45.9996L102 45.9936C101.665 45.9938 101.331 45.9941 100.996 45.9943L101.002 46V44.989H99.9938V43.9953H98.0056V42.999L98 43.0046H100.007V42.0063H101.002L100.996 42Z" fill="black"/>
<path fill-rule="evenodd" clip-rule="evenodd" d="M89.9944 30.3967V33.9925H88.9898L88.9956 34V32.7865H87.9821V30.3956H87V29.1943H87.9931V28.0068H88.9956L88.9898 28V30.4042H90L89.9944 30.3967Z" fill="black"/>
<path fill-rule="evenodd" clip-rule="evenodd" d="M107 37.0038H107.997V36H108.997V36.9856H109.998V37.9954H110.994V39.0079L111 39.0018H110.005V40H108.016V39.0127H108.992V38.0053H107.005C107.005 37.6603 107.005 37.329 107.006 36.9972C107.006 36.997 107 37.0038 107 37.0038Z" fill="black"/>
<path fill-rule="evenodd" clip-rule="evenodd" d="M76.994 25.0032V28H75.9939V26.0143H75V24.0063H75.9937L75.9879 24V25.0087H77L76.994 25.0032Z" fill="black"/>
<path fill-rule="evenodd" clip-rule="evenodd" d="M95.9944 24.9967V25.9943H93L93.0062 26C93.0042 25.3334 93.0023 24.6669 93.0006 24.0002C93.6676 24.002 94.3348 24.0038 95.0021 24.0057L94.9964 24V25.0028H96L95.9944 24.9967Z" fill="black"/>
<path fill-rule="evenodd" clip-rule="evenodd" d="M113.006 27V25.999H113.999V25.0005H113.018V24H115V26.9939C114.335 26.9939 113.668 26.9939 113 26.994L113.006 27Z" fill="black"/>
<path fill-rule="evenodd" clip-rule="evenodd" d="M75 44.9946H77.9997V44H79V46H75V44.9946Z" fill="black"/>
<path fill-rule="evenodd" clip-rule="evenodd" d="M114.006 36V32H115V35.994H114L114.006 36Z" fill="black"/>
<path fill-rule="evenodd" clip-rule="evenodd" d="M87.9937 35.0002C87.9939 36 87.994 37.0001 87.9941 38L88 37.9935C87.6657 37.9935 87.3313 37.9935 86.997 37.9936L87.0027 37.9992V35.9944H86V35C86.6667 35.002 87.3333 35.0039 88 35.0058L87.9937 35.0002Z" fill="black"/>
<path fill-rule="evenodd" clip-rule="evenodd" d="M93 16V14H93.9885V14.9983H96V16H93Z" fill="black"/>
<path fill-rule="evenodd" clip-rule="evenodd" d="M104.995 37V39.0013H106V40H104V37.006H105.001L104.995 37Z" fill="black"/>
<path fill-rule="evenodd" clip-rule="evenodd" d="M81 39.9936H79.009V38.9972H78L78.0063 39.0028V38H80.0017V39.0028H80.9998L80.9941 38.9972V40L81 39.9936Z" fill="black"/>
<path fill-rule="evenodd" clip-rule="evenodd" d="M91.0063 36.9994C91.0064 36.6653 91.0066 36.3311 91.0068 35.9968L91.0008 36.0027H92.0057V34L91.9999 34.0057H92.9942V37L93 36.9937H91L91.0063 36.9994Z" fill="black"/>
<path fill-rule="evenodd" clip-rule="evenodd" d="M110.993 41V41.9967H110.011V42.9949C109.66 42.9949 109.33 42.9949 109 42.9946C109 42.9944 109.006 43.0002 109.006 43C109.006 42.3454 109.006 41.6912 109.006 41.0055C109.682 41.0055 110.341 41.0055 111 41.0057C111 41.0059 110.993 41 110.993 41Z" fill="black"/>
<path fill-rule="evenodd" clip-rule="evenodd" d="M106 19H107V16H106V19Z" fill="black"/>
<path fill-rule="evenodd" clip-rule="evenodd" d="M77.0058 37V36.0071H78.0119V35C78.0119 34.9999 78.0061 35.006 78.0061 35.006H79V36.9937H77L77.0058 37Z" fill="black"/>
<path fill-rule="evenodd" clip-rule="evenodd" d="M114 49H115V46H114V49Z" fill="black"/>
<path fill-rule="evenodd" clip-rule="evenodd" d="M78 24.9939C77.6655 24.9937 77.331 24.9936 76.9964 24.9935L77.0022 24.999V23.9881H76L76.0058 23.9944V23H77.9941V25L78 24.9939Z" fill="black"/>
<path fill-rule="evenodd" clip-rule="evenodd" d="M95.9939 30V33H95V30.0061H96L95.9939 30Z" fill="black"/>
<path fill-rule="evenodd" clip-rule="evenodd" d="M84 23H85V20H84V23Z" fill="black"/>
<path fill-rule="evenodd" clip-rule="evenodd" d="M110.994 54.0054V55H109V53.0056H109.995L109.989 53V54.0117H111L110.994 54.0054Z" fill="black"/>
<path fill-rule="evenodd" clip-rule="evenodd" d="M84 45.9939H82V45.0059H84L83.9944 45C83.9944 45.3333 83.9944 45.6666 83.9943 46L84 45.9939Z" fill="black"/>
<path fill-rule="evenodd" clip-rule="evenodd" d="M92 33.9941H91V32H91.9938C91.9938 32.6669 91.9938 33.3335 91.9939 34C91.994 33.9999 92 33.9941 92 33.9941Z" fill="black"/>
<path fill-rule="evenodd" clip-rule="evenodd" d="M103 46.006C103.667 46.0081 104.333 46.0102 105 46.0126C105 46.0128 104.994 46.0068 104.994 46.007C104.994 46.334 104.994 46.661 104.994 47H103.006V46C103.006 46 103 46.006 103 46.006Z" fill="black"/>
<path fill-rule="evenodd" clip-rule="evenodd" d="M111.007 39.0059H112V40.9947C111.664 40.9947 111.332 40.9947 111 40.9945C111 40.9943 111.007 41.0002 111.006 41C111.008 40.3332 111.011 39.6666 111.013 39C111.013 38.9999 111.007 39.0059 111.007 39.0059Z" fill="black"/>
<path fill-rule="evenodd" clip-rule="evenodd" d="M108 24H110V23H108V24Z" fill="black"/>
<path fill-rule="evenodd" clip-rule="evenodd" d="M78 42.006H80V43H78.006V42C78.006 41.9999 78 42.006 78 42.006Z" fill="black"/>
<path fill-rule="evenodd" clip-rule="evenodd" d="M85.0057 43V42H87V42.9941H85L85.0057 43Z" fill="black"/>
<path fill-rule="evenodd" clip-rule="evenodd" d="M84.9943 43C84.9941 43.6666 84.9938 44.333 84.9935 44.9997L84.9998 44.994C84.6665 44.994 84.3332 44.994 84 44.9941L84.0056 45V43.0058H85L84.9943 43Z" fill="black"/>
<path fill-rule="evenodd" clip-rule="evenodd" d="M88 45H89V43H88V45Z" fill="black"/>
<path fill-rule="evenodd" clip-rule="evenodd" d="M86 18.9938H84V18H85.9938V19L86 18.9938Z" fill="black"/>
<path fill-rule="evenodd" clip-rule="evenodd" d="M95.9942 53V54H94.0056V53.0001L94 53.0063H96L95.9942 53Z" fill="black"/>
<path fill-rule="evenodd" clip-rule="evenodd" d="M93.006 18.9997V18H93.9945V19L94 18.994H93L93.006 18.9997Z" fill="black"/>
<path fill-rule="evenodd" clip-rule="evenodd" d="M92 19.0058C92.3334 19.0058 92.6667 19.0058 93 19.0057L92.9941 19.0001V20L92.9996 19.9943H92.0063V19L92 19.0058Z" fill="black"/>
<path fill-rule="evenodd" clip-rule="evenodd" d="M81.9943 40V41H81.0059V40L81 40.0065C81.3333 40.0063 81.6667 40.0063 82 40.0063L81.9943 40Z" fill="black"/>
<path fill-rule="evenodd" clip-rule="evenodd" d="M96.0057 22V21.0053C96.3407 21.0053 96.6703 21.0053 97 21.0055C97.0002 21.0056 96.9938 20.9998 96.9939 21C96.9941 21.324 96.9941 21.6478 96.9941 21.9941H96L96.0057 22Z" fill="black"/>
<path fill-rule="evenodd" clip-rule="evenodd" d="M81 24H82V23H81V24Z" fill="black"/>
<path fill-rule="evenodd" clip-rule="evenodd" d="M111 24H112V23H111V24Z" fill="black"/>
<path fill-rule="evenodd" clip-rule="evenodd" d="M86.0056 25V24.0056H87L86.9938 24V24.9939H86L86.0056 25Z" fill="black"/>
<path fill-rule="evenodd" clip-rule="evenodd" d="M81 44H82V43H81V44Z" fill="black"/>
<path fill-rule="evenodd" clip-rule="evenodd" d="M93 28H94V27H93V28Z" fill="black"/>
<path fill-rule="evenodd" clip-rule="evenodd" d="M108 43.994H107V43H107.994V44L108 43.994Z" fill="black"/>
<path fill-rule="evenodd" clip-rule="evenodd" d="M108 31.9942H107V31.0057H108L107.994 31C107.994 31.3334 107.994 31.6667 107.994 32L108 31.9942Z" fill="black"/>
<path fill-rule="evenodd" clip-rule="evenodd" d="M86.0064 45V44H87V44.9946C86.671 44.9946 86.3357 44.9946 86 44.9944L86.0064 45Z" fill="black"/>
<path fill-rule="evenodd" clip-rule="evenodd" d="M104 44.994H103V44.0059H103.998L103.992 44C103.993 44.3333 103.993 44.6666 103.994 45L104 44.994Z" fill="black"/>
<path fill-rule="evenodd" clip-rule="evenodd" d="M84.9938 45.9941C84.6627 45.9938 84.3316 45.9934 84.0006 45.993L84.0061 45.9992V45L84 45.0057C84.3332 45.0075 84.6665 45.0091 85 45.011C85.0002 45.0112 84.9938 45.0056 84.9938 45.0056C84.992 45.3372 84.9902 45.6686 84.9881 46L84.9938 45.9941Z" fill="black"/>
<path fill-rule="evenodd" clip-rule="evenodd" d="M88.9943 34V34.9945H88L88.0062 35V34.0062H89L88.9943 34Z" fill="black"/>
<path fill-rule="evenodd" clip-rule="evenodd" d="M112.006 46V45.0054C112.342 45.0054 112.671 45.0054 113 45.0056C113 45.0057 112.993 44.9999 112.994 45C112.994 45.3246 112.994 45.6487 112.994 45.9942C112.65 45.9942 112.325 45.9942 112 45.9941L112.006 46Z" fill="black"/>
<path fill-rule="evenodd" clip-rule="evenodd" d="M84.9943 46V47H84.0057V46.0001L84 46.0063H85L84.9943 46Z" fill="black"/>
<path fill-rule="evenodd" clip-rule="evenodd" d="M91 35.994H90V35H90.9939V36L91 35.994Z" fill="black"/>
<path fill-rule="evenodd" clip-rule="evenodd" d="M87 14.9939C86.6667 14.9933 86.3333 14.9929 86 14.9923L86.0056 14.9982V14H86.994V15L87 14.9939Z" fill="black"/>
<path fill-rule="evenodd" clip-rule="evenodd" d="M105.006 44V43H106V43.994H105L105.006 44Z" fill="black"/>
<path fill-rule="evenodd" clip-rule="evenodd" d="M111 36H112V35H111V36Z" fill="black"/>
<path fill-rule="evenodd" clip-rule="evenodd" d="M106.006 37.993V37H106.995C106.995 37.3359 106.995 37.6678 106.995 38C106.994 38.0001 107 37.9934 107 37.9936C106.666 37.9916 106.333 37.9893 106 37.987C106 37.9871 106.006 37.993 106.006 37.993Z" fill="black"/>
<path fill-rule="evenodd" clip-rule="evenodd" d="M84.9942 15V16H84V15.0059H85L84.9942 15Z" fill="black"/>
<path fill-rule="evenodd" clip-rule="evenodd" d="M113.994 37V38H113V37.0061H114L113.994 37Z" fill="black"/>
<path fill-rule="evenodd" clip-rule="evenodd" d="M90.9999 37.9944H90V37.0057H91L90.9937 37V38L90.9999 37.9944Z" fill="black"/>
<path fill-rule="evenodd" clip-rule="evenodd" d="M98.0058 38V37L98 37.0061H99V37.9939H98L98.0058 38Z" fill="black"/>
<path fill-rule="evenodd" clip-rule="evenodd" d="M114 54H115V53H114V54Z" fill="black"/>
<path fill-rule="evenodd" clip-rule="evenodd" d="M98 38.4148H98.9862V37.2765H98V35H98.9974V36.1193H100.981V37.2647H100.003V39.5651H99.0148V40.6899H99.9969V39.5583H101V41.8553H100.005V43H98V38.4148Z" fill="white"/>
<path fill-rule="evenodd" clip-rule="evenodd" d="M99.9982 18H102V20.0094H101.004V22H100.01V21.0115H99V20.0128H99.9982V18Z" fill="white"/>
<path fill-rule="evenodd" clip-rule="evenodd" d="M108 32C108 31.6667 108 31.3335 108 31H109V32H108Z" fill="white"/>
<path fill-rule="evenodd" clip-rule="evenodd" d="M97.6222 42.5677V43.7071H99.8636V44.8437H101V45.9999C100.247 45.9999 99.4945 45.9999 98.7417 46V44.8707H95.3696V45.9863H94.25V43.7161H93.1118V42.5774H92.0014V41.4418H93.0984V40.2906H92V39.1549H93.1118V38H94.2321V39.1375H95.3708V40.2894H94.2567V42.5531H95.3642V40.2828H96.4854V42.5677H97.6222Z" fill="white"/>
<path fill-rule="evenodd" clip-rule="evenodd" d="M95.4102 53H93V51.0065H95.3986V47H96.6118V47.998H99V48.9942H96.6196V51.9879H95.4102V53Z" fill="white"/>
<path fill-rule="evenodd" clip-rule="evenodd" d="M90 46.0055H90.9929V45H92V47H90V46.0055Z" fill="white"/>
<path fill-rule="evenodd" clip-rule="evenodd" d="M92.9944 48V50H91V49.0144H91.9832V48.0055H93L92.9944 48Z" fill="white"/>
<path fill-rule="evenodd" clip-rule="evenodd" d="M87 51.0056H89V52.0064H88.0141V53H87.0055V51L87 51.0056Z" fill="white"/>
<path fill-rule="evenodd" clip-rule="evenodd" d="M97 47H99V46H97V47Z" fill="white"/>
<path fill-rule="evenodd" clip-rule="evenodd" d="M92 45H93V44H92V45Z" fill="white"/>
<path fill-rule="evenodd" clip-rule="evenodd" d="M93.0055 48V47H94V47.9944H93L93.0055 48Z" fill="white"/>
<path fill-rule="evenodd" clip-rule="evenodd" d="M91 53H92V52H91V53Z" fill="white"/>
<path fill-rule="evenodd" clip-rule="evenodd" d="M88.7974 33.6686H87.7299V34.7349C87.0162 34.7328 86.3027 34.7308 85.589 34.7287L85.5948 34.7348C85.5955 34.3798 85.5963 34.0247 85.597 33.6697H86.6455V31.5502H85.6037C85.6037 32.2696 85.6037 32.9725 85.6034 33.6753C85.2464 33.6751 84.8899 33.6751 84.5213 33.6751V34.7348L84.5271 34.7289H83.4537V35.8011L83.4596 35.7949H81.3183V36.8673L81.3246 36.8615H80.2512V37.9336L80.2568 37.9277H78.122V39H76V37.9379H77.0484V36.8614H79.1704V34.7349H78.1159V33.6794H80.247V34.7147H82.375V33.671H81.3365V32.6009H84.5134V31.5396H83.4685V30.4774H84.5281V29.3976L84.5222 29.4035H85.5852V27.2696H86.6482V26.2105H85.5888V25.1324H86.6563V24.0661H87.7189V25.1213H88.7976V23L88.7915 23.0057H89.8705V24.0721H91.9999L91.994 24.0664C91.9959 24.7792 91.998 25.4918 92 26.2046H90.9354V25.1484H89.8754V27.259H88.7974V28.3372H87.732V29.3936H86.6765V30.4622H87.7204V32.5891H88.7974V33.6686Z" fill="white"/>
<path fill-rule="evenodd" clip-rule="evenodd" d="M78 31.0056H80V33H79.0146V32.0167H78.0056C78.0056 31.6637 78.0056 31.3317 78.0055 31L78 31.0056Z" fill="white"/>
<path fill-rule="evenodd" clip-rule="evenodd" d="M79 28.0056H82V29H79.0057V28L79 28.0056Z" fill="white"/>
<path fill-rule="evenodd" clip-rule="evenodd" d="M81 27H83V26H81V27Z" fill="white"/>
<path fill-rule="evenodd" clip-rule="evenodd" d="M85 29.9945H84V28H84.9943V30L85 29.9945Z" fill="white"/>
<path fill-rule="evenodd" clip-rule="evenodd" d="M81 32H82V31H81V32Z" fill="white"/>
<path fill-rule="evenodd" clip-rule="evenodd" d="M107.01 47.996H107.993V47.014H107.01V47.996ZM106 49H109V46H106V49Z" fill="white"/>
<path fill-rule="evenodd" clip-rule="evenodd" d="M110 53H111V52H110V53Z" fill="white"/>
<path fill-rule="evenodd" clip-rule="evenodd" d="M92.0028 19V20.1987H93.0013C92.9994 20.6004 92.9976 21.0021 92.9956 21.4037L93.0013 21.3974H92.0145V22.6026H93.0013L92.9956 22.5961V23.7895H94V25C93.3323 24.9977 92.6646 24.9956 91.997 24.9934L92.0026 24.9999V23.7904H90.9924V21.3976H90L90.0055 21.4037V20.2115H90.995V19H92.0028Z" fill="white"/>
<path fill-rule="evenodd" clip-rule="evenodd" d="M88 21.9937H87V21H87.9947C87.9947 21.3286 87.9947 21.6641 87.9945 22C87.9944 22.0002 88 21.9937 88 21.9937Z" fill="white"/>
<path fill-rule="evenodd" clip-rule="evenodd" d="M89.0057 22V21.0052H90L89.9944 21V21.9947H89L89.0057 22Z" fill="white"/>
<path fill-rule="evenodd" clip-rule="evenodd" d="M89 22.9947H88.005C88.005 22.6604 88.005 22.3303 88.0053 22C88.0055 21.9998 87.9999 22.006 88 22.0058C88.3335 22.0079 88.6667 22.0103 89 22.0125L88.9943 22.0072V23L89 22.9947Z" fill="white"/>
<path fill-rule="evenodd" clip-rule="evenodd" d="M88.0055 17V16H88.9944V16.9986L89 16.993C88.6666 16.9934 88.3334 16.9939 88 16.9944L88.0055 17Z" fill="white"/>
<path fill-rule="evenodd" clip-rule="evenodd" d="M89 18.0055H90V19H89.0056C89.0056 18.6654 89.0056 18.3327 89.0057 18L89 18.0055Z" fill="white"/>
<path fill-rule="evenodd" clip-rule="evenodd" d="M77.2049 19.7868H80.7915V16.2009H77.2049V19.7868ZM76 21H82V15H76V21Z" fill="white"/>
<path fill-rule="evenodd" clip-rule="evenodd" d="M110.213 19.7912H113.799V16.2048H110.213V19.7912ZM109 21H115V15H109V21Z" fill="white"/>
<path fill-rule="evenodd" clip-rule="evenodd" d="M77.2069 52.7883H80.7936V49.1979H77.2069V52.7883ZM76 54H82V48H76V54Z" fill="white"/>
<path fill-rule="evenodd" clip-rule="evenodd" d="M85.9964 35V35.9992H87V38.0136C86.666 38.0134 86.3322 38.0131 85.9982 38.0129V37.0226H85.0164V38.0071H86.0043V39H84.0055V36.0026L84 36.0084H85.0036V35.0002L84.9981 35.0057H86.0018L85.9964 35Z" fill="white"/>
<path fill-rule="evenodd" clip-rule="evenodd" d="M82 39H81.0053V38L81 38.0057H81.9999L81.9942 38.0002C81.9962 38.3336 81.9981 38.6668 82 39Z" fill="white"/>
<path fill-rule="evenodd" clip-rule="evenodd" d="M87 38.0001C87.3333 38 87.6667 38 88 38V39H87V38.0001Z" fill="white"/>
<path fill-rule="evenodd" clip-rule="evenodd" d="M82 40.9999C81.6667 40.9999 81.3334 40.9999 81 41V40H82V40.9999Z" fill="white"/>
<path fill-rule="evenodd" clip-rule="evenodd" d="M81 37.0055H82V37.9945H81.0001L81.0059 38C81.006 37.6667 81.006 37.3333 81.006 37L81 37.0055Z" fill="white"/>
<path fill-rule="evenodd" clip-rule="evenodd" d="M91 37.9999V37H93C93 37.3334 92.9999 37.6667 92.9999 38C92.3334 37.9999 91.6667 37.9999 91 37.9999Z" fill="white"/>
<path fill-rule="evenodd" clip-rule="evenodd" d="M93 20H94V19H93V20Z" fill="white"/>
<path fill-rule="evenodd" clip-rule="evenodd" d="M93 21.0053H94V21.9947H93L93.0058 22V21L93 21.0053Z" fill="white"/>
<path fill-rule="evenodd" clip-rule="evenodd" d="M95 25H96V24H95V25Z" fill="white"/>
<path fill-rule="evenodd" clip-rule="evenodd" d="M90.0118 30H89V28H91V28.9931H90.0118V30Z" fill="white"/>
<path fill-rule="evenodd" clip-rule="evenodd" d="M76 25H77V24H76V25Z" fill="white"/>
<path fill-rule="evenodd" clip-rule="evenodd" d="M85 46H84C84.0001 45.6667 84.0001 45.3335 84.0001 45.0001C84.3334 45 84.6667 45 85 45V46Z" fill="white"/>
<path fill-rule="evenodd" clip-rule="evenodd" d="M99.9941 40V41H99V40.006H100L99.9941 40Z" fill="black"/>
<path fill-rule="evenodd" clip-rule="evenodd" d="M95.9941 41V43H95V41.006H96L95.9941 41Z" fill="black"/>
<path fill-rule="evenodd" clip-rule="evenodd" d="M89 23.0017V21.9981H89.9983V21H90.9903V22.9928H92V24H90.0089V23.0017H89Z" fill="black"/>
<path fill-rule="evenodd" clip-rule="evenodd" d="M86.0066 34V32H87V33.9946C86.6714 33.9946 86.3359 33.9946 86 33.9944C85.9998 33.9942 86.0066 34 86.0066 34Z" fill="black"/>
<path fill-rule="evenodd" clip-rule="evenodd" d="M84.992 35H84V34.0053C84.3407 34.0053 84.6702 34.0053 85 34.0055C85.0003 34.0056 84.9938 33.9998 84.994 34C84.9936 34.3336 84.9928 34.6668 84.992 35Z" fill="black"/>
<path fill-rule="evenodd" clip-rule="evenodd" d="M84 36H85V35H84V36Z" fill="black"/>
<path fill-rule="evenodd" clip-rule="evenodd" d="M82 37C82 37.3333 82 37.6666 81.9999 38H81V37H82Z" fill="black"/>
<path fill-rule="evenodd" clip-rule="evenodd" d="M108 48H109V47H108V48Z" fill="black"/>
<path fill-rule="evenodd" clip-rule="evenodd" d="M92 22H93V21H92V22Z" fill="black"/>
<path fill-rule="evenodd" clip-rule="evenodd" d="M77 19H80V16H77V19Z" fill="black"/>
<path fill-rule="evenodd" clip-rule="evenodd" d="M110 19H113V16H110V19Z" fill="black"/>
<path fill-rule="evenodd" clip-rule="evenodd" d="M77 53H80V50H77V53Z" fill="black"/>
<path fill-rule="evenodd" clip-rule="evenodd" d="M85 37.994H84V37H84.9938V38L85 37.994Z" fill="black"/>
<path fill-rule="evenodd" clip-rule="evenodd" d="M66 5.27997H67V3H66V5.27997ZM66 9.84003H67V7.56006H66V9.84003ZM66 14.4H67V12.12H66V14.4ZM66 18.96H67V16.6801H66V18.96ZM66 23.5199H67V21.2399H66V23.5199ZM66 28.08H67V25.8001H66V28.08ZM66 32.6399H67V30.3599H66V32.6399ZM66 37.2001H67V34.9201H66V37.2001ZM66 41.7599H67V39.4799H66V41.7599ZM66 46.3201H67V44.04H66V46.3201ZM66 50.88H67V48.5999H66V50.88ZM66 55.4401H67V53.16H66V55.4401ZM66 60H67V57.7199H66V60Z" fill="white"/>
<path fill-rule="evenodd" clip-rule="evenodd" d="M66 64H67V63H66V64Z" fill="white"/>
<path fill-rule="evenodd" clip-rule="evenodd" d="M77.9001 8.54444L77.4934 8.56381C77.4578 8.56381 77.4335 8.55749 77.42 8.54444C77.4111 8.53601 77.4021 8.50583 77.3934 8.45391C77.3756 8.18258 77.2512 7.95645 77.0201 7.77565C76.7931 7.59458 76.4844 7.50405 76.0934 7.50405C75.6535 7.50405 75.2933 7.63992 75.0135 7.91125C74.7335 8.18258 74.5934 8.5509 74.5934 9.01621C74.5934 9.47704 74.7335 9.84325 75.0135 10.1147C75.2933 10.3862 75.6535 10.5219 76.0934 10.5219C76.4802 10.5219 76.7888 10.4399 77.0201 10.2763C77.2466 10.1125 77.3733 9.89912 77.4 9.63636C77.4089 9.58496 77.4177 9.55466 77.4268 9.54609C77.4399 9.53304 77.469 9.52672 77.5132 9.52672H77.8865C77.9577 9.52672 77.9933 9.54385 77.9933 9.57838C77.9933 9.97898 77.8199 10.3173 77.4735 10.5928C77.1355 10.8643 76.6734 11 76.0866 11C75.4733 11 74.9736 10.8213 74.5868 10.4635C74.1958 10.1017 74 9.61501 74 9.00303C74 8.39158 74.1978 7.90479 74.5934 7.54293C74.9844 7.18106 75.4845 7 76.0934 7C76.6887 7 77.1556 7.15102 77.4934 7.4524C77.831 7.7539 78 8.09653 78 8.47987C78 8.52296 77.9667 8.54444 77.9001 8.54444Z" fill="white"/>
<path fill-rule="evenodd" clip-rule="evenodd" d="M79.997 7.49102V7.47798C79.5861 7.47798 79.241 7.61384 78.9617 7.88518C78.682 8.15679 78.5425 8.52512 78.5425 8.99005C78.5425 9.44694 78.682 9.81541 78.9617 10.0952C79.2368 10.371 79.582 10.5086 79.997 10.5086C80.408 10.5086 80.7531 10.3731 81.0324 10.1018C81.3118 9.8303 81.4516 9.46407 81.4516 9.00323C81.4516 8.53777 81.3139 8.16944 81.0386 7.89823C80.7589 7.62676 80.4121 7.49102 79.997 7.49102ZM79.997 7.01278V7C80.568 7 81.0449 7.18081 81.4267 7.54268C81.8089 7.90456 82 8.39149 82 9.00323C82 9.61496 81.8089 10.1018 81.4267 10.4636C81.0486 10.8212 80.572 11 79.997 11C79.4258 11 78.9514 10.8212 78.5733 10.4636C78.1912 10.1018 78 9.61694 78 9.00955C78 8.40204 78.1912 7.91747 78.5733 7.5556C78.9554 7.19385 79.43 7.01278 79.997 7.01278Z" fill="white"/>
<path fill-rule="evenodd" clip-rule="evenodd" d="M84.3379 7.51892L83.4632 7.5257V10.5074H84.3533C84.7477 10.5074 85.0462 10.3743 85.2487 10.1081C85.4511 9.83742 85.5522 9.47148 85.5522 9.00971C85.5522 8.54847 85.439 8.1847 85.2126 7.91852C84.9863 7.65194 84.6947 7.51892 84.3379 7.51892ZM84.343 11H83.0671C83.0462 11 83.0309 10.9933 83.0205 10.9802C83.0068 10.9623 83 10.9424 83 10.9201V7.08633C83 7.0642 83.0068 7.04425 83.0205 7.0266C83.0343 7.00896 83.0497 7 83.0671 7H84.3379C84.8182 7 85.2144 7.18175 85.5265 7.54579C85.8421 7.91405 86 8.39998 86 9.00346C86 9.61563 85.854 10.1013 85.5626 10.461C85.2675 10.8201 84.8609 11 84.343 11Z" fill="white"/>
<path fill-rule="evenodd" clip-rule="evenodd" d="M89.6646 9.18303L87.5528 9.19646V10.5007H89.9132C89.9297 10.5007 89.9481 10.5118 89.969 10.5339C89.9896 10.5563 90 10.5765 90 10.594V10.9133C90 10.9312 89.9896 10.951 89.969 10.9734C89.9522 10.991 89.9338 11 89.9132 11H87.0808C87.0642 11 87.0456 10.9933 87.025 10.9799C87.0082 10.9623 87 10.9425 87 10.9201V7.08673C87 7.06461 87.0082 7.04438 87.025 7.02674C87.0414 7.00882 87.06 7 87.0808 7H89.8512C89.8675 7 89.886 7.01113 89.9069 7.03325C89.9275 7.05551 89.9379 7.07546 89.9379 7.09338V7.41261C89.9379 7.43052 89.9275 7.45034 89.9069 7.47246C89.886 7.49486 89.8675 7.50585 89.8512 7.50585H87.5528V8.67717H89.6646C89.6812 8.67717 89.6997 8.6883 89.7206 8.71056C89.7412 8.73296 89.7516 8.75264 89.7516 8.77028V9.08978C89.7516 9.1077 89.7412 9.12765 89.7206 9.14977C89.6997 9.17203 89.6812 9.18303 89.6646 9.18303Z" fill="white"/>
<path fill-rule="evenodd" clip-rule="evenodd" d="M91 10.5962C91 10.4865 91.0471 10.3891 91.1414 10.3043C91.2358 10.2247 91.3555 10.1846 91.5001 10.1846C91.6447 10.1846 91.764 10.2247 91.8582 10.3043C91.9525 10.3891 92 10.4865 92 10.5962C92 10.7059 91.9525 10.8029 91.8582 10.8879C91.764 10.9626 91.6447 11 91.5001 11C91.3555 11 91.2358 10.9626 91.1414 10.8879C91.0471 10.8029 91 10.7059 91 10.5962ZM91 8.41177C91 8.30207 91.0471 8.20459 91.1414 8.11976C91.2358 8.04028 91.3555 8 91.5001 8C91.6447 8 91.764 8.04028 91.8582 8.11976C91.9525 8.20459 92 8.30207 92 8.41177C92 8.52131 91.9525 8.61849 91.8582 8.70347C91.764 8.78311 91.6447 8.82308 91.5001 8.82308C91.3555 8.82308 91.2358 8.78311 91.1414 8.70347C91.0471 8.61849 91 8.52131 91 8.41177Z" fill="white"/>
<path fill-rule="evenodd" clip-rule="evenodd" d="M95 7L94.9782 10.9082C94.9782 10.9259 94.9662 10.9453 94.942 10.9672C94.9181 10.9893 94.8964 11 94.8772 11H94.4588C94.4397 11 94.4179 10.9893 94.3939 10.9672C94.3696 10.9453 94.3579 10.9259 94.3579 10.9082V7.99846L94.3433 7.9919L93.384 8.71429C93.3697 8.72741 93.3455 8.73411 93.3118 8.73411C93.2782 8.73411 93.2543 8.72741 93.2397 8.71429L93.0161 8.47144C93.0018 8.45831 92.997 8.43647 93.0018 8.40553C93.0111 8.37071 93.0208 8.35088 93.0305 8.34646L94.8124 7H95Z" fill="white"/>
<path fill-rule="evenodd" clip-rule="evenodd" d="M96.0062 11L96 10.5881L97.7385 9.35929C98.1853 9.04152 98.4085 8.69056 98.4085 8.30721C98.4085 8.06315 98.3281 7.86707 98.1671 7.71885C98.0021 7.56636 97.7789 7.49012 97.4971 7.49012C96.8975 7.49012 96.5978 7.80616 96.5978 8.43784C96.5978 8.51208 96.5676 8.54874 96.5072 8.54874H96.1513C96.0907 8.54874 96.0604 8.52714 96.0604 8.48342C96.0604 8.03049 96.1774 7.671 96.4107 7.40521C96.648 7.13503 97.0103 7 97.4971 7C97.96 7 98.3159 7.12623 98.5655 7.37882C98.819 7.63168 98.9458 7.94558 98.9458 8.32014C98.9458 8.59899 98.8674 8.85611 98.7106 9.09137C98.5535 9.32664 98.3001 9.5687 97.9497 9.81676L97.2619 10.3006L96.9056 10.4772V10.5032H98.9157C98.9317 10.5032 98.9499 10.5141 98.9698 10.536C98.9899 10.5576 99 10.5773 99 10.5947V10.9084C99 10.9303 98.992 10.95 98.976 10.9673C98.9557 10.9892 98.9376 11 98.9217 11H96.0062Z" fill="white"/>
<path fill-rule="evenodd" clip-rule="evenodd" d="M101.282 9.17112V9.19036C101.266 9.19036 101.248 9.17982 101.229 9.15807C101.213 9.14094 101.205 9.1217 101.205 9.10009V8.79C101.205 8.77274 101.215 8.75337 101.235 8.73162C101.254 8.71028 101.272 8.69934 101.288 8.69934H101.575C102.056 8.69934 102.296 8.51207 102.296 8.13715C102.296 7.93922 102.229 7.78187 102.094 7.66563C101.954 7.54914 101.746 7.49102 101.467 7.49102C100.942 7.49102 100.662 7.71729 100.626 8.16944C100.618 8.24271 100.589 8.27935 100.537 8.27935H100.185C100.125 8.27935 100.095 8.25787 100.095 8.21477C100.095 7.8616 100.213 7.57088 100.448 7.34224C100.682 7.11399 101.022 7 101.467 7C101.928 7 102.268 7.10964 102.487 7.32946C102.71 7.54914 102.821 7.82061 102.821 8.14361C102.821 8.47109 102.682 8.71884 102.403 8.887V8.90624C102.598 8.97081 102.745 9.08072 102.845 9.23569C102.948 9.39502 103 9.56963 103 9.75913C103 10.1169 102.873 10.4142 102.618 10.6509C102.368 10.8835 101.992 11 101.491 11C101.01 11 100.642 10.8814 100.388 10.6445C100.129 10.4034 100 10.0953 100 9.72026C100 9.67743 100.03 9.65568 100.089 9.65568H100.441C100.493 9.65568 100.523 9.69232 100.531 9.76572C100.551 9.99819 100.64 10.179 100.799 10.3087C100.958 10.4378 101.189 10.5024 101.491 10.5024C101.793 10.5024 102.032 10.4314 102.207 10.289C102.382 10.1467 102.469 9.96392 102.469 9.73976C102.469 9.36089 102.243 9.17112 101.789 9.17112H101.282Z" fill="white"/>
<path fill-rule="evenodd" clip-rule="evenodd" d="M103.842 9.60439H105.008V8.18875L105.037 7.72123L105.014 7.71442C104.871 7.95057 104.788 8.08185 104.765 8.10868L103.767 9.42408L103.554 9.61787L103.56 9.63094C103.671 9.61337 103.765 9.60439 103.842 9.60439ZM105.919 10.1119H105.515V10.9067C105.515 10.9246 105.506 10.9444 105.487 10.9666C105.467 10.9891 105.45 11 105.435 11H105.1C105.085 11 105.067 10.9891 105.048 10.9666C105.029 10.9444 105.019 10.9246 105.019 10.9067V10.1119H103V9.72477L105.06 7H105.527V9.60439H105.919C105.934 9.60439 105.952 9.61555 105.971 9.63775C105.991 9.66022 106 9.68024 106 9.69781V10.0184C106 10.0364 105.991 10.0562 105.971 10.0784C105.952 10.1009 105.934 10.1119 105.919 10.1119Z" fill="white"/>
<path fill-rule="evenodd" clip-rule="evenodd" d="M108.606 7.49921H106.725L106.596 8.58296L106.609 8.58966C106.891 8.40589 107.223 8.3136 107.604 8.3136C108.031 8.3136 108.369 8.42759 108.619 8.65529C108.873 8.88729 109 9.19831 109 9.58782C109 10.0083 108.86 10.3498 108.582 10.6125C108.311 10.8709 107.949 11 107.494 11C107.146 11 106.83 10.9147 106.547 10.744C106.252 10.5643 106.074 10.3193 106.012 10.0083C106.004 9.94706 106 9.9121 106 9.90312C106 9.87258 106.01 9.84633 106.031 9.82423C106.051 9.8024 106.076 9.79141 106.105 9.79141H106.437C106.494 9.79141 106.531 9.82423 106.547 9.89C106.605 10.0869 106.721 10.2381 106.898 10.3433C107.078 10.4485 107.279 10.5008 107.5 10.5008C107.791 10.5008 108.025 10.4156 108.201 10.2448C108.377 10.074 108.465 9.85718 108.465 9.59451C108.465 9.35797 108.391 9.16763 108.244 9.02297C108.096 8.87844 107.881 8.80652 107.599 8.80652C107.242 8.80652 106.908 8.9201 106.596 9.14781C106.555 9.17862 106.506 9.17862 106.449 9.14781L106.061 8.90497C106.041 8.89171 106.031 8.86773 106.031 8.83264L106.252 7H108.6C108.617 7 108.635 7.01098 108.656 7.03295C108.676 7.05492 108.686 7.07447 108.686 7.09215V7.40719C108.686 7.42943 108.678 7.44898 108.662 7.4664C108.641 7.48836 108.623 7.49921 108.606 7.49921Z" fill="white"/>
<path fill-rule="evenodd" clip-rule="evenodd" d="M111.575 8.97088L111.586 8.98392C111.292 8.98392 111.057 9.05285 110.883 9.1907C110.712 9.32433 110.626 9.49236 110.626 9.69452C110.626 9.9233 110.708 10.1191 110.871 10.2828C111.03 10.4423 111.257 10.5219 111.551 10.5219C111.869 10.5219 112.101 10.4445 112.248 10.2891C112.399 10.134 112.475 9.93595 112.475 9.69452C112.475 9.48366 112.398 9.31128 112.243 9.17765C112.084 9.0398 111.861 8.97088 111.575 8.97088ZM111.545 10.9871V11C111.012 11 110.622 10.8278 110.376 10.483C110.125 10.134 110 9.66223 110 9.06774C110 8.43028 110.137 7.9262 110.412 7.55575C110.686 7.18516 111.075 7 111.58 7C111.974 7 112.286 7.10121 112.517 7.30377C112.739 7.50198 112.861 7.76028 112.881 8.07907C112.881 8.1223 112.851 8.14378 112.791 8.14378H112.439C112.412 8.14378 112.392 8.13745 112.38 8.12441C112.368 8.11149 112.358 8.08131 112.35 8.03413C112.318 7.87019 112.235 7.73682 112.099 7.63337C111.964 7.52978 111.791 7.47799 111.58 7.47799C110.908 7.47799 110.557 7.96297 110.525 8.932H110.543C110.634 8.79876 110.771 8.68872 110.954 8.6024C111.145 8.51647 111.352 8.47338 111.575 8.47338C112.036 8.47338 112.388 8.5854 112.63 8.8093C112.877 9.03769 113 9.32868 113 9.68187C113 10.0652 112.869 10.3797 112.606 10.6252C112.348 10.8666 111.994 10.9871 111.545 10.9871Z" fill="white"/>
<path fill-rule="evenodd" clip-rule="evenodd" d="M115.148 7.5067H113.089C113.072 7.5067 113.053 7.49568 113.032 7.47339C113.011 7.45123 113 7.43124 113 7.4133V7.09354C113 7.07559 113.011 7.05574 113.032 7.03344C113.053 7.01115 113.072 7 113.089 7H116V7.02026L114.017 10.9266C113.992 10.9757 113.943 11 113.871 11H113.419C113.394 11 113.381 10.9867 113.381 10.9599C113.381 10.9424 113.388 10.9224 113.401 10.9001L115.148 7.52016V7.5067Z" fill="white"/>
<path fill-rule="evenodd" clip-rule="evenodd" d="M0.258431 30.2648C0.167141 30.2648 0.080752 30.246 0 30.2152V31H54.2797L61 7H0.991203V8.18046C0.991203 8.58883 0.663171 8.92002 0.258431 8.92002C0.167141 8.92002 0.080752 8.9011 0 8.87031V12.5272C0.080752 12.4964 0.167141 12.4775 0.258431 12.4775C0.663171 12.4775 0.991203 12.8086 0.991203 13.2169V15.2954C0.991203 15.7037 0.663171 16.0348 0.258431 16.0348C0.167141 16.0348 0.080752 16.0159 0 15.9851V19.6422C0.080752 19.6114 0.167141 19.5925 0.258431 19.5925C0.663171 19.5925 0.991203 19.9237 0.991203 20.3322V22.4104C0.991203 22.8189 0.663171 23.15 0.258431 23.15C0.167141 23.15 0.080752 23.1309 0 23.1001V26.7571C0.080752 26.7264 0.167141 26.7073 0.258431 26.7073C0.663171 26.7073 0.991203 27.0385 0.991203 27.447V29.5253C0.991203 29.9337 0.663171 30.2648 0.258431 30.2648Z" fill="#0076A5"/>
<path fill-rule="evenodd" clip-rule="evenodd" d="M7.66208 12.1581L6.3513 12.1681V15.8818H7.67215C8.30398 15.8818 8.78814 15.7154 9.12413 15.3826C9.4605 15.0499 9.62856 14.5939 9.62856 14.0148C9.62856 13.4558 9.44695 13.0065 9.08412 12.6672C8.72076 12.3276 8.24692 12.1581 7.66208 12.1581ZM7.67215 16.9798L5.11088 17C5.07719 17 5.05021 16.9899 5.02995 16.9698C5.01007 16.9367 5 16.9067 5 16.8801V11.1297C5 11.1031 5.01007 11.0733 5.02995 11.0399C5.05021 11.0133 5.07719 11 5.11088 11H7.66208C8.64345 11 9.44359 11.2728 10.0623 11.8186C10.6872 12.371 11 13.093 11 13.9849C11 14.9033 10.7075 15.6322 10.1225 16.1712C9.55124 16.6972 8.73445 16.9668 7.67215 16.9798Z" fill="white"/>
<path fill-rule="evenodd" clip-rule="evenodd" d="M13 11.1297V16.8804C13 16.907 12.9925 16.9369 12.9776 16.9701C12.9675 16.99 12.9477 17 12.9179 17H12.0821C12.0522 17 12.0323 16.99 12.0224 16.9701C12.0075 16.9369 12 16.907 12 16.8804V11.1297C12 11.1035 12.0075 11.0735 12.0224 11.04C12.0373 11.0134 12.0571 11 12.0821 11H12.9179C12.9427 11 12.9626 11.0134 12.9776 11.04C12.9925 11.0735 13 11.1035 13 11.1297Z" fill="white"/>
<path fill-rule="evenodd" clip-rule="evenodd" d="M14.1877 14.968L15.0359 14.9582C15.1369 14.9582 15.1964 15.0066 15.2143 15.1035C15.3155 15.639 15.7561 15.9067 16.5357 15.9067C16.9466 15.9067 17.2559 15.8325 17.4644 15.6838C17.6725 15.5357 17.7768 15.3517 17.7768 15.1325C17.7768 14.7969 17.5385 14.6098 17.0626 14.5711L15.6697 14.4453C15.128 14.4001 14.7143 14.2453 14.4287 13.9806C14.1429 13.7226 14 13.3743 14 12.9354C14 12.4065 14.2112 11.9517 14.634 11.5711C15.0567 11.1904 15.6429 11 16.3929 11C17.1725 11 17.7589 11.1645 18.1519 11.4934C18.5447 11.8227 18.741 12.2389 18.741 12.7421C18.741 12.8518 18.6844 12.9066 18.5713 12.9066H17.6876C17.5984 12.9066 17.5447 12.8581 17.5268 12.7615C17.4555 12.3162 17.0743 12.0937 16.3842 12.0937C16.0149 12.0937 15.7291 12.1645 15.5271 12.3065C15.3184 12.4549 15.2143 12.6389 15.2143 12.8581C15.2143 13.1485 15.4316 13.3129 15.8662 13.3516L17.25 13.4775C17.8451 13.5356 18.2857 13.7096 18.5713 14.0001C18.857 14.2904 19 14.6517 19 15.084C19 15.5939 18.7917 16.0422 18.375 16.4293C17.9643 16.81 17.354 17 16.5446 17C15.7529 17 15.134 16.8293 14.6878 16.4873C14.2352 16.1388 14.009 15.7131 14.009 15.2098V15.1325C14.009 15.0874 14.027 15.0485 14.0626 15.0164C14.1041 14.9839 14.1458 14.968 14.1877 14.968Z" fill="white"/>
<path fill-rule="evenodd" clip-rule="evenodd" d="M25.8268 13.4386L24.8655 13.4484C24.7755 13.4484 24.7212 13.3968 24.7019 13.2934C24.6505 12.9518 24.4839 12.6711 24.202 12.4516C23.9071 12.2259 23.5513 12.1128 23.1346 12.1128C22.6281 12.1128 22.2018 12.2904 21.8558 12.6451C21.5095 13.0067 21.3366 13.4614 21.3366 14.0097C21.3366 14.558 21.5062 15.013 21.8462 15.3743C22.1793 15.729 22.609 15.9066 23.1346 15.9066C23.5705 15.9066 23.9262 15.8097 24.202 15.6163C24.4775 15.4226 24.6407 15.1613 24.6923 14.8324C24.7115 14.7227 24.7724 14.6678 24.8752 14.6678H25.8364C25.9455 14.6678 26 14.7162 26 14.813C26 15.4452 25.7308 15.9678 25.1922 16.3807C24.6602 16.7935 23.9679 17 23.1154 17C22.2242 17 21.4839 16.7227 20.8942 16.1678C20.2981 15.6066 20 14.8839 20 14C20 13.1228 20.2981 12.4033 20.8942 11.8421C21.4906 11.2808 22.2308 11 23.1154 11C23.9871 11 24.6827 11.2323 25.2018 11.6969C25.7211 12.1613 25.9807 12.7002 25.9807 13.3128C25.9807 13.3968 25.9295 13.4386 25.8268 13.4386Z" fill="white"/>
<path fill-rule="evenodd" clip-rule="evenodd" d="M31.2689 12.6286C30.9244 12.2796 30.5044 12.1051 30.0092 12.1051C29.5136 12.1051 29.0937 12.2796 28.7493 12.6286C28.4049 12.9775 28.2326 13.4363 28.2326 14.0049C28.2326 14.5735 28.4049 15.0323 28.7493 15.3814C29.0937 15.7302 29.5136 15.9048 30.0092 15.9048C30.5044 15.9048 30.9244 15.7302 31.2689 15.3814C31.6133 15.0323 31.7855 14.5735 31.7855 14.0049C31.7855 13.4363 31.6133 12.9775 31.2689 12.6286ZM29.991 11H30.0092C30.843 11 31.5499 11.2813 32.1299 11.8434C32.7101 12.4055 33 13.1262 33 14.0049C33 14.8966 32.7101 15.6203 32.1299 16.1763C31.5559 16.7256 30.8459 17 30.0001 17C29.154 17 28.4441 16.7256 27.8702 16.1763C27.2901 15.6203 27 14.8966 27 14.0049C27 13.1262 27.2901 12.4055 27.8702 11.8434C28.4501 11.2813 29.1571 11 29.991 11Z" fill="white"/>
<path fill-rule="evenodd" clip-rule="evenodd" d="M38.7017 14.0838L38.6428 11.128C38.6428 11.0953 38.6558 11.0656 38.682 11.0393C38.7081 11.0131 38.7377 11 38.7706 11H39.8721C39.9051 11 39.9343 11.0131 39.9607 11.0393C39.987 11.0656 40 11.0953 40 11.128V14.0936C40 15.0329 39.7311 15.7523 39.1936 16.2513C38.6558 16.7506 37.9247 17 37.0001 17C36.0756 17 35.3442 16.7506 34.8066 16.2513C34.2689 15.7523 34 15.0329 34 14.0936V11.128C34 11.0953 34.0132 11.0656 34.0395 11.0393C34.0657 11.0131 34.0952 11 34.1279 11H35.2295C35.2623 11 35.2919 11.0131 35.3183 11.0393C35.3442 11.0656 35.3575 11.0953 35.3575 11.128V14.0838C35.3575 15.2926 35.9147 15.8968 37.0296 15.8968C38.164 15.8968 38.7214 15.2926 38.7017 14.0838Z" fill="white"/>
<path fill-rule="evenodd" clip-rule="evenodd" d="M47.8741 17H46.9434L43.9775 13.8904C43.8866 13.7974 43.7899 13.6878 43.6866 13.5614L43.425 13.2427L43.3281 13.1231H43.2989V16.8805C43.2989 16.907 43.2892 16.937 43.2699 16.9701C43.2567 16.99 43.2309 17 43.1923 17H42.1067C42.0677 17 42.0419 16.99 42.0293 16.9701C42.0098 16.937 42 16.907 42 16.8805V11.1396C42 11.1133 42.0098 11.0833 42.0293 11.0499C42.0484 11.0233 42.0742 11.0101 42.1067 11.0101H42.9983L45.9354 14.0799C45.9935 14.1396 46.1003 14.2559 46.2552 14.4286C46.3523 14.5352 46.4428 14.6446 46.5266 14.7577L46.6238 14.8871H46.6623V11.1295C46.6623 11.0966 46.6754 11.0665 46.7012 11.0399C46.727 11.0134 46.7561 11 46.7883 11H47.8741C47.9062 11 47.9354 11.0134 47.9614 11.0399C47.987 11.0665 48 11.0966 48 11.1295V16.8704C48 16.9038 47.987 16.9338 47.9614 16.9602C47.9354 16.9869 47.9062 17 47.8741 17Z" fill="white"/>
<path fill-rule="evenodd" clip-rule="evenodd" d="M50.2953 12.1401H48.141C48.1142 12.1401 48.0839 12.1235 48.0505 12.0899C48.0168 12.0568 48 12.0267 48 12.0001V11.14C48 11.1134 48.0168 11.0835 48.0505 11.0499C48.0839 11.0169 48.1142 11 48.141 11H53.859C53.886 11 53.9162 11.0169 53.9499 11.0499C53.9834 11.0835 54 11.1134 54 11.14V12.0001C54 12.0267 53.9834 12.0568 53.9499 12.0899C53.9162 12.1235 53.886 12.1401 53.859 12.1401H51.6846V16.8801C51.6846 16.9135 51.6711 16.9433 51.6443 16.9699C51.6243 16.99 51.594 17 51.5538 17H50.4262C50.3861 17 50.3558 16.99 50.3356 16.9699C50.3088 16.9433 50.2953 16.9135 50.2953 16.8801V12.1401Z" fill="white"/>
<path fill-rule="evenodd" clip-rule="evenodd" d="M10.8268 22.4386L9.86548 22.4483C9.77551 22.4483 9.72123 22.3968 9.70191 22.2934C9.65046 21.9518 9.48394 21.6711 9.20209 21.4516C8.90708 21.2259 8.55126 21.1128 8.13465 21.1128C7.62806 21.1128 7.20197 21.2904 6.85588 21.6451C6.50954 22.0067 6.33674 22.4614 6.33674 23.0097C6.33674 23.558 6.50634 24.013 6.84615 24.3743C7.17932 24.729 7.60898 24.9066 8.13465 24.9066C8.57046 24.9066 8.92615 24.8096 9.20209 24.6163C9.47754 24.4226 9.64086 24.1613 9.69231 23.8324C9.71151 23.7227 9.77255 23.6678 9.8752 23.6678H10.8364C10.9456 23.6678 11 23.7162 11 23.813C11 24.4452 10.7308 24.9678 10.1922 25.3807C9.66018 25.7935 8.96788 26 8.11545 26C7.22425 26 6.48394 25.7227 5.89428 25.1678C5.29822 24.6065 5 23.8839 5 23C5 22.1228 5.29822 21.4032 5.89428 20.8421C6.49058 20.2808 7.23077 20 8.11545 20C8.98708 20 9.68271 20.2323 10.202 20.6969C10.7212 21.1613 10.9808 21.7002 10.9808 22.3128C10.9808 22.3968 10.9296 22.4386 10.8268 22.4386Z" fill="white"/>
<path fill-rule="evenodd" clip-rule="evenodd" d="M15.2688 21.6286C14.9244 21.2796 14.5043 21.1051 14.0093 21.1051C13.5136 21.1051 13.0937 21.2796 12.7493 21.6286C12.4049 21.9775 12.2326 22.4363 12.2326 23.005C12.2326 23.5736 12.4049 24.0324 12.7493 24.3814C13.0937 24.7303 13.5136 24.9049 14.0093 24.9049C14.5043 24.9049 14.9244 24.7303 15.2688 24.3814C15.6133 24.0324 15.7855 23.5736 15.7855 23.005C15.7855 22.4363 15.6133 21.9775 15.2688 21.6286ZM13.991 20H14.0093C14.843 20 15.5499 20.2813 16.1299 20.8435C16.7102 21.4054 17 22.1263 17 23.005C17 23.8966 16.7102 24.6204 16.1299 25.1764C15.556 25.7257 14.8459 26 14.0001 26C13.1539 26 12.4441 25.7257 11.8701 25.1764C11.29 24.6204 11 23.8966 11 23.005C11 22.1263 11.29 21.4054 11.8701 20.8435C12.4501 20.2813 13.157 20 13.991 20Z" fill="white"/>
<path fill-rule="evenodd" clip-rule="evenodd" d="M23.7017 24.0839L23.6428 21.1281C23.6428 21.0955 23.6558 21.0657 23.6821 21.0395C23.7081 21.0132 23.7377 21 23.7707 21H24.8721C24.9051 21 24.9343 21.0132 24.9607 21.0395C24.987 21.0657 25 21.0955 25 21.1281V24.0937C25 25.033 24.7311 25.7523 24.1936 26.2513C23.6558 26.7506 22.9247 27 22.0001 27C21.0756 27 20.3442 26.7506 19.8066 26.2513C19.2689 25.7523 19 25.033 19 24.0937V21.1281C19 21.0955 19.0133 21.0657 19.0395 21.0395C19.0657 21.0132 19.0952 21 19.1279 21H20.2297C20.2623 21 20.2919 21.0132 20.3183 21.0395C20.3442 21.0657 20.3576 21.0955 20.3576 21.1281V24.0839C20.3576 25.2926 20.9147 25.8968 22.0298 25.8968C23.164 25.8968 23.7214 25.2926 23.7017 24.0839Z" fill="white"/>
<path fill-rule="evenodd" clip-rule="evenodd" d="M28.4855 22.1582H27.3107V24.3943H28.4855C28.8671 24.3943 29.1618 24.2913 29.3688 24.085C29.5823 23.8721 29.6894 23.599 29.6894 23.2664C29.6894 22.9269 29.5791 22.6572 29.3591 22.4578C29.1325 22.2579 28.8413 22.1582 28.4855 22.1582ZM27.1844 27H26.1068C26.0679 27 26.042 26.99 26.0288 26.97C26.0097 26.9369 26 26.9067 26 26.8801V21.1297C26 21.1034 26.0097 21.0735 26.0288 21.04C26.0483 21.0134 26.0743 21 26.1068 21H28.5921C29.3105 21 29.8899 21.2032 30.3302 21.6091C30.7767 22.015 31 22.5576 31 23.2365C31 23.9153 30.7732 24.4544 30.3205 24.8537C29.8673 25.2529 29.2847 25.4524 28.5727 25.4524H27.2913V26.8702C27.2913 26.9037 27.2815 26.9337 27.262 26.96C27.2426 26.9868 27.2168 27 27.1844 27Z" fill="white"/>
<path fill-rule="evenodd" clip-rule="evenodd" d="M36.2688 21.6286C35.9245 21.2796 35.5043 21.1051 35.0093 21.1051C34.5136 21.1051 34.0937 21.2796 33.7493 21.6286C33.4049 21.9775 33.2326 22.4363 33.2326 23.005C33.2326 23.5736 33.4049 24.0324 33.7493 24.3814C34.0937 24.7303 34.5136 24.9049 35.0093 24.9049C35.5043 24.9049 35.9245 24.7303 36.2688 24.3814C36.6133 24.0324 36.7856 23.5736 36.7856 23.005C36.7856 22.4363 36.6133 21.9775 36.2688 21.6286ZM34.991 20H35.0093C35.843 20 36.5499 20.2813 37.1299 20.8435C37.7102 21.4054 38 22.1263 38 23.005C38 23.8966 37.7102 24.6204 37.1299 25.1764C36.5559 25.7257 35.8459 26 35.0001 26C34.154 26 33.4441 25.7257 32.8701 25.1764C32.2902 24.6204 32 23.8966 32 23.005C32 22.1263 32.2902 21.4054 32.8701 20.8435C33.4501 20.2813 34.157 20 34.991 20Z" fill="white"/>
<path fill-rule="evenodd" clip-rule="evenodd" d="M44.8739 26H43.9434L40.9775 22.8904C40.8866 22.7974 40.7897 22.6878 40.6865 22.5614L40.4248 22.2427L40.3279 22.1231H40.2988V25.8805C40.2988 25.907 40.2891 25.937 40.2698 25.9701C40.2566 25.99 40.2308 26 40.1923 26H39.1066C39.0676 26 39.0418 25.99 39.0292 25.9701C39.0097 25.937 39 25.907 39 25.8805V20.1396C39 20.1132 39.0097 20.0833 39.0292 20.0499C39.0483 20.0233 39.0741 20.01 39.1066 20.01H39.9983L42.9353 23.0799C42.9934 23.1396 43.1002 23.2559 43.2551 23.4286C43.3522 23.535 43.4426 23.6446 43.5265 23.7577L43.6237 23.8871H43.6621V20.1295C43.6621 20.0964 43.6753 20.0665 43.7011 20.0399C43.7269 20.0134 43.7561 20 43.7882 20H44.8739C44.9062 20 44.9352 20.0134 44.9613 20.0399C44.9868 20.0665 45 20.0964 45 20.1295V25.8704C45 25.9038 44.9868 25.9338 44.9613 25.9602C44.9352 25.9869 44.9062 26 44.8739 26Z" fill="white"/>
<path fill-rule="evenodd" clip-rule="evenodd" d="M19.236 41.1772L11.4644 41.233L11.0513 44.4934L11.1064 44.5215C12.1901 43.9271 13.3752 43.6297 14.6613 43.6297C16.756 43.6297 18.3358 44.159 19.4016 45.2181C20.4669 46.2772 21 47.55 21 49.0363C21 50.8014 20.3662 52.2412 19.0983 53.3559C17.8488 54.4524 16.1587 55 14.0276 55C12.3369 55 10.8213 54.6288 9.48031 53.8855C8.13906 53.1424 7.33067 52.1206 7.05513 50.8198C7.01821 50.5967 7 50.4114 7 50.2624C7 50.1328 7.05513 50.0116 7.16527 49.9C7.27554 49.7887 7.40401 49.733 7.55132 49.733H10.2519C10.509 49.733 10.6745 49.8442 10.748 50.0674C10.9313 50.569 11.3357 50.9871 11.9604 51.3215C12.5668 51.6559 13.2648 51.8231 14.055 51.8231C15.1575 51.8231 15.9746 51.5539 16.5079 51.0149C17.0406 50.4763 17.3069 49.8632 17.3069 49.1756C17.3069 48.5624 17.0588 48.0049 16.5628 47.5034C16.0668 47.0016 15.2856 46.7509 14.2205 46.7509C13.2465 46.7509 12.2818 47.0391 11.3267 47.6148C10.941 47.8379 10.6833 47.9492 10.5551 47.9492C10.2793 47.9492 9.9853 47.8565 9.67321 47.6705L7.46844 46.4166C7.24815 46.2866 7.16527 46.0638 7.2204 45.7477L8.24028 38H19.236C19.3094 38 19.3919 38.0466 19.4841 38.1393C19.576 38.2325 19.6221 38.3162 19.6221 38.3901V40.7871C19.6221 40.8614 19.576 40.945 19.4841 41.0379C19.3919 41.1309 19.3094 41.1772 19.236 41.1772Z" fill="white"/>
<path fill-rule="evenodd" clip-rule="evenodd" d="M26.806 46.5412C26.806 48.2075 27.1231 49.5166 27.7574 50.4684C28.4103 51.439 29.3152 51.9241 30.472 51.9241C31.6287 51.9241 32.5333 51.439 33.1866 50.4684C33.8208 49.5166 34.1381 48.2075 34.1381 46.5412C34.1381 44.8755 33.8208 43.566 33.1866 42.614C32.5333 41.6437 31.6287 41.1582 30.472 41.1582C29.3152 41.1582 28.4103 41.6437 27.7574 42.614C27.1231 43.566 26.806 44.8755 26.806 46.5412ZM23 46.4863V46.5412C23 43.9781 23.6718 41.9184 25.0149 40.3617C26.3583 38.7875 28.1866 38 30.5002 38C32.8133 38 34.6418 38.7783 35.9853 40.3345C37.3286 41.9094 38 43.9691 38 46.5138C38 49.0589 37.3286 51.1187 35.9853 52.6931C34.6602 54.2311 32.8319 55 30.5002 55C28.1866 55 26.3583 54.2221 25.0149 52.6657C23.6718 51.1096 23 49.0499 23 46.4863Z" fill="white"/>
<path fill-rule="evenodd" clip-rule="evenodd" d="M53.0591 51.1596V51.1872C53.0591 51.7068 53.2176 52.1519 53.5355 52.5227C53.8339 52.8753 54.2452 53.0511 54.7686 53.0511C55.2731 53.0511 55.6931 52.8753 56.0296 52.5227C56.366 52.1519 56.5341 51.7068 56.5341 51.1872C56.5341 50.6685 56.366 50.2234 56.0296 49.852C55.6931 49.481 55.2731 49.2957 54.7686 49.2957C54.2452 49.2957 53.8339 49.4723 53.5355 49.8243C53.2176 50.1955 53.0591 50.6405 53.0591 51.1596ZM50.621 51.1318L50.5931 51.1596C50.5931 50.0099 50.9854 49.0452 51.77 48.2665C52.5547 47.4876 53.5539 47.0979 54.7686 47.0979C55.9829 47.0979 56.9917 47.4876 57.795 48.2665C58.5982 49.0452 59 50.0007 59 51.1318C59 52.2817 58.5982 53.2276 57.795 53.9693C56.9917 54.7113 55.9829 55.0818 54.7686 55.0818C53.5539 55.0818 52.564 54.7113 51.7981 53.9693C51.0133 53.2276 50.621 52.2817 50.621 51.1318ZM42.4661 41.8958V41.9237C42.4661 42.443 42.6247 42.8884 42.9427 43.2591C43.2412 43.6115 43.6524 43.7877 44.1755 43.7877C44.68 43.7877 45.1004 43.6115 45.4367 43.2591C45.7729 42.9069 45.941 42.462 45.941 41.9237C45.941 41.3862 45.7729 40.941 45.4367 40.5886C45.1004 40.2176 44.68 40.0321 44.1755 40.0321C43.6524 40.0321 43.2412 40.2085 42.9427 40.5606C42.6247 40.9319 42.4661 41.3771 42.4661 41.8958ZM41.9338 54.6925L55.301 37L57.0665 38.3351L43.6993 56L41.9338 54.6925ZM40.0282 41.8681L40 41.8958C40 40.746 40.3924 39.7818 41.1772 39.0027C41.9618 38.2238 42.9612 37.8345 44.1755 37.8345C45.3898 37.8345 46.3987 38.2238 47.2022 39.0027C48.0052 39.7818 48.4072 40.7369 48.4072 41.8681C48.4072 43.0182 48.0052 43.9642 47.2022 44.7055C46.38 45.4663 45.3711 45.8461 44.1755 45.8461C42.9987 45.8461 42.0081 45.4663 41.2051 44.7055C40.4205 43.9453 40.0282 42.9995 40.0282 41.8681Z" fill="white"/>
</g>
</svg>
