<svg width="89" height="64" viewBox="0 0 89 64" fill="none" xmlns="http://www.w3.org/2000/svg">
<mask id="mask0" mask-type="alpha" maskUnits="userSpaceOnUse" x="0" y="0" width="89" height="64">
<path fill-rule="evenodd" clip-rule="evenodd" d="M0 0H89V64H0V0Z" fill="white"/>
</mask>
<g mask="url(#mask0)">
<path fill-rule="evenodd" clip-rule="evenodd" d="M88.7387 63.7399C88.3294 63.7399 87.9977 63.4096 87.9977 63.0023V62.6337C87.9977 62.2264 88.3294 61.8961 88.7387 61.8961C88.831 61.8961 88.9185 61.915 89 61.9457V58.2987C88.9185 58.3294 88.831 58.3483 88.7387 58.3483C88.3294 58.3483 87.9977 58.018 87.9977 57.6109V55.5381C87.9977 55.1307 88.3294 54.8005 88.7387 54.8005C88.831 54.8005 88.9185 54.8195 89 54.8502V51.2031C88.9185 51.234 88.831 51.2528 88.7387 51.2528C88.3294 51.2528 87.9977 50.9225 87.9977 50.5152V48.4426C87.9977 48.0352 88.3294 47.705 88.7387 47.705C88.831 47.705 88.9185 47.724 89 47.7547V44.1077C88.9185 44.1384 88.831 44.1574 88.7387 44.1574C88.3294 44.1574 87.9977 43.8271 87.9977 43.4197V41.347C87.9977 40.9397 88.3294 40.6096 88.7387 40.6096C88.831 40.6096 88.9185 40.6283 89 40.6591V37.0119C88.9185 37.0426 88.831 37.0615 88.7387 37.0615C88.3294 37.0615 87.9977 36.7313 87.9977 36.324V34.2513C87.9977 33.8439 88.3294 33.5137 88.7387 33.5137C88.831 33.5137 88.9185 33.5326 89 33.5633V29.9165C88.9185 29.9472 88.831 29.9659 88.7387 29.9659C88.3294 29.9659 87.9977 29.6357 87.9977 29.2285V27.1558C87.9977 26.7484 88.3294 26.4181 88.7387 26.4181C88.831 26.4181 88.9185 26.4371 89 26.4678V22.8207C88.9185 22.8515 88.831 22.8704 88.7387 22.8704C88.3294 22.8704 87.9977 22.5403 87.9977 22.1329V20.0603C87.9977 19.6529 88.3294 19.3226 88.7387 19.3226C88.831 19.3226 88.9185 19.3415 89 19.3722V15.725C88.9185 15.7557 88.831 15.7746 88.7387 15.7746C88.3294 15.7746 87.9977 15.4444 87.9977 15.0372V12.9644C87.9977 12.5571 88.3294 12.2269 88.7387 12.2269C88.831 12.2269 88.9185 12.2458 89 12.2765V8.62954C88.9185 8.66026 88.831 8.67913 88.7387 8.67913C88.3294 8.67913 87.9977 8.34883 87.9977 7.94157V5.86888C87.9977 5.4615 88.3294 5.13145 88.7387 5.13145C88.831 5.13145 88.9185 5.15032 89 5.18103V1.53407C88.9185 1.56478 88.831 1.58365 88.7387 1.58365C88.3294 1.58365 87.9977 1.25335 87.9977 0.845971V0.477439C87.9977 0.294406 88.0672 0.129011 88.1781 0H0.822008C0.932782 0.129011 1.00242 0.294406 1.00242 0.477439V0.845971C1.00242 1.25335 0.670592 1.58365 0.261323 1.58365C0.169011 1.58365 0.0816556 1.56478 0 1.53407V5.18103C0.0816556 5.15032 0.169011 5.13145 0.261323 5.13145C0.670592 5.13145 1.00242 5.4615 1.00242 5.86888V7.94157C1.00242 8.34883 0.670592 8.67913 0.261323 8.67913C0.169011 8.67913 0.0816556 8.66026 0 8.62954V12.2765C0.0816556 12.2458 0.169011 12.2269 0.261323 12.2269C0.670592 12.2269 1.00242 12.5571 1.00242 12.9644V15.0372C1.00242 15.4444 0.670592 15.7746 0.261323 15.7746C0.169011 15.7746 0.0816556 15.7557 0 15.725V19.3722C0.0816556 19.3415 0.169011 19.3226 0.261323 19.3226C0.670592 19.3226 1.00242 19.6529 1.00242 20.0603V22.1329C1.00242 22.5403 0.670592 22.8704 0.261323 22.8704C0.169011 22.8704 0.0816556 22.8515 0 22.8207V26.4678C0.0816556 26.4371 0.169011 26.4181 0.261323 26.4181C0.670592 26.4181 1.00242 26.7484 1.00242 27.1558V29.2285C1.00242 29.6357 0.670592 29.9659 0.261323 29.9659C0.169011 29.9659 0.0816556 29.9472 0 29.9165V33.5633C0.0816556 33.5326 0.169011 33.5137 0.261323 33.5137C0.670592 33.5137 1.00242 33.8439 1.00242 34.2513V36.324C1.00242 36.7313 0.670592 37.0615 0.261323 37.0615C0.169011 37.0615 0.0816556 37.0426 0 37.0119V40.6591C0.0816556 40.6283 0.169011 40.6096 0.261323 40.6096C0.670592 40.6096 1.00242 40.9397 1.00242 41.347V43.4197C1.00242 43.8271 0.670592 44.1574 0.261323 44.1574C0.169011 44.1574 0.0816556 44.1384 0 44.1077V47.7547C0.0816556 47.724 0.169011 47.705 0.261323 47.705C0.670592 47.705 1.00242 48.0352 1.00242 48.4426V50.5152C1.00242 50.9225 0.670592 51.2528 0.261323 51.2528C0.169011 51.2528 0.0816556 51.234 0 51.2031V54.8502C0.0816556 54.8195 0.169011 54.8005 0.261323 54.8005C0.670592 54.8005 1.00242 55.1307 1.00242 55.5381V57.6109C1.00242 58.018 0.670592 58.3483 0.261323 58.3483C0.169011 58.3483 0.0816556 58.3294 0 58.2987V61.9457C0.0816556 61.915 0.169011 61.8961 0.261323 61.8961C0.670592 61.8961 1.00242 62.2264 1.00242 62.6337V63.0023C1.00242 63.4096 0.670592 63.7399 0.261323 63.7399C0.169011 63.7399 0.0816556 63.721 0 63.6903V64H89V63.6903C88.9185 63.721 88.831 63.7399 88.7387 63.7399Z" fill="#EDF1F7"/>
</g>
<path d="M25.3164 36H26.4238L23.3066 27.5449H22.2637L19.1465 36H20.2539L21.1035 33.5801H24.4668L25.3164 36ZM22.7676 28.8281H22.8027L24.1562 32.6836H21.4141L22.7676 28.8281ZM29.4238 36.1055C30.3027 36.1055 31 35.6719 31.3926 34.9688H31.4102V36H32.3828V27.5449H31.3633V30.8965H31.3398C30.9766 30.2285 30.2734 29.8008 29.4004 29.8008C27.8652 29.8008 26.8164 31.043 26.8164 32.9531C26.8164 34.8633 27.8711 36.1055 29.4238 36.1055ZM29.6172 30.6973C30.666 30.6973 31.3691 31.5938 31.3691 32.9531C31.3691 34.3184 30.666 35.209 29.6172 35.209C28.5391 35.209 27.8594 34.3359 27.8594 32.9531C27.8594 31.5762 28.5391 30.6973 29.6172 30.6973ZM36.0684 36.1055C36.9473 36.1055 37.6445 35.6719 38.0371 34.9688H38.0547V36H39.0273V27.5449H38.0078V30.8965H37.9844C37.6211 30.2285 36.918 29.8008 36.0449 29.8008C34.5098 29.8008 33.4609 31.043 33.4609 32.9531C33.4609 34.8633 34.5156 36.1055 36.0684 36.1055ZM36.2617 30.6973C37.3105 30.6973 38.0137 31.5938 38.0137 32.9531C38.0137 34.3184 37.3105 35.209 36.2617 35.209C35.1836 35.209 34.5039 34.3359 34.5039 32.9531C34.5039 31.5762 35.1836 30.6973 36.2617 30.6973ZM42.8652 36H43.8848V32.1797C43.8848 31.3359 44.4707 30.7031 45.2793 30.7031C46.0352 30.7031 46.5273 31.1836 46.5273 31.916V36H47.5469V32.127C47.5469 31.3008 48.1152 30.7031 48.9238 30.7031C49.7266 30.7031 50.1895 31.1953 50.1895 32.0273V36H51.209V31.793C51.209 30.5859 50.4297 29.8008 49.2227 29.8008C48.3672 29.8008 47.6523 30.2344 47.3125 30.9609H47.2891C47.0254 30.2227 46.4102 29.8008 45.5781 29.8008C44.7578 29.8008 44.1367 30.2344 43.8496 30.8789H43.8262V29.9062H42.8652V36ZM55.0352 36.1055C56.7168 36.1055 57.8535 34.8926 57.8535 32.9531C57.8535 31.0078 56.7168 29.8008 55.0352 29.8008C53.3477 29.8008 52.2109 31.0078 52.2109 32.9531C52.2109 34.8926 53.3477 36.1055 55.0352 36.1055ZM55.0352 35.209C53.957 35.209 53.248 34.3887 53.248 32.9531C53.248 31.5176 53.957 30.6973 55.0352 30.6973C56.1133 30.6973 56.8164 31.5176 56.8164 32.9531C56.8164 34.3887 56.1133 35.209 55.0352 35.209ZM58.8848 36H59.9043V32.2031C59.9043 31.3418 60.4199 30.7734 61.2109 30.7734C61.457 30.7734 61.6738 30.8027 61.7559 30.832V29.8418C61.6738 29.8301 61.5215 29.8008 61.3457 29.8008C60.6309 29.8008 60.0684 30.2285 59.8691 30.9023H59.8457V29.9062H58.8848V36ZM64.7383 30.6855C65.6992 30.6855 66.3379 31.4121 66.3613 32.4316H63.0508C63.1152 31.418 63.7832 30.6855 64.7383 30.6855ZM66.3379 34.2539C66.168 34.8281 65.5996 35.2207 64.8262 35.2207C63.7305 35.2207 63.0449 34.4531 63.0449 33.2871V33.2285H67.416V32.8418C67.416 30.9961 66.4023 29.8008 64.7559 29.8008C63.0742 29.8008 61.9961 31.084 61.9961 32.9766C61.9961 34.8926 63.0566 36.1055 64.8027 36.1055C66.1328 36.1055 67.1641 35.3203 67.3398 34.2539H66.3379Z" fill="#ACB1C0"/>
</svg>
