<svg width="72" height="64" viewBox="0 0 72 64" fill="none" xmlns="http://www.w3.org/2000/svg">
<mask id="mask0" mask-type="alpha" maskUnits="userSpaceOnUse" x="0" y="0" width="72" height="64">
<path fill-rule="evenodd" clip-rule="evenodd" d="M0 0.012207H71.9537V64.0001H0V0.012207Z" fill="white"/>
</mask>
<g mask="url(#mask0)">
<path fill-rule="evenodd" clip-rule="evenodd" d="M71.8252 24.9831C71.8683 24.9831 71.9108 24.9855 71.9537 24.9864V5.47453C71.9537 2.45777 69.5376 0.012207 66.5572 0.012207H5.39647C2.41608 0.012207 0 2.45777 0 5.47453V24.9864C3.27557 25.0558 5.91046 27.7634 5.91046 31.0957C5.91046 34.4281 3.27557 37.1357 0 37.2051V58.5377C0 61.5544 2.41608 64.0001 5.39647 64.0001H66.5572C69.5376 64.0001 71.9537 61.5544 71.9537 58.5377V37.2051C71.9108 37.2061 71.8683 37.2084 71.8252 37.2084C68.4899 37.2084 65.7862 34.4717 65.7862 31.0957C65.7862 27.7198 68.4899 24.9831 71.8252 24.9831Z" fill="#FFBD6C"/>
</g>
<mask id="mask1" mask-type="alpha" maskUnits="userSpaceOnUse" x="0" y="0" width="72" height="64">
<path fill-rule="evenodd" clip-rule="evenodd" d="M0 64H72V0H0V64Z" fill="white"/>
</mask>
<g mask="url(#mask1)">
<path fill-rule="evenodd" clip-rule="evenodd" d="M9 42H63V23H9V42Z" fill="white"/>
<path fill-rule="evenodd" clip-rule="evenodd" d="M9.18681 5.74244H11.374V5H9.18681V5.74244ZM13.5615 5.74244H15.7487V5H13.5615V5.74244ZM17.9361 5.74244H20.1233V5H17.9361V5.74244ZM22.3106 5.74244H24.4979V5H22.3106V5.74244ZM26.6852 5.74244H28.8724V5H26.6852V5.74244ZM31.0597 5.74244H33.2469V5H31.0597V5.74244ZM35.4343 5.74244H37.6215V5H35.4343V5.74244ZM39.8088 5.74244H41.9961V5H39.8088V5.74244ZM44.1834 5.74244H46.3706V5H44.1834V5.74244ZM48.5579 5.74244H50.7452V5H48.5579V5.74244ZM52.9325 5.74244H55.1197V5H52.9325V5.74244ZM57.3071 5.74244H59.4943V5H57.3071V5.74244ZM63 6.62703H62.2711V5.74244H61.6815V5H63V6.62703ZM8 8.98818H8.72894V6.76112H8V8.98818ZM62.2711 11.081H63V8.85397H62.2711V11.081ZM8 13.4423H8.72894V11.2154H8V13.4423ZM62.2711 15.5353H63V13.3083H62.2711V15.5353ZM8 17.8963H8.72894V15.6694H8V17.8963ZM62.2711 19.9893H63V17.7623H62.2711V19.9893ZM8 22.3506H8.72894V20.1235H8V22.3506ZM62.2711 24.4434H63V22.2163H62.2711V24.4434ZM8 26.8046H8.72894V24.5775H8V26.8046ZM62.2711 28.8975H63V26.6705H62.2711V28.8975ZM8 31.2587H8.72894V29.0316H8V31.2587ZM62.2711 33.3515H63V31.1245H62.2711V33.3515ZM8 35.7127H8.72894V33.4858H8V35.7127ZM62.2711 37.8057H63V35.5786H62.2711V37.8057ZM8 40.1668H8.72894V37.9399H8V40.1668ZM62.2711 42.2597H63V40.0326H62.2711V42.2597ZM8 44.6208H8.72894V42.3939H8V44.6208ZM62.2711 46.7138H63V44.4869H62.2711V46.7138ZM8 49.0749H8.72894V46.848H8V49.0749ZM62.2711 51.1679H63V48.9409H62.2711V51.1679ZM8 53.5291H8.72894V51.302H8V53.5291ZM62.2711 55.622H63V53.395H62.2711V55.622ZM8 57.9831H8.72894V55.756H8V57.9831ZM62.2711 60.0762H63V57.8491H62.2711V60.0762ZM10.1406 61H8.00012V60.2103H8.72894V60.2576H10.1406V61ZM12.3279 61H14.5151V60.2576H12.3279V61ZM16.7025 61H18.8897V60.2576H16.7025V61ZM21.077 61H23.2642V60.2576H21.077V61ZM25.4516 61H27.639V60.2576H25.4516V61ZM29.8263 61H32.0136V60.2576H29.8263V61ZM34.2009 61H36.3881V60.2576H34.2009V61ZM38.5754 61H40.7627V60.2576H38.5754V61ZM42.95 61H45.1372V60.2576H42.95V61ZM47.3246 61H49.5118V60.2576H47.3246V61ZM51.6991 61H53.8863V60.2576H51.6991V61ZM56.0737 61H58.2609V60.2576H56.0737V61ZM60.4482 61H62.6355V60.2576H60.4482V61Z" fill="#FF6650"/>
<path fill-rule="evenodd" clip-rule="evenodd" d="M24.069 30.2216V30.2573C24.069 29.9252 23.9027 29.6403 23.5707 29.4028C23.2386 29.1656 22.7214 29.0469 22.0191 29.0469C21.3038 29.0469 20.7866 29.1599 20.4673 29.3852C20.1351 29.6226 19.9694 29.9074 19.9694 30.2394C19.9694 30.5718 20.1351 30.8566 20.4673 31.0937C20.7866 31.3194 21.3038 31.432 22.0191 31.432C22.7214 31.432 23.2386 31.3135 23.5707 31.0761C23.9027 30.8388 24.069 30.5541 24.069 30.2216ZM24.3945 34.6538C24.3945 34.2504 24.1838 33.9122 23.7624 33.6391C23.3535 33.3782 22.7596 33.2476 21.9807 33.2476C21.2017 33.2476 20.6079 33.3782 20.1992 33.6391C19.7778 33.9122 19.5668 34.2504 19.5668 34.6538C19.5668 35.0573 19.7778 35.3834 20.1992 35.6326C20.6204 35.8819 21.2145 36.0065 21.9807 36.0065C22.7472 36.0065 23.3409 35.8819 23.7624 35.6326C24.1838 35.3834 24.3945 35.0573 24.3945 34.6538ZM22 27C23.443 27 24.5732 27.3025 25.3907 27.9078C26.2079 28.5129 26.6168 29.2666 26.6168 30.1683C26.6168 31.0465 26.1762 31.7407 25.2949 32.2507V32.2686C25.8185 32.5178 26.2336 32.8559 26.5403 33.2831C26.8466 33.7104 27 34.1731 27 34.6714C27 35.7278 26.5403 36.5466 25.6207 37.1279C24.7136 37.7094 23.5068 38 22 38C20.4928 38 19.2858 37.7094 18.3794 37.1279C17.4598 36.5466 17 35.7278 17 34.6714C17 34.1731 17.1534 33.7104 17.4598 33.2831C17.7665 32.8559 18.1812 32.5178 18.705 32.2686V32.2507C17.8237 31.7407 17.3832 31.0465 17.3832 30.1683C17.3832 29.2666 17.7979 28.5129 18.6283 27.9078C19.4456 27.3025 20.5694 27 22 27Z" fill="#FF6650"/>
<path fill-rule="evenodd" clip-rule="evenodd" d="M32.5371 32.5266C32.5371 33.6049 32.7487 34.4519 33.1716 35.0678C33.6068 35.6959 34.21 36.0096 34.9812 36.0096C35.7523 36.0096 36.3555 35.6959 36.791 35.0678C37.2137 34.4519 37.4253 33.6049 37.4253 32.5266C37.4253 31.4487 37.2137 30.6016 36.791 29.9855C36.3555 29.3576 35.7523 29.0437 34.9812 29.0437C34.21 29.0437 33.6068 29.3576 33.1716 29.9855C32.7487 30.6016 32.5371 31.4487 32.5371 32.5266ZM30 32.4911V32.5266C30 30.8681 30.4478 29.5354 31.3431 28.5282C32.2387 27.5095 33.4576 27 34.9999 27C36.5421 27 37.7613 27.5037 38.6566 28.5106C39.5522 29.5295 40 30.8624 40 32.5088C40 34.1556 39.5522 35.4885 38.6566 36.5072C37.7735 37.5023 36.5547 38 34.9999 38C33.4576 38 32.2387 37.4965 31.3431 36.4894C30.4478 35.4826 30 34.1499 30 32.4911Z" fill="#FF6650"/>
<path fill-rule="evenodd" clip-rule="evenodd" d="M49.9349 34.6882V34.7072C49.9349 35.0625 50.0435 35.3671 50.261 35.6207C50.4651 35.862 50.7465 35.9825 51.1044 35.9825C51.4497 35.9825 51.7373 35.862 51.9673 35.6207C52.1976 35.3671 52.3125 35.0625 52.3125 34.7072C52.3125 34.3522 52.1976 34.0475 51.9673 33.7936C51.7373 33.5399 51.4497 33.413 51.1044 33.413C50.7465 33.413 50.4651 33.5337 50.261 33.7745C50.0435 34.0286 49.9349 34.333 49.9349 34.6882ZM48.2668 34.6691L48.2477 34.6882C48.2477 33.9015 48.5161 33.2415 49.0529 32.7087C49.5898 32.1758 50.2734 31.9092 51.1044 31.9092C51.9355 31.9092 52.6256 32.1758 53.1755 32.7087C53.7249 33.2415 54 33.8953 54 34.6691C54 35.456 53.7249 36.1032 53.1755 36.6106C52.6256 37.1183 51.9355 37.372 51.1044 37.372C50.2734 37.372 49.596 37.1183 49.0722 36.6106C48.5352 36.1032 48.2668 35.456 48.2668 34.6691ZM42.6872 28.3499V28.3688C42.6872 28.7243 42.7958 29.0288 43.0132 29.2826C43.2177 29.5237 43.499 29.6442 43.857 29.6442C44.202 29.6442 44.4898 29.5237 44.7197 29.2826C44.9499 29.0416 45.0648 28.7371 45.0648 28.3688C45.0648 28.0011 44.9499 27.6965 44.7197 27.4552C44.4898 27.2016 44.202 27.0747 43.857 27.0747C43.499 27.0747 43.2177 27.1953 43.0132 27.4362C42.7958 27.6902 42.6872 27.9948 42.6872 28.3499ZM42.3229 37.1055L51.4689 25L52.6767 25.9136L43.531 38L42.3229 37.1055ZM41.0192 28.3308L41 28.3499C41 27.5633 41.2684 26.9033 41.8054 26.3705C42.3422 25.8375 43.0258 25.571 43.857 25.571C44.6875 25.571 45.378 25.8375 45.9278 26.3705C46.4771 26.9033 46.7521 27.5571 46.7521 28.3308C46.7521 29.1177 46.4771 29.765 45.9278 30.2724C45.3651 30.7928 44.675 31.0527 43.857 31.0527C43.0516 31.0527 42.3738 30.7928 41.8246 30.2724C41.2877 29.7522 41.0192 29.105 41.0192 28.3308Z" fill="#FF6650"/>
<path fill-rule="evenodd" clip-rule="evenodd" d="M19 47.1081V51.9001C19 51.9224 18.9923 51.9473 18.9765 51.9751C18.9659 51.9916 18.9453 52 18.9138 52H17.6913C17.6599 52 17.6389 51.9916 17.6287 51.9751C17.613 51.9473 17.6051 51.9224 17.6051 51.9001V50.2861H15.395V51.9001C15.395 51.9224 15.3874 51.9473 15.3717 51.9751C15.3612 51.9916 15.3403 52 15.3088 52H14.0862C14.055 52 14.0342 51.9916 14.0236 51.9751C14.008 51.9473 14 51.9224 14 51.9001V47.1081C14 47.0861 14.008 47.061 14.0236 47.0333C14.0393 47.011 14.0602 47 14.0862 47H15.3088C15.3351 47 15.356 47.011 15.3717 47.0333C15.3874 47.061 15.395 47.0861 15.395 47.1081V49.0217H17.6051V47.1081C17.6051 47.0861 17.613 47.061 17.6287 47.0333C17.6444 47.011 17.6651 47 17.6913 47H18.9138C18.9399 47 18.9608 47.011 18.9765 47.0333C18.9923 47.061 19 47.0861 19 47.1081Z" fill="#FF6650"/>
<path fill-rule="evenodd" clip-rule="evenodd" d="M21.6472 49.6417L21.4201 50.1501H22.5799L22.3528 49.6417L22.0252 48.6917H21.9748C21.8515 49.1195 21.7421 49.4363 21.6472 49.6417ZM23.3442 51.8917L23.1007 51.3333H20.8992L20.6554 51.8917C20.6219 51.964 20.563 52 20.4788 52H19.0671C19.0225 52 19 51.9806 19 51.9417C19 51.9251 19.0111 51.8917 19.0337 51.8417L21.2939 47H22.7057L24.9663 51.8417C24.9886 51.8807 25 51.9139 25 51.9417C25 51.9806 24.9772 52 24.9325 52H23.521C23.4367 52 23.378 51.964 23.3442 51.8917Z" fill="#FF6650"/>
<path fill-rule="evenodd" clip-rule="evenodd" d="M26.1712 47.1081V50.7437H27.9081C27.9255 50.7437 27.9452 50.7576 27.9672 50.7853C27.9891 50.8132 28 50.8381 28 50.8602V51.8918C28 51.9198 27.9914 51.9446 27.9739 51.9667C27.9563 51.989 27.9365 52 27.9146 52H25.0724C25.046 52 25.0285 51.9916 25.0196 51.9751C25.0066 51.9473 25 51.9224 25 51.9001V47.1081C25 47.0861 25.0066 47.061 25.0196 47.0333C25.0328 47.011 25.0503 47 25.0724 47H26.0987C26.1206 47 26.1382 47.011 26.1514 47.0333C26.1646 47.061 26.1712 47.0861 26.1712 47.1081Z" fill="#FF6650"/>
<path fill-rule="evenodd" clip-rule="evenodd" d="M31.0474 51.9833L30.0678 52C30.0471 52 30.0309 51.9916 30.0186 51.9749C30.0063 51.9473 30 51.9223 30 51.9001V47.1082C30 47.0861 30.0063 47.0611 30.0186 47.0333C30.0309 47.0111 30.0471 47 30.0678 47H32.9137C32.9301 47 32.9486 47.0139 32.9693 47.0416C32.9898 47.0695 33 47.0944 33 47.1166V48.1481C33 48.1759 32.9917 48.2009 32.9753 48.223C32.9548 48.2507 32.9363 48.2646 32.9199 48.2646H31.1089V49.1382H32.7598C32.7802 49.1382 32.7988 49.1493 32.8152 49.1714C32.8357 49.1991 32.8459 49.2241 32.8459 49.2462V50.2279C32.8459 50.2558 32.8377 50.2807 32.8215 50.3027C32.8048 50.325 32.7865 50.336 32.7658 50.336H31.1151V51.8752C31.1151 51.903 31.1089 51.928 31.0966 51.95C31.0843 51.9723 31.0678 51.9833 31.0474 51.9833Z" fill="#FF6650"/>
<path fill-rule="evenodd" clip-rule="evenodd" d="M37.4293 48.2814L36.692 48.2896V49.6623H37.4293C37.6875 49.6623 37.8954 49.5987 38.053 49.471C38.2042 49.3434 38.2797 49.1771 38.2797 48.9719C38.2797 48.7666 38.2042 48.6003 38.053 48.4726C37.8954 48.345 37.6875 48.2814 37.4293 48.2814ZM36.5786 51.9916L35.1041 52C35.0723 52 35.0472 51.9916 35.0283 51.9751C35.0096 51.953 35 51.928 35 51.9001V47.1082C35 47.0806 35.0096 47.0556 35.0283 47.0334C35.0472 47.0113 35.0723 47 35.1041 47H37.5992C38.3114 47 38.8878 47.1777 39.3288 47.5325C39.7763 47.8932 40 48.3591 40 48.9301C40 49.5072 39.7731 49.9647 39.3194 50.3029C38.8719 50.6412 38.2953 50.8104 37.5897 50.8104H36.6825V51.8836C36.6825 51.9114 36.673 51.9363 36.6541 51.9585C36.6352 51.9806 36.6101 51.9916 36.5786 51.9916Z" fill="#FF6650"/>
<path fill-rule="evenodd" clip-rule="evenodd" d="M43.5966 48.2729L42.5791 48.2813V49.4542H43.5966C43.8362 49.4542 44.0292 49.3989 44.1755 49.2879C44.316 49.177 44.386 49.0355 44.386 48.8636C44.386 48.6917 44.316 48.5502 44.1755 48.4392C44.0292 48.3283 43.8362 48.2729 43.5966 48.2729ZM41.0088 51.9001L41 47.1081C41 47.0861 41.0088 47.061 41.0264 47.0333C41.0438 47.0111 41.0673 47 41.0966 47H43.7281C44.389 47 44.924 47.1692 45.3333 47.5075C45.7487 47.8514 45.9562 48.3006 45.9562 48.8553C45.9562 49.543 45.617 50.0422 44.9385 50.3528V50.3693C45.0029 50.4527 45.0732 50.5496 45.1491 50.6606L45.9386 51.817C45.9796 51.8725 46 51.9142 46 51.9418C46 51.9806 45.9708 52 45.9123 52H44.2982C44.2339 52 44.19 51.9806 44.1665 51.9418L43.2807 50.6274H42.5703V51.9001C42.5703 51.9224 42.5615 51.9473 42.5439 51.9751C42.532 51.9916 42.5088 52 42.4738 52H41.1053C41.0701 52 41.0468 51.9916 41.0354 51.9751C41.0177 51.9473 41.0088 51.9224 41.0088 51.9001Z" fill="#FF6650"/>
<path fill-rule="evenodd" clip-rule="evenodd" d="M47 47.1081V51.9001C47 51.9224 46.9944 51.9473 46.9832 51.9751C46.9755 51.9916 46.9606 52 46.9382 52H46.0617C46.0392 52 46.0243 51.9916 46.0167 51.9751C46.0056 51.9473 46 51.9224 46 51.9001V47.1081C46 47.0861 46.0056 47.061 46.0167 47.0333C46.0279 47.011 46.043 47 46.0617 47H46.9382C46.9568 47 46.9718 47.011 46.9832 47.0333C46.9944 47.061 47 47.0861 47 47.1081Z" fill="#FF6650"/>
<path fill-rule="evenodd" clip-rule="evenodd" d="M52.8673 49.1245L51.7129 49.1324C51.64 49.1324 51.5934 49.0894 51.5726 49.0032C51.5204 48.7718 51.4061 48.586 51.2293 48.4459C51.0526 48.3059 50.8317 48.236 50.5663 48.236C50.2438 48.236 49.971 48.3518 49.7473 48.5833C49.5236 48.8148 49.412 49.1245 49.412 49.5122C49.412 49.8945 49.5213 50.2042 49.7395 50.441C49.9579 50.6727 50.231 50.7884 50.5586 50.7884C51.0994 50.7884 51.4347 50.5516 51.5646 50.0775C51.5854 49.9915 51.64 49.9484 51.7284 49.9484H52.8438C52.9375 49.9484 52.9843 49.9861 52.9843 50.0615C52.9843 50.5838 52.7659 51.0389 52.3291 51.4266C51.8974 51.809 51.3074 52 50.5586 52C49.8253 52 49.2169 51.7687 48.7333 51.3054C48.2446 50.8369 48 50.2392 48 49.5122C48 48.796 48.2472 48.1982 48.7413 47.7189C49.2353 47.2398 49.8437 47 50.5663 47C51.289 47 51.8742 47.1966 52.3212 47.5896C52.7737 47.9827 53 48.4513 53 48.9952C53 49.0814 52.9559 49.1245 52.8673 49.1245Z" fill="#FF6650"/>
<path fill-rule="evenodd" clip-rule="evenodd" d="M58.5673 50.0616L55.7115 50.0783V50.7438H58.8653C58.8909 50.7438 58.9198 50.7577 58.9519 50.7853C58.9841 50.8133 59 50.8381 59 50.8604V51.8918C59 51.9198 58.9871 51.9447 58.9614 51.9668C58.9358 51.989 58.9068 52 58.8751 52H54.1058C54.0734 52 54.0478 51.9918 54.029 51.9751C54.0097 51.953 54 51.928 54 51.9001V47.1082C54 47.0805 54.0097 47.0554 54.029 47.0333C54.0478 47.0111 54.0734 47 54.1058 47H58.8367C58.8621 47 58.8909 47.0138 58.9232 47.0415C58.9551 47.0694 58.9712 47.0943 58.9712 47.1164V48.148C58.9712 48.176 58.9582 48.2008 58.9329 48.223C58.9005 48.2508 58.8716 48.2646 58.846 48.2646H55.7308V48.8803H58.5576C58.5832 48.8803 58.6122 48.8941 58.6441 48.9218C58.6763 48.9495 58.6922 48.9745 58.6922 48.9966V49.945C58.6922 49.973 58.6795 49.9979 58.6537 50.0199C58.6219 50.0478 58.5929 50.0616 58.5673 50.0616Z" fill="#FF6650"/>
<path fill-rule="evenodd" clip-rule="evenodd" d="M20.8143 12.9741L19.1981 12.9855C19.096 12.9855 19.0304 12.9252 19.0014 12.8046C18.9287 12.4805 18.7685 12.2204 18.521 12.0241C18.2735 11.8283 17.964 11.7302 17.5927 11.7302C17.1413 11.7302 16.7591 11.8923 16.446 12.2163C16.133 12.5407 15.9765 12.9741 15.9765 13.5169C15.9765 14.0523 16.1294 14.4857 16.4354 14.8174C16.7408 15.1416 17.1233 15.3037 17.5817 15.3037C18.339 15.3037 18.8084 14.972 18.9905 14.3086C19.0196 14.1881 19.096 14.1275 19.2198 14.1275H20.7815C20.9125 14.1275 20.9779 14.1804 20.9779 14.2859C20.9779 15.0173 20.6724 15.6543 20.0607 16.197C19.4564 16.7323 18.6301 17 17.5817 17C16.5552 17 15.7034 16.6759 15.0265 16.0275C14.3421 15.3715 14 14.5347 14 13.5169C14 12.5143 14.3459 11.6775 15.0376 11.0065C15.7289 10.3355 16.5808 10 17.5927 10C18.6046 10 19.4236 10.2752 20.0499 10.8255C20.6831 11.3758 21 12.0318 21 12.7931C21 12.914 20.9381 12.9741 20.8143 12.9741Z" fill="#FF6650"/>
<path fill-rule="evenodd" clip-rule="evenodd" d="M24.4897 11.7244V11.7471C24.0396 11.7471 23.6553 11.9098 23.337 12.235C23.0183 12.5604 22.859 12.9914 22.859 13.5283C22.859 14.0655 23.0183 14.4966 23.337 14.8218C23.6553 15.1469 24.0396 15.3096 24.4897 15.3096C24.9326 15.3096 25.3169 15.1432 25.6425 14.8103C25.9609 14.4853 26.1202 14.054 26.1202 13.517C26.1202 12.98 25.9609 12.5489 25.6425 12.2236C25.3169 11.891 24.9326 11.7244 24.4897 11.7244ZM24.5104 10H24.4897C25.4798 10 26.3106 10.3177 26.9823 10.9531C27.6606 11.5884 28 12.4391 28 13.5056C28 14.5722 27.664 15.4229 26.9924 16.0584C26.3277 16.6862 25.497 17 24.5002 17C23.5031 17 22.6723 16.6862 22.0077 16.0584C21.3359 15.4229 21 14.5722 21 13.5056C21 12.4391 21.3392 11.5884 22.0178 10.9531C22.6893 10.3177 23.5203 10 24.5104 10Z" fill="#FF6650"/>
<path fill-rule="evenodd" clip-rule="evenodd" d="M34.0398 13.4828L33.9844 10.1489C33.9844 10.1108 33.9991 10.0763 34.0286 10.0457C34.0579 10.0152 34.091 10 34.1282 10H35.8562C35.893 10 35.9261 10.0152 35.9557 10.0457C35.9853 10.0763 36 10.1108 36 10.1489V13.5287C36 14.6439 35.6898 15.5031 35.0698 16.1065C34.4641 16.7023 33.6075 17 32.5001 17C31.3996 17 30.5431 16.6985 29.9305 16.0949C29.3101 15.4841 29 14.6285 29 13.5287V10.1489C29 10.1108 29.0147 10.0763 29.0443 10.0457C29.0739 10.0152 29.107 10 29.144 10H30.8718C30.909 10 30.9421 10.0152 30.9717 10.0457C31.001 10.0763 31.016 10.1108 31.016 10.1489V13.4943C31.016 14.0749 31.1488 14.5139 31.4146 14.8119C31.6806 15.1097 32.0496 15.2587 32.5222 15.2587C33.002 15.2587 33.375 15.1097 33.6408 14.8119C33.914 14.4988 34.0471 14.0557 34.0398 13.4828Z" fill="#FF6650"/>
<path fill-rule="evenodd" clip-rule="evenodd" d="M38.9149 11.7936L38.0303 11.8054V13.7271H38.9149C39.2249 13.7271 39.4744 13.638 39.6634 13.4593C39.8448 13.2807 39.9357 13.0478 39.9357 12.7604C39.9357 12.4731 39.8448 12.2403 39.6634 12.0616C39.4744 11.8831 39.2249 11.7936 38.9149 11.7936ZM37.894 16.9883L36.1247 17C36.0868 17 36.0565 16.9883 36.0339 16.965C36.0113 16.9342 36 16.8992 36 16.8603V10.1515C36 10.1127 36.0113 10.0777 36.0339 10.0466C36.0565 10.0156 36.0868 10 36.1247 10H39.119C39.9734 10 40.6652 10.2487 41.1947 10.7455C41.7314 11.2503 42 11.9024 42 12.7022C42 13.5099 41.7276 14.1505 41.1832 14.6239C40.6464 15.0977 39.9545 15.3344 39.1078 15.3344H38.0188V16.837C38.0188 16.8759 38.0074 16.9109 37.9847 16.9417C37.9622 16.973 37.9316 16.9883 37.894 16.9883Z" fill="#FF6650"/>
<path fill-rule="evenodd" clip-rule="evenodd" d="M46.4898 11.7244V11.7471C46.0396 11.7471 45.6553 11.9098 45.3369 12.235C45.0184 12.5604 44.859 12.9914 44.859 13.5283C44.859 14.0655 45.0184 14.4966 45.3369 14.8218C45.6553 15.1469 46.0396 15.3096 46.4898 15.3096C46.9325 15.3096 47.3168 15.1432 47.6425 14.8103C47.9608 14.4853 48.1201 14.054 48.1201 13.517C48.1201 12.98 47.9608 12.5489 47.6425 12.2236C47.3168 11.891 46.9325 11.7244 46.4898 11.7244ZM46.5103 10H46.4898C47.4799 10 48.3105 10.3177 48.9822 10.9531C49.6606 11.5884 50 12.4391 50 13.5056C50 14.5722 49.664 15.4229 48.9925 16.0584C48.3278 16.6862 47.497 17 46.5002 17C45.5031 17 44.6722 16.6862 44.0077 16.0584C43.3359 15.4229 43 14.5722 43 13.5056C43 12.4391 43.3392 11.5884 44.0179 10.9531C44.6893 10.3177 45.5204 10 46.5103 10Z" fill="#FF6650"/>
<path fill-rule="evenodd" clip-rule="evenodd" d="M56.4005 17L53.651 14.0349L52.9938 13.244H52.9498V16.8604C52.9498 16.8915 52.9389 16.9265 52.917 16.9651C52.9022 16.9885 52.8731 17 52.8293 17H51.1204C51.0763 17 51.0472 16.9885 51.0328 16.9651C51.0108 16.9265 51 16.8915 51 16.8604V10.1627C51 10.1319 51.0108 10.0969 51.0328 10.058C51.0545 10.0272 51.0837 10.0115 51.1204 10.0115H52.5993L55.4146 13.0348L56.0173 13.7557H56.0502V10.1511C56.0502 10.1125 56.0611 10.0776 56.0829 10.0464C56.1047 10.0156 56.134 10 56.1706 10H57.8794C57.9161 10 57.9453 10.0156 57.9671 10.0464C57.989 10.0776 58 10.1125 58 10.1511V16.8489C58 16.8876 57.989 16.9227 57.9671 16.9535C57.9453 16.9847 57.9161 17 57.8794 17H56.4005Z" fill="#FF6650"/>
<path fill-rule="evenodd" clip-rule="evenodd" d="M24.95 53.7723L24.7466 53.7819C24.729 53.7819 24.7166 53.7788 24.7101 53.7723C24.7056 53.7679 24.7011 53.7528 24.6966 53.727C24.6879 53.5913 24.6255 53.4782 24.5099 53.3878C24.3966 53.2973 24.2423 53.2521 24.0466 53.2521C23.8266 53.2521 23.6466 53.3199 23.5066 53.4556C23.3667 53.5913 23.2966 53.7755 23.2966 54.0081C23.2966 54.2386 23.3667 54.4217 23.5066 54.5574C23.6466 54.6932 23.8266 54.761 24.0466 54.761C24.24 54.761 24.3943 54.7201 24.5099 54.6382C24.6232 54.5563 24.6867 54.4498 24.7 54.3182C24.7045 54.2925 24.7089 54.2774 24.7132 54.273C24.72 54.2666 24.7344 54.2633 24.7569 54.2633H24.9434C24.979 54.2633 24.9966 54.272 24.9966 54.2892C24.9966 54.4895 24.91 54.6586 24.7366 54.7964C24.5679 54.9321 24.3367 55 24.0435 55C23.7366 55 23.4866 54.9106 23.2932 54.7318C23.0978 54.5509 23 54.3075 23 54.0017C23 53.6958 23.0987 53.4524 23.2966 53.2715C23.492 53.0905 23.7423 53 24.0466 53C24.3442 53 24.5777 53.0755 24.7466 53.2263C24.9157 53.377 25 53.5482 25 53.7399C25 53.7615 24.9834 53.7723 24.95 53.7723Z" fill="#FF6650"/>
<path fill-rule="evenodd" clip-rule="evenodd" d="M25.9985 53.2456V53.2391C25.7928 53.2391 25.6205 53.307 25.4807 53.4428C25.3411 53.5784 25.2712 53.7625 25.2712 53.9952C25.2712 54.2236 25.3411 54.4076 25.4807 54.5477C25.6184 54.6855 25.7908 54.7544 25.9985 54.7544C26.2038 54.7544 26.3764 54.6865 26.5163 54.5509C26.6559 54.4151 26.7258 54.2321 26.7258 54.0015C26.7258 53.769 26.6569 53.5848 26.5191 53.4491C26.3796 53.3135 26.2059 53.2456 25.9985 53.2456ZM25.9985 53.0065V53C26.2839 53 26.5223 53.0905 26.7134 53.2714C26.9043 53.4524 27 53.6958 27 54.0015C27 54.3075 26.9043 54.5509 26.7134 54.7318C26.5244 54.9106 26.2859 55 25.9985 55C25.7128 55 25.4755 54.9106 25.2866 54.7318C25.0955 54.5509 25 54.3086 25 54.0048C25 53.7011 25.0955 53.4589 25.2866 53.2779C25.4775 53.097 25.7149 53.0065 25.9985 53.0065Z" fill="#FF6650"/>
<path fill-rule="evenodd" clip-rule="evenodd" d="M29.8919 53.2595L29.3088 53.2628V54.7537H29.9021C30.1652 54.7537 30.3642 54.6871 30.4991 54.554C30.6342 54.4187 30.7017 54.2358 30.7017 54.0049C30.7017 53.7743 30.6261 53.5922 30.475 53.4591C30.3242 53.3261 30.1298 53.2595 29.8919 53.2595ZM29.8953 55H29.0446C29.0307 55 29.0206 54.9966 29.0137 54.99C29.0044 54.9812 29 54.9712 29 54.96V53.0432C29 53.0321 29.0044 53.0222 29.0137 53.0133C29.0226 53.0045 29.0331 53 29.0446 53H29.8919C30.212 53 30.4762 53.0909 30.6843 53.2729C30.8949 53.4571 31 53.6999 31 54.0017C31 54.3078 30.9028 54.5508 30.7083 54.7304C30.5117 54.9102 30.2407 55 29.8953 55Z" fill="#FF6650"/>
<path fill-rule="evenodd" clip-rule="evenodd" d="M32.7766 54.0915L31.3686 54.0981V54.7503H32.9421C32.953 54.7503 32.9655 54.756 32.9792 54.7671C32.9931 54.778 33 54.788 33 54.797V54.9567C33 54.9656 32.9931 54.9755 32.9792 54.9866C32.9683 54.9955 32.9558 55 32.9421 55H31.054C31.0428 55 31.0304 54.9966 31.0165 54.99C31.0053 54.9812 31 54.9712 31 54.96V53.0433C31 53.0322 31.0053 53.0222 31.0165 53.0133C31.0276 53.0045 31.0399 53 31.054 53H32.9005C32.9116 53 32.924 53.0055 32.9379 53.0165C32.9516 53.0277 32.9586 53.0377 32.9586 53.0467V53.2063C32.9586 53.2152 32.9516 53.2251 32.9379 53.2362C32.924 53.2474 32.9116 53.2529 32.9005 53.2529H31.3686V53.8386H32.7766C32.7874 53.8386 32.7999 53.8441 32.8135 53.8552C32.8275 53.8664 32.8345 53.8763 32.8345 53.8852V54.045C32.8345 54.0538 32.8275 54.0638 32.8135 54.0749C32.7999 54.0861 32.7874 54.0915 32.7766 54.0915Z" fill="#FF6650"/>
<path fill-rule="evenodd" clip-rule="evenodd" d="M33 54.8654C33 54.8288 33.0469 54.7963 33.1415 54.7681C33.2355 54.7414 33.3545 54.7282 33.4994 54.7282C33.6443 54.7282 33.7639 54.7414 33.8585 54.7681C33.9525 54.7963 34 54.8288 34 54.8654C34 54.902 33.9525 54.9344 33.8585 54.9625C33.7639 54.9876 33.6443 55 33.4994 55C33.3545 55 33.2355 54.9876 33.1415 54.9625C33.0469 54.9344 33 54.902 33 54.8654ZM33 54.1372C33 54.1006 33.0469 54.0682 33.1415 54.0399C33.2355 54.0134 33.3545 54 33.4994 54C33.6443 54 33.7639 54.0134 33.8585 54.0399C33.9525 54.0682 34 54.1006 34 54.1372C34 54.1737 33.9525 54.2062 33.8585 54.2345C33.7639 54.261 33.6443 54.2743 33.4994 54.2743C33.3545 54.2743 33.2355 54.261 33.1415 54.2345C33.0469 54.2062 33 54.1737 33 54.1372Z" fill="#FF6650"/>
<path fill-rule="evenodd" clip-rule="evenodd" d="M35 53L34.9893 54.9541C34.9893 54.9629 34.9831 54.9727 34.971 54.9836C34.9591 54.9945 34.9483 55 34.9387 55H34.7295C34.7197 55 34.709 54.9945 34.697 54.9836C34.6851 54.9727 34.679 54.9629 34.679 54.9541V53.4992L34.6718 53.4958L34.1922 53.8571C34.1849 53.8636 34.1728 53.867 34.156 53.867C34.1393 53.867 34.1272 53.8636 34.1201 53.8571L34.0082 53.7356C34.0009 53.729 33.9985 53.718 34.0009 53.7028C34.0058 53.6853 34.0106 53.6754 34.0154 53.6731L34.9062 53H35Z" fill="#FF6650"/>
<path fill-rule="evenodd" clip-rule="evenodd" d="M36.0041 55L36 54.7941L37.1588 54.1797C37.4565 54.0207 37.6055 53.8453 37.6055 53.6536C37.6055 53.5316 37.552 53.4336 37.4445 53.3595C37.3346 53.2832 37.1856 53.2451 36.998 53.2451C36.5981 53.2451 36.3984 53.4031 36.3984 53.719C36.3984 53.7561 36.3782 53.7746 36.3381 53.7746H36.1005C36.0605 53.7746 36.0401 53.7637 36.0401 53.7418C36.0401 53.5154 36.1181 53.3356 36.2737 53.2026C36.4318 53.0675 36.6734 53 36.998 53C37.3065 53 37.5437 53.0632 37.7102 53.1896C37.8792 53.3159 37.9636 53.4728 37.9636 53.6602C37.9636 53.7997 37.9114 53.9281 37.8068 54.0458C37.7022 54.1634 37.5332 54.2843 37.2998 54.4085L36.8411 54.6504L36.6036 54.7386V54.7516H37.9436C37.9541 54.7516 37.9663 54.7572 37.9797 54.768C37.9932 54.7789 38 54.7887 38 54.7974V54.9542C38 54.9651 37.9945 54.975 37.984 54.9836C37.9704 54.9946 37.9582 55 37.9477 55H36.0041Z" fill="#FF6650"/>
<path fill-rule="evenodd" clip-rule="evenodd" d="M38.8549 54.0855V54.0953C38.8442 54.0953 38.8321 54.09 38.8191 54.0791C38.8083 54.0705 38.8033 54.0608 38.8033 54.0502V53.895C38.8033 53.8864 38.8096 53.8766 38.823 53.8658C38.836 53.855 38.8482 53.8498 38.8586 53.8498H39.0498C39.3705 53.8498 39.5307 53.756 39.5307 53.5686C39.5307 53.4696 39.4857 53.391 39.3955 53.3328C39.3026 53.2746 39.1635 53.2456 38.9779 53.2456C38.6282 53.2456 38.4413 53.3587 38.4176 53.5847C38.4122 53.6214 38.392 53.6396 38.3578 53.6396H38.1231C38.0834 53.6396 38.0634 53.629 38.0634 53.6073C38.0634 53.4308 38.1416 53.2854 38.2982 53.1712C38.4545 53.0571 38.6813 53 38.9779 53C39.2855 53 39.5123 53.0549 39.6579 53.1647C39.8064 53.2746 39.8806 53.4103 39.8806 53.572C39.8806 53.7356 39.7881 53.8595 39.6023 53.9434V53.9531C39.7323 53.9853 39.8303 54.0404 39.8967 54.1179C39.9654 54.1977 40 54.2849 40 54.3796C40 54.5584 39.915 54.707 39.7455 54.8255C39.5784 54.9418 39.328 55 38.994 55C38.6732 55 38.428 54.9408 38.2582 54.8222C38.0859 54.7016 38 54.5476 38 54.3603C38 54.3387 38.0198 54.3279 38.0598 54.3279H38.2942C38.3287 54.3279 38.3485 54.3462 38.354 54.3829C38.3669 54.4991 38.4266 54.5896 38.5326 54.6543C38.6386 54.7189 38.7926 54.7512 38.994 54.7512C39.1954 54.7512 39.3543 54.7157 39.471 54.6445C39.5878 54.5735 39.6462 54.4819 39.6462 54.3699C39.6462 54.1803 39.4949 54.0855 39.1927 54.0855H38.8549Z" fill="#FF6650"/>
<path fill-rule="evenodd" clip-rule="evenodd" d="M40.5616 54.3022H41.3386V53.5943L41.3579 53.3606L41.3423 53.3573C41.2476 53.4753 41.1925 53.541 41.1769 53.5544L40.5115 54.2121L40.3693 54.3089L40.3732 54.3157C40.4475 54.3067 40.5102 54.3022 40.5616 54.3022ZM41.9462 54.5559H41.6772V54.9532C41.6772 54.9622 41.6707 54.9723 41.6577 54.9833C41.645 54.9944 41.6333 55 41.6233 55H41.4002C41.3897 55 41.3783 54.9944 41.3655 54.9833C41.3528 54.9723 41.3462 54.9622 41.3462 54.9532V54.5559H40V54.3624L41.3731 53H41.6847V54.3022H41.9462C41.9565 54.3022 41.9679 54.3077 41.9809 54.3188C41.9938 54.3301 42 54.3401 42 54.3489V54.5092C42 54.5182 41.9938 54.5281 41.9809 54.5392C41.9679 54.5505 41.9565 54.5559 41.9462 54.5559Z" fill="#FF6650"/>
<path fill-rule="evenodd" clip-rule="evenodd" d="M43.7379 53.2496H42.4837L42.3975 53.7915L42.4058 53.7948C42.5943 53.7028 42.8156 53.6568 43.0698 53.6568C43.3539 53.6568 43.5793 53.7138 43.746 53.8276C43.9153 53.9437 44 54.0992 44 54.2939C44 54.5041 43.9072 54.6748 43.7214 54.8062C43.5409 54.9354 43.2992 55 42.996 55C42.7637 55 42.5532 54.9573 42.3647 54.872C42.168 54.7821 42.0492 54.6596 42.0083 54.5041C42.0028 54.4735 42 54.456 42 54.4516C42 54.4363 42.0068 54.4232 42.0205 54.4121C42.0342 54.4012 42.0505 54.3958 42.0695 54.3958H42.2911C42.3291 54.3958 42.3537 54.4121 42.3647 54.4449C42.4032 54.5436 42.4808 54.619 42.5984 54.6716C42.7185 54.7242 42.8527 54.7504 43.0001 54.7504C43.1941 54.7504 43.3497 54.7077 43.4672 54.6223C43.5848 54.5369 43.6436 54.4286 43.6436 54.2972C43.6436 54.179 43.5946 54.0837 43.4958 54.0116C43.3978 53.9393 43.2544 53.9031 43.0655 53.9031C42.828 53.9031 42.605 53.9601 42.3975 54.0739C42.3702 54.0893 42.3375 54.0893 42.2991 54.0739L42.0409 53.9525C42.0273 53.9458 42.0205 53.9338 42.0205 53.9163L42.168 53H43.7339C43.7446 53 43.757 53.0055 43.7706 53.0164C43.7844 53.0275 43.7912 53.0372 43.7912 53.046V53.2037C43.7912 53.2146 43.7856 53.2244 43.7746 53.2332C43.7612 53.2443 43.7487 53.2496 43.7379 53.2496Z" fill="#FF6650"/>
<path fill-rule="evenodd" clip-rule="evenodd" d="M46.0499 53.9854L46.0576 53.9919C45.8614 53.9919 45.705 54.0263 45.5884 54.0953C45.4743 54.1621 45.4176 54.2461 45.4176 54.3473C45.4176 54.4614 45.4717 54.5595 45.5807 54.6413C45.6866 54.721 45.8376 54.7608 46.0338 54.7608C46.2458 54.7608 46.401 54.7221 46.499 54.6446C46.5995 54.567 46.6502 54.468 46.6502 54.3473C46.6502 54.2418 46.5986 54.1556 46.4949 54.0888C46.3889 54.02 46.2408 53.9854 46.0499 53.9854ZM46.0298 54.9935V55C45.6745 55 45.4149 54.9138 45.2506 54.7415C45.0835 54.567 45 54.3311 45 54.0338C45 53.7151 45.0913 53.4631 45.2743 53.2778C45.4571 53.0926 45.7171 53 46.0535 53C46.3161 53 46.524 53.0506 46.678 53.1517C46.8264 53.251 46.9072 53.3802 46.9205 53.5395C46.9205 53.5611 46.9007 53.5719 46.8608 53.5719H46.6264C46.6076 53.5719 46.5945 53.5686 46.5864 53.5622C46.5785 53.5557 46.5719 53.5407 46.5668 53.5169C46.5453 53.4351 46.4896 53.3683 46.3996 53.3167C46.3095 53.2649 46.194 53.2392 46.0535 53.2392C45.6058 53.2392 45.371 53.4814 45.3498 53.966H45.3619C45.4228 53.8994 45.5142 53.8444 45.6362 53.8012C45.7634 53.7582 45.9012 53.7367 46.0499 53.7367C46.3571 53.7367 46.5919 53.7926 46.7535 53.9047C46.9179 54.0188 47 54.1642 47 54.3408C47 54.5326 46.9126 54.6898 46.7374 54.8126C46.5654 54.9332 46.3293 54.9935 46.0298 54.9935Z" fill="#FF6650"/>
<path fill-rule="evenodd" clip-rule="evenodd" d="M48.4321 53.2534H47.0594C47.048 53.2534 47.0354 53.2479 47.0213 53.2367C47.0072 53.2256 47 53.2156 47 53.2067V53.0467C47 53.0378 47.0072 53.0279 47.0213 53.0167C47.0354 53.0056 47.048 53 47.0594 53H49V53.01L47.678 54.9633C47.6613 54.9877 47.6286 55 47.5805 55H47.28C47.2628 55 47.2542 54.9934 47.2542 54.98C47.2542 54.9711 47.2584 54.9611 47.2671 54.9499L48.4321 53.26V53.2534Z" fill="#FF6650"/>
</g>
</svg>
