<svg width="14" height="19" viewBox="0 0 14 19" fill="none" xmlns="http://www.w3.org/2000/svg">
<path fill-rule="evenodd" clip-rule="evenodd" d="M12.1328 3.17873C12.1328 2.26503 11.3921 1.52432 10.4784 1.52432H2.75783C1.84413 1.52432 1.10342 2.26503 1.10342 3.17873V16.5959L6.35349 13.7243C6.51839 13.6341 6.71787 13.6341 6.88277 13.7243L12.1328 16.5959V3.17873ZM0.816596 18.01C0.449095 18.211 0.000488281 17.945 0.000488281 17.5262V3.17874C0.000488281 1.6559 1.235 0.421387 2.75784 0.421387H10.4784C12.0013 0.421387 13.2358 1.6559 13.2358 3.17874V17.5262C13.2358 17.945 12.7872 18.211 12.4197 18.01L6.61814 14.8367L0.816596 18.01Z" fill="#C5CEE0"/>
</svg>
