<svg width="20" height="21" viewBox="0 0 20 21" fill="none" xmlns="http://www.w3.org/2000/svg">
<path fill-rule="evenodd" clip-rule="evenodd" d="M16.1111 20.25C17.6453 20.25 18.8889 19.0063 18.8889 17.4722V8.84551L19.0913 9.01218C19.3281 9.20723 19.6783 9.17335 19.8733 8.9365C20.0684 8.69966 20.0345 8.34953 19.7976 8.15448L10.3532 0.376705C10.148 0.207765 9.85199 0.207765 9.64684 0.376705L0.202401 8.15448C-0.0344468 8.34953 -0.0683296 8.69966 0.126721 8.9365C0.321772 9.17335 0.671895 9.20723 0.908742 9.01218L1.11113 8.84551V17.4722C1.11113 19.0063 2.35478 20.25 3.8889 20.25H7.22224C7.52906 20.25 7.77779 20.0013 7.77779 19.6944V13.0278C7.77779 12.721 8.02652 12.4722 8.33335 12.4722H11.6667C11.9735 12.4722 12.2222 12.721 12.2222 13.0278V19.6944C12.2222 20.0013 12.471 20.25 12.7778 20.25H16.1111ZM10 1.52524L17.7852 7.9366C17.7803 7.96626 17.7778 7.99671 17.7778 8.02776V17.4722C17.7778 18.3927 17.0316 19.1389 16.1111 19.1389H13.3334V13.0278C13.3334 12.1073 12.5872 11.3611 11.6667 11.3611H8.33335C7.41288 11.3611 6.66669 12.1073 6.66669 13.0278V19.1389H3.88891C2.96843 19.1389 2.22224 18.3927 2.22224 17.4722V8.02776C2.22224 7.99671 2.21969 7.96626 2.2148 7.9366L10 1.52524Z" fill="#C5CEE0"/>
</svg>
