<svg width="23" height="21" viewBox="0 0 23 21" fill="none" xmlns="http://www.w3.org/2000/svg">
<path fill-rule="evenodd" clip-rule="evenodd" d="M4.44363 10.8959L3.071 2.66008C2.93539 1.84638 2.23138 1.25 1.40646 1.25H1.0625C0.75184 1.25 0.5 0.99816 0.5 0.6875C0.5 0.37684 0.75184 0.125 1.0625 0.125H1.40646C2.74726 0.125 3.8964 1.07033 4.16216 2.375H22.4375C22.8112 2.375 23.081 2.7327 22.9784 3.09203L20.7284 10.967C20.6594 11.2085 20.4386 11.375 20.1875 11.375H5.66401L5.804 12.2149C5.93961 13.0286 6.64362 13.625 7.46854 13.625H20.1875C20.4982 13.625 20.75 13.8768 20.75 14.1875C20.75 14.4982 20.4982 14.75 20.1875 14.75H7.46854C6.09368 14.75 4.92033 13.756 4.6943 12.3999L4.44363 10.8959ZM5.4765 10.25L4.3515 3.49999H21.6918L19.7632 10.25H5.4765Z" fill="#C5CEE0"/>
<path fill-rule="evenodd" clip-rule="evenodd" d="M7.24999 20.375C6.00735 20.375 4.99999 19.3676 4.99999 18.125C4.99999 16.8824 6.00735 15.875 7.24999 15.875C8.49264 15.875 9.49999 16.8824 9.49999 18.125C9.49999 19.3676 8.49264 20.375 7.24999 20.375ZM8.375 18.125C8.375 18.7463 7.87132 19.25 7.25 19.25C6.62868 19.25 6.125 18.7463 6.125 18.125C6.125 17.5037 6.62868 17 7.25 17C7.87132 17 8.375 17.5037 8.375 18.125Z" fill="#C5CEE0"/>
<path fill-rule="evenodd" clip-rule="evenodd" d="M17.375 20.375C16.1324 20.375 15.125 19.3676 15.125 18.125C15.125 16.8824 16.1324 15.875 17.375 15.875C18.6176 15.875 19.625 16.8824 19.625 18.125C19.625 19.3676 18.6176 20.375 17.375 20.375ZM18.5 18.125C18.5 18.7463 17.9963 19.25 17.375 19.25C16.7537 19.25 16.25 18.7463 16.25 18.125C16.25 17.5037 16.7537 17 17.375 17C17.9963 17 18.5 17.5037 18.5 18.125Z" fill="#C5CEE0"/>
</svg>
